<?xml version="1.0" encoding="UTF-8"?>
<svg id="_图层_2" data-name=" 图层 2" xmlns="http://www.w3.org/2000/svg" viewBox="0 0 119.77 20.55">
  <defs>
    <style>
      .cls-1 {
        fill: #fff;
        stroke: #000;
        stroke-miterlimit: 10;
        stroke-width: .71px;
      }

      .cls-2 {
        fill: #231815;
        stroke-width: 0px;
      }
    </style>
  </defs>
  <g id="_图层_2-2" data-name=" 图层 2-2">
    <rect class="cls-1" x=".35" y=".35" width="119.06" height="19.84"/>
    <g>
      <path class="cls-2" d="m15.81,13.57l.07-.62c.33-.05.56-.14.68-.27.12-.14.18-.37.18-.69v-4.57c.01-.24-.01-.4-.06-.49-.05-.08-.16-.12-.32-.12h-.17c-.07,0-.14,0-.2.02l-.04-.07.09-.58c.15,0,.33,0,.54.01.21,0,.42.01.65.02s.42,0,.61,0c.58,0,1.08,0,1.5-.01.42,0,.78-.02,1.09-.05.31-.02.59-.05.83-.08l.06.09c-.04.19-.08.4-.11.63-.04.23-.07.46-.09.69-.02.23-.04.44-.06.64l-.76.06c0-.07.01-.15.02-.25v-.23c0-.17-.02-.31-.04-.41-.03-.1-.1-.18-.21-.23s-.27-.08-.48-.1-.5-.03-.87-.03c-.22,0-.38,0-.48.02s-.16.05-.19.11-.04.16-.05.28l-.11,2.56-.03,2.19c0,.2.02.34.05.44.04.1.11.16.22.19s.29.05.54.05c.41,0,.74-.02.99-.05s.44-.09.57-.18.23-.23.29-.41c.06-.18.12-.42.15-.71l.7-.07.06.08c-.06.26-.12.57-.17.95-.06.38-.1.73-.14,1.04l-.08.09c-.43-.02-.87-.03-1.32-.04-.45-.01-.86-.02-1.24-.03-.38,0-.68-.01-.92-.01-.26,0-.55,0-.88.03-.33.02-.62.05-.87.08v.03Zm1.92-3.37l.09-.84h1.19c.13,0,.32-.01.59-.03.26-.02.52-.05.77-.08l.06.08-.16.8c-.2,0-.46-.01-.76-.02-.3,0-.56-.01-.77-.01-.16,0-.33,0-.52.03s-.36.04-.5.06h.01Z"/>
      <path class="cls-2" d="m28.36,13.64c-.21,0-.42-.09-.64-.28-.21-.19-.41-.45-.59-.78l-1.1-2.11h-.88l-.02,1.51c0,.26.02.46.05.59.03.13.11.21.23.25.12.04.3.06.54.07l.02.05-.1.58c-.18,0-.34-.01-.48-.02s-.28,0-.43-.01h-1.07c-.22,0-.49.02-.8.05l.1-.62c.34-.04.57-.12.67-.24.11-.12.17-.34.17-.67v-4.59c.01-.23-.02-.38-.07-.47-.05-.08-.16-.12-.32-.12-.07,0-.2,0-.38.02l-.04-.06.09-.59c.19,0,.36.01.5.02.14,0,.29,0,.44.01s.28,0,.39,0h.41c.17,0,.34,0,.52-.02.17,0,.38-.02.61-.02.77,0,1.37.16,1.8.48s.65.78.65,1.37c0,.45-.14.86-.41,1.24s-.67.69-1.19.93l1.13,1.81c.22.35.43.6.63.75.2.15.44.23.72.23l.06.07-.08.48-1.12.12v-.03Zm-2.08-3.86s.09-.05.21-.1c.12-.05.25-.14.39-.25s.26-.27.36-.46c.1-.2.15-.45.15-.75,0-.46-.16-.81-.47-1.04-.31-.23-.79-.35-1.43-.35-.08,0-.13.02-.15.05-.03.03-.04.1-.05.21-.03.54-.05,1.01-.07,1.41-.02.4-.03.79-.04,1.17l1.11.11h-.01Z"/>
      <path class="cls-2" d="m30.75,13.58l.08-.61c.34-.07.57-.17.68-.3s.17-.36.17-.67v-4.58c.01-.24-.01-.4-.07-.49-.05-.08-.17-.12-.34-.12h-.18c-.07,0-.13,0-.19.02l-.05-.07.09-.57c.18,0,.4,0,.66.01.26,0,.47.01.63.01s.36,0,.62-.03c.26-.02.53-.04.8-.06l-.04.61c-.21.03-.36.07-.45.12-.1.05-.16.14-.2.26-.03.12-.06.3-.07.54l-.07,1.75h1.71c.24.01.47,0,.7,0,.22-.01.5-.04.83-.07v-1.92c0-.24-.02-.4-.07-.49-.05-.08-.17-.12-.34-.12h-.18c-.07,0-.13,0-.18.02l-.04-.07.08-.57h.29c.16,0,.33,0,.51.01h.46c.16,0,.38,0,.65-.03.28-.02.56-.04.84-.06l-.06.61c-.28.04-.46.1-.56.18-.09.08-.14.23-.16.45-.02.39-.04.81-.06,1.25s-.03.88-.05,1.32-.02.84-.03,1.21c0,.37,0,.69,0,.95,0,.3.03.5.1.61s.2.15.39.15c.08,0,.16,0,.25-.01.09,0,.16-.02.22-.02l.05.06-.1.61c-.2,0-.46-.02-.75-.02s-.55-.01-.75-.01h-.93c-.18,0-.35,0-.5.01l.1-.61c.23,0,.4-.04.52-.1s.21-.17.25-.33.07-.39.07-.7v-1.6h-1.51c-.07,0-.2,0-.39.01-.19,0-.4.02-.65.04-.24.02-.48.04-.72.06l-.04,1.85c0,.3.03.51.1.61.06.11.19.16.37.16.08,0,.17,0,.25-.01.09,0,.16-.02.22-.02l.04.06-.1.61s-.13-.01-.27-.02c-.14,0-.3,0-.46-.01h-.41c-.2,0-.43,0-.69.02-.25.01-.48.03-.68.05s-.33.04-.39.06h.01Z"/>
      <path class="cls-2" d="m43.02,13.48l.05-.54c.26-.03.45-.06.59-.08s.23-.07.28-.12.08-.13.08-.23c0-.06,0-.13-.02-.21,0-.08-.03-.16-.06-.26l-.32-1.08c-.14,0-.32-.01-.55-.01h-.56c-.2,0-.42,0-.64.03-.22.02-.4.04-.53.05l-.36,1.04c-.06.18-.09.31-.09.4,0,.15.05.26.15.32.1.06.25.1.46.1h.58l.03.06-.07.58c-.33-.02-.62-.04-.87-.05s-.49-.02-.74-.02h-.6c-.2,0-.44.01-.71.03l.09-.62c.2-.03.35-.1.48-.22s.23-.32.34-.61l2.13-5.77,1.18-.19.1.03c.11.37.2.72.29,1.04s.19.69.3,1.09.23.84.36,1.28c.13.45.26.89.39,1.33s.26.85.38,1.23c.09.27.21.46.35.58.14.11.36.19.66.22l.04.06-.08.56c-.31-.02-.56-.02-.77-.03h-.53c-.29,0-.58,0-.86.03-.28.02-.58.04-.92.07l-.05-.08h.02Zm-1.45-3.19h.92c.13,0,.3,0,.49-.02.19-.01.34-.02.46-.03l-.78-2.77h-.11l-.98,2.81h0Z"/>
      <path class="cls-2" d="m47.23,13.58l.07-.61c.35-.07.58-.17.7-.3s.18-.36.18-.67v-4.58c0-.24-.02-.4-.07-.49-.06-.08-.17-.12-.33-.12h-.21c-.09,0-.16,0-.23.02l-.03-.07.08-.57c.22,0,.47,0,.74.01.28,0,.51.01.71.01.15,0,.36,0,.62-.03.27-.02.54-.04.82-.06l-.06.61c-.3.04-.5.1-.61.18-.1.08-.16.23-.18.45-.02.39-.04.81-.06,1.25s-.04.88-.05,1.31c0,.43-.02.84-.03,1.21,0,.37,0,.69,0,.95,0,.3.03.51.1.61.06.11.19.16.37.16.1,0,.2,0,.3-.01.1,0,.19-.02.25-.02l.03.06-.1.61c-.15,0-.33-.01-.52-.02-.2,0-.39,0-.58-.01h-.46c-.17,0-.39.01-.66.03-.26.02-.52.05-.77.09h0Z"/>
      <path class="cls-2" d="m54.66,13.55l.08-.62c.33-.06.54-.15.65-.27.11-.12.16-.34.16-.67v-4.57c0-.24,0-.4-.07-.49-.05-.08-.16-.12-.32-.12-.07,0-.2,0-.39.02l-.05-.06.09-.58h.29c.15,0,.33,0,.52.01h.9c.17,0,.34,0,.52-.02.18,0,.4-.02.65-.02.45,0,.84.05,1.16.15s.59.24.79.43c.21.19.36.41.46.67s.15.54.15.84c0,.33-.07.65-.21.95s-.34.57-.59.81c-.25.24-.53.43-.84.56-.31.14-.64.2-.99.2h-.96v1c0,.31,0,.54.02.7s.07.26.15.31.19.07.33.07c.11,0,.29-.01.57-.03l.02.06-.1.61c-.17,0-.32-.01-.45-.02-.13,0-.26,0-.4-.01h-.35c-.15,0-.33,0-.53.01-.2,0-.39.02-.58.02s-.35.02-.47.03c-.12.01-.19.02-.2.03h-.01Zm3.14-3.44c.82-.15,1.22-.71,1.22-1.67,0-.54-.16-.93-.46-1.18s-.8-.37-1.46-.37c-.13,0-.21,0-.23.02s-.04.07-.05.16c-.03.46-.06.94-.08,1.44s-.04.98-.06,1.44l1.12.16Z"/>
      <path class="cls-2" d="m64.74,13.48l.05-.54c.26-.03.45-.06.59-.08.14-.03.23-.07.28-.12s.08-.13.08-.23c0-.06,0-.13-.02-.21-.01-.08-.03-.16-.06-.26l-.32-1.08c-.14,0-.32-.01-.55-.01h-.56c-.2,0-.42,0-.64.03-.22.02-.4.04-.53.05l-.36,1.04c-.06.18-.09.31-.09.4,0,.15.05.26.15.32.1.06.25.1.46.1h.58l.03.06-.07.58c-.33-.02-.62-.04-.87-.05s-.5-.02-.74-.02h-.6c-.2,0-.44.01-.71.03l.09-.62c.2-.03.35-.1.48-.22s.23-.32.34-.61l2.13-5.77,1.18-.19.1.03c.11.37.2.72.29,1.04.09.32.19.69.3,1.09s.23.84.36,1.28c.13.45.26.89.39,1.33s.26.85.38,1.23c.09.27.21.46.35.58.14.11.36.19.66.22l.03.06-.08.56c-.31-.02-.57-.02-.77-.03h-.53c-.29,0-.58,0-.86.03s-.58.04-.92.07l-.05-.08h.03Zm-1.45-3.19h.92c.14,0,.3,0,.49-.02.19-.01.34-.02.46-.03l-.78-2.77h-.11l-.98,2.81h0Z"/>
      <path class="cls-2" d="m74.22,13.64c-.21,0-.42-.09-.64-.28s-.41-.45-.59-.78l-1.1-2.11h-.88l-.02,1.51c0,.26.02.46.05.59.04.13.11.21.23.25s.3.06.54.07l.02.05-.1.58c-.18,0-.34-.01-.48-.02-.14,0-.28,0-.43-.01h-1.07c-.22,0-.49.02-.8.05l.1-.62c.34-.04.57-.12.67-.24.11-.12.16-.34.16-.67v-4.59c.01-.23-.02-.38-.07-.47-.05-.08-.16-.12-.32-.12-.07,0-.2,0-.39.02l-.04-.06.09-.59c.19,0,.35.01.5.02.14,0,.29,0,.44.01h.8c.17,0,.34,0,.52-.02.17,0,.38-.02.61-.02.77,0,1.37.16,1.8.48s.65.78.65,1.37c0,.45-.14.86-.41,1.24-.28.38-.67.69-1.18.93l1.13,1.81c.22.35.43.6.63.75s.44.23.72.23l.06.07-.08.48-1.12.12v-.03Zm-2.08-3.86s.09-.05.21-.1.25-.14.38-.25c.14-.11.26-.27.36-.46.1-.2.15-.45.15-.75,0-.46-.16-.81-.47-1.04-.31-.23-.79-.35-1.43-.35-.08,0-.13.02-.15.05-.03.03-.04.1-.05.21-.03.54-.06,1.01-.07,1.41-.02.4-.03.79-.04,1.17,0,0,1.11.11,1.11.11Z"/>
      <path class="cls-2" d="m77.55,7.41c0-.24-.03-.4-.08-.49-.05-.08-.17-.12-.34-.12-.07,0-.19,0-.36.02l-.05-.07.09-.58c.2,0,.38.01.54.02.15,0,.31,0,.46.01h.37c.12,0,.26,0,.41-.02.16-.01.3-.02.45-.03.14,0,.31-.02.5-.05l-.04.61c-.28.05-.47.12-.57.22-.1.09-.16.24-.17.45l-.12,4.68c0,.3.02.51.09.61.07.11.19.16.38.16.12,0,.28-.01.49-.03l.04.06-.1.61c-.21,0-.4-.01-.56-.02-.16,0-.33,0-.49-.01h-1.38c-.14,0-.31,0-.49.02l.11-.6c.35-.05.57-.12.67-.23s.15-.33.15-.65v-4.58h0Zm1.39,2.27l1.87-1.98c.22-.22.33-.41.33-.58,0-.1-.05-.18-.16-.23-.11-.06-.28-.09-.5-.11l-.03-.06.09-.58c.18.02.35.03.49.03.15,0,.29.02.44.02s.28.01.39.01h.36c.13,0,.26,0,.39-.02.12,0,.26-.02.41-.02l.06.09-.08.54c-.14.05-.28.11-.4.19s-.26.19-.41.33c-.15.14-.34.34-.57.58l-1.54,1.67,1.73,2.39c.25.34.48.59.68.74s.43.23.69.24l.07.07-.08.49c-.2.02-.36.04-.5.06s-.26.03-.38.05-.2.02-.23.02c-.21,0-.42-.08-.63-.24s-.42-.4-.62-.72l-1.87-2.77.02-.2h-.02Z"/>
      <path class="cls-2" d="m89.82,14.39l-2.22-.12c.01-.44.03-.83.04-1.17s.03-.71.04-1.1.02-.76.03-1.12c0-.35.01-.65.01-.87s0-.52-.01-.87c0-.35-.02-.73-.03-1.13s-.02-.77-.04-1.12c-.02-.35-.03-.74-.04-1.18l2.24-.12.05.08-.07.48-1.25.25v7.2l1.27.25.05.09-.07.46h0Z"/>
      <path class="cls-2" d="m91.22,12.38c.27-.02.48-.07.63-.14.15-.07.25-.19.31-.35.06-.16.09-.39.09-.69v-2.53c0-.28-.05-.46-.15-.53s-.25-.11-.45-.11c-.11,0-.31.02-.59.07l-.04-.06.06-.54s.12-.02.26-.03c.13-.02.3-.04.48-.06.18-.03.37-.05.55-.07.38-.06.66-.11.84-.14.18-.03.34-.06.47-.08l.09.25c-.14.11-.23.23-.29.36-.06.12-.1.32-.12.57-.02.36-.04.73-.06,1.13-.02.4-.03.78-.03,1.14v.94c0,.29.04.49.11.6.08.11.22.16.42.16.14,0,.33-.01.58-.03l.02.06-.11.62c-.21-.02-.4-.02-.56-.03-.16,0-.33,0-.52-.01h-.48c-.16,0-.33,0-.51.02s-.35.03-.51.05-.34.04-.55.07l.08-.61-.02-.03Z"/>
      <path class="cls-2" d="m96.17,14.03l-.1-.06-.16-.46c.96-.42,1.7-.96,2.21-1.64s.77-1.45.77-2.31c0-.54-.11-.96-.32-1.27s-.51-.47-.89-.47c-.34,0-.6.11-.79.33s-.28.53-.28.92c0,.26.05.49.16.69s.25.37.44.49c.18.12.39.18.62.18.18,0,.38-.04.61-.14.22-.09.42-.21.58-.35l-.23.9-.16-.11c-.26.15-.49.27-.69.36s-.35.14-.46.15c-.37,0-.7-.08-.99-.24s-.52-.39-.69-.67c-.17-.29-.26-.61-.26-.96,0-.44.1-.82.3-1.16s.48-.6.83-.79.76-.29,1.21-.29c.42,0,.78.1,1.1.3s.56.48.74.84.27.78.27,1.26-.09.98-.27,1.43c-.18.46-.43.88-.76,1.28s-.74.74-1.21,1.05-1,.56-1.59.75h.01Z"/>
      <path class="cls-2" d="m101.25,14.39l-.04-.08.08-.48,1.24-.25v-7.2l-1.27-.25-.04-.09.07-.46,2.23.12c-.01.44-.03.83-.04,1.17s-.02.71-.04,1.1c-.02.39-.03.76-.03,1.12s-.01.65-.01.87,0,.52.01.87c0,.35.02.73.03,1.12s.02.77.04,1.12c.02.35.03.75.05,1.18l-2.26.12-.02.02Z"/>
    </g>
  </g>
</svg>