<?xml version="1.0" encoding="UTF-8"?>
<svg id="_图层_2" data-name=" 图层 2" xmlns="http://www.w3.org/2000/svg" viewBox="0 0 119.77 20.55">
  <defs>
    <style>
      .cls-1 {
        fill: #fff;
        stroke: #000;
        stroke-miterlimit: 10;
        stroke-width: .71px;
      }

      .cls-2 {
        fill: #231815;
        stroke-width: 0px;
      }
    </style>
  </defs>
  <rect class="cls-1" x=".35" y=".35" width="119.06" height="19.84"/>
  <g>
    <path class="cls-2" d="m8.71,13.57c-.18-.02-.34-.04-.48-.05-.14-.01-.28-.02-.44-.04-.15-.01-.29-.02-.41-.02-.15,0-.31,0-.48.03-.17.02-.37.04-.6.07l.05-.5c.27-.05.45-.13.54-.24s.14-.28.14-.54v-3.62c0-.19-.01-.32-.05-.39-.04-.07-.12-.1-.25-.1-.06,0-.16,0-.3.02l-.04-.05.07-.47c.14,0,.27,0,.38.01h1.03c.16,0,.31,0,.46-.01.15,0,.33-.01.54-.02.6,0,1.12.11,1.56.33s.78.53,1.02.94c.24.41.36.88.36,1.43,0,.46-.08.89-.23,1.27-.16.39-.38.73-.66,1.02-.28.29-.61.52-.99.68s-.79.24-1.24.24h.02Zm-.38-5.31c-.11,0-.19.01-.23.04-.04.02-.06.08-.07.17-.04.91-.07,1.7-.09,2.35s-.04,1.12-.04,1.41c0,.19.03.34.08.45s.15.18.29.23c.14.05.34.07.6.07.59,0,1.05-.21,1.38-.62s.49-.99.49-1.75c0-.52-.09-.96-.27-1.31-.18-.35-.45-.61-.81-.78s-.81-.26-1.34-.26h.01Z"/>
    <path class="cls-2" d="m17.21,13.6c-.17,0-.34-.08-.5-.23-.17-.15-.32-.36-.47-.62l-.87-1.67h-.7l-.02,1.2c0,.21.01.37.04.47s.09.17.18.2.23.05.43.05l.02.04-.08.46c-.14,0-.27-.01-.38-.01h-1.19c-.18,0-.39.02-.63.04l.08-.5c.27-.03.45-.09.54-.19s.13-.27.13-.53v-3.64c0-.18-.01-.3-.05-.37s-.12-.1-.25-.1c-.05,0-.16,0-.31.02l-.04-.04.07-.47c.15,0,.28,0,.4.01h.99c.14,0,.27,0,.41-.01.14,0,.3-.01.49-.02.61,0,1.09.13,1.43.38s.51.62.51,1.08c0,.35-.11.68-.33.98s-.53.55-.94.74l.9,1.44c.17.28.34.47.5.59s.35.18.57.18l.04.05-.06.38-.89.1h-.02Zm-1.65-3.06s.07-.04.17-.08c.09-.04.2-.11.31-.2.11-.09.21-.21.29-.37.08-.16.12-.35.12-.59,0-.37-.12-.64-.37-.82-.25-.18-.63-.27-1.14-.27-.06,0-.1.01-.12.04-.02.03-.03.08-.04.17-.02.43-.04.8-.06,1.12s-.03.63-.03.93l.88.09v-.02Z"/>
    <path class="cls-2" d="m21.64,13.48l.04-.43c.2-.02.36-.05.47-.07.11-.02.18-.05.23-.09.04-.04.06-.1.06-.18,0-.05,0-.1-.01-.17,0-.06-.03-.13-.05-.2l-.25-.85h-.89c-.16,0-.33,0-.51.02-.18.01-.32.03-.42.04l-.29.83c-.05.14-.07.25-.07.31,0,.12.04.21.12.26s.2.08.37.08h.46l.03.05-.05.46c-.26-.02-.5-.03-.69-.04-.2,0-.39-.01-.58-.01h-.47c-.16,0-.35.01-.56.02l.07-.5c.16-.02.28-.08.38-.18.1-.09.19-.25.27-.48l1.69-4.58.94-.15.08.03c.08.29.16.57.23.82s.15.54.24.87.19.66.29,1.02c.1.35.21.71.31,1.06.11.35.21.68.3.98.07.22.16.37.28.46s.29.15.52.17l.03.04-.06.44c-.25-.01-.45-.02-.61-.02h-.42c-.23,0-.46,0-.68.02-.22.02-.46.04-.73.06l-.04-.06-.03-.03Zm-1.15-2.53h.73c.11,0,.24,0,.39-.01.15,0,.27-.02.37-.02l-.62-2.2h-.09l-.77,2.23h0Z"/>
    <path class="cls-2" d="m27.52,13.57c-.55,0-1.02-.11-1.41-.34-.4-.23-.7-.55-.92-.97s-.32-.92-.32-1.49c0-.64.13-1.2.39-1.67s.63-.84,1.11-1.1c.48-.26,1.04-.39,1.68-.39.19,0,.39,0,.6.03.21.02.4.05.57.08s.37.07.59.11l.04.08c-.06.28-.11.54-.15.78s-.07.5-.08.79l-.62.04c.02-.2.03-.36.03-.49,0-.27-.09-.46-.28-.58-.19-.11-.49-.17-.91-.17s-.76.08-1.05.25c-.29.17-.5.41-.65.74s-.22.73-.22,1.2c0,.52.08.96.23,1.33s.36.66.63.86.59.3.96.3c.22,0,.41-.02.57-.07.16-.05.33-.12.51-.22v-.98c0-.19-.03-.32-.09-.38s-.18-.09-.36-.09h-.56l-.03-.05.08-.53h.24c.12,0,.27.01.44.01h.92c.13,0,.27-.02.43-.04l.05.27c-.09.06-.16.14-.2.24-.05.1-.08.24-.09.43-.02.18-.03.43-.03.75,0,.16,0,.31.02.46.01.14.03.25.04.34l-.06.09c-.36.13-.7.23-1.01.3-.32.07-.67.1-1.08.1v-.02Z"/>
    <path class="cls-2" d="m33.79,13.57c-.51,0-.96-.12-1.33-.35-.38-.23-.67-.56-.88-.98-.21-.42-.31-.92-.31-1.48,0-.46.07-.88.21-1.26s.35-.72.62-1,.58-.51.94-.66c.36-.16.75-.23,1.18-.23.53,0,.98.12,1.37.35.38.23.68.56.9.97.21.42.32.91.32,1.47,0,.46-.08.89-.23,1.27-.15.39-.36.72-.63,1s-.58.5-.95.66-.77.24-1.21.24Zm.26-.59c.34,0,.64-.09.89-.27s.44-.43.59-.75c.14-.32.21-.71.21-1.14,0-.53-.08-.98-.22-1.35-.15-.38-.36-.67-.63-.87s-.58-.31-.95-.31c-.33,0-.62.09-.86.27s-.44.43-.57.75c-.14.32-.2.7-.2,1.14,0,.52.07.97.21,1.35s.35.67.61.88c.26.21.57.31.93.31h0Z"/>
    <path class="cls-2" d="m42.5,13.76c-.4-.63-.78-1.22-1.14-1.77-.37-.55-.69-1.03-.97-1.45-.28-.41-.59-.86-.92-1.33h-.06l-.04,3.38c0,.14.03.24.07.29.04.06.12.09.23.09h.43l.03.04-.08.48c-.14,0-.27-.01-.38-.02-.11,0-.22-.01-.34-.01h-.32c-.14,0-.28,0-.43.02-.15.01-.32.03-.53.05l.05-.5c.19-.02.32-.08.41-.16s.13-.22.14-.41l.12-3.77c0-.19-.05-.33-.16-.4-.1-.08-.31-.13-.61-.16l-.04-.06.06-.41c.2.01.38.02.51.03.14,0,.26.01.38.01h.33c.11,0,.23-.01.38-.03.28.43.55.84.81,1.25.26.4.51.78.75,1.13.23.35.44.66.63.92.18.26.38.54.58.83h.06v-3.23c0-.14-.03-.24-.08-.3-.05-.06-.12-.09-.23-.09h-.32l-.03-.05.07-.47c.14,0,.26.01.36.02.11,0,.21.01.32.01h.3c.13,0,.27,0,.42-.01.15,0,.33-.03.54-.05l-.04.5c-.2.02-.35.08-.45.17s-.14.22-.15.4l-.12,4.94-.56.12h.02Z"/>
    <path class="cls-2" d="m45.1,11.63l-.07-.09.05-.57,1.53-.18c.23-.02.44-.05.62-.08l.07.1-.06.58-2.14.23h0Z"/>
    <path class="cls-2" d="m49.33,13.5l.07-.48c.28-.02.48-.06.6-.11s.21-.15.24-.28c.04-.14.05-.35.05-.64v-3.78c-.31,0-.55.02-.72.04-.17.02-.3.07-.39.14s-.15.18-.19.34c-.04.15-.07.36-.1.63l-.57.04c.02-.19.04-.39.06-.59,0-.2.03-.41.04-.6,0-.2.02-.38.03-.53l.09-.08.81.1h2.8l.83-.1.09.08c0,.17,0,.35.02.55,0,.2.02.4.04.59.02.19.04.37.05.54l-.57.04c-.04-.28-.08-.49-.12-.65-.04-.16-.1-.27-.18-.35s-.2-.12-.37-.15c-.16-.02-.38-.04-.67-.05-.02.19-.04.45-.05.77-.02.32-.03.68-.04,1.07,0,.39-.02.78-.03,1.18s0,.78,0,1.12c0,.22.04.38.12.47.08.09.21.14.39.14.16,0,.32,0,.49-.03l.03.04-.08.5c-.14-.01-.3-.02-.48-.02h-1.33c-.16,0-.32,0-.49.02-.17,0-.33.02-.47.02v.02Z"/>
    <path class="cls-2" d="m56.69,13.48l.04-.43c.21-.02.36-.05.47-.07.11-.02.18-.05.22-.09s.06-.1.06-.18c0-.05,0-.1,0-.17,0-.06-.03-.13-.05-.2l-.25-.85h-.89c-.16,0-.33,0-.51.02-.18.01-.32.03-.42.04l-.29.83c-.05.14-.07.25-.07.31,0,.12.04.21.12.26s.2.08.37.08h.46l.03.05-.05.46c-.26-.02-.5-.03-.69-.04-.2,0-.39-.01-.59-.01h-.47c-.16,0-.35.01-.56.02l.07-.5c.16-.02.28-.08.38-.18.1-.09.19-.25.27-.48l1.69-4.58.94-.15.08.03c.08.29.16.57.23.82s.15.54.24.87c.09.32.19.66.29,1.02.1.35.21.71.31,1.06.11.35.21.68.3.98.07.22.17.37.28.46s.29.15.52.17l.03.04-.06.44c-.25-.01-.45-.02-.61-.02h-.42c-.23,0-.46,0-.68.02s-.46.04-.73.06l-.04-.06v-.03Zm-1.15-2.53h.73c.11,0,.24,0,.39-.01s.27-.02.37-.02l-.62-2.2h-.09l-.77,2.23h0Z"/>
    <path class="cls-2" d="m60.03,13.56l.05-.49c.28-.05.46-.13.55-.24s.14-.28.14-.54v-3.64c0-.19,0-.32-.06-.39s-.13-.1-.27-.1h-.17c-.07,0-.13,0-.18.01l-.03-.05.06-.45h1.15c.12,0,.29,0,.5-.02.21-.01.43-.03.65-.05l-.04.49c-.24.03-.4.08-.48.14-.08.07-.13.19-.14.36-.02.31-.03.64-.05.99,0,.35-.03.69-.04,1.04,0,.35-.02.67-.02.96v.75c0,.24.03.4.08.49s.15.13.29.13h.24c.08,0,.15-.01.2-.02l.03.04-.08.49c-.12,0-.26-.01-.41-.01h-.83c-.14,0-.31,0-.52.03-.21.02-.41.04-.61.07h-.01Z"/>
    <path class="cls-2" d="m63.88,13.05c.23-.04.39-.11.48-.22.09-.11.13-.29.13-.55v-3.63c0-.19-.02-.32-.06-.39-.04-.07-.13-.1-.26-.1-.05,0-.15,0-.29.02l-.04-.05.06-.45h1.1c.1,0,.22,0,.35-.01.13,0,.25-.02.38-.02.12,0,.27-.02.43-.04l-.05.5c-.2.02-.35.05-.43.1s-.13.13-.15.23c-.02.1-.04.24-.05.42-.02.35-.04.73-.06,1.14-.01.41-.03.81-.04,1.2,0,.39-.01.74-.01,1.06,0,.18.02.32.05.41s.1.15.19.18c.1.03.24.05.44.05.24,0,.44-.02.58-.05s.27-.1.36-.19c.09-.09.16-.23.22-.4s.11-.4.15-.68l.55-.05.04.06c-.06.35-.11.66-.14.94-.04.28-.07.58-.11.91l-.06.07c-.33-.02-.62-.03-.88-.04s-.53-.02-.81-.03-.54-.01-.77-.01-.46,0-.67.02-.43.04-.68.07l.05-.49v.02Z"/>
    <path class="cls-2" d="m71.03,13.53l.06-.5c.26-.05.43-.12.51-.22s.13-.27.13-.53v-3.63c0-.19-.01-.32-.05-.39s-.13-.1-.25-.1c-.05,0-.16,0-.31.02l-.04-.04.07-.46h1.36c.14,0,.27,0,.41-.01s.32-.01.51-.02c.36,0,.67.04.92.12s.46.19.63.34c.17.15.29.33.37.53s.12.43.12.67c0,.26-.06.51-.17.75s-.27.45-.47.64-.42.34-.67.45-.51.16-.79.16h-.77v.79c0,.25,0,.43.02.56s.06.21.12.25c.06.04.15.06.26.06.08,0,.23,0,.45-.03l.02.04-.08.49c-.14,0-.26-.01-.36-.01h-1.02c-.16,0-.31.01-.46.02s-.27.01-.37.02c-.1,0-.15.02-.16.02h0Zm2.49-2.73c.65-.12.97-.56.97-1.32,0-.43-.12-.74-.37-.94s-.63-.3-1.16-.3c-.1,0-.16,0-.18.02-.02.01-.03.05-.04.13-.02.37-.04.75-.06,1.14-.02.4-.03.78-.04,1.14l.89.13h0Z"/>
    <path class="cls-2" d="m79.03,13.48l.04-.43c.21-.02.36-.05.47-.07.11-.02.18-.05.22-.09s.06-.1.06-.18c0-.05,0-.1-.01-.17,0-.06-.03-.13-.05-.2l-.25-.85h-.89c-.16,0-.33,0-.51.02-.18.01-.32.03-.42.04l-.29.83c-.05.14-.07.25-.07.31,0,.12.04.21.12.26s.2.08.37.08h.46l.03.05-.05.46c-.26-.02-.5-.03-.69-.04-.2,0-.39-.01-.59-.01h-.47c-.16,0-.35.01-.56.02l.07-.5c.16-.02.28-.08.38-.18.1-.09.19-.25.27-.48l1.69-4.58.94-.15.08.03c.08.29.16.57.23.82s.15.54.24.87c.09.32.19.66.29,1.02.1.35.21.71.31,1.06.11.35.21.68.3.98.07.22.17.37.28.46s.29.15.52.17l.03.04-.06.44c-.25-.01-.45-.02-.61-.02h-.42c-.23,0-.46,0-.68.02s-.46.04-.73.06l-.04-.06v-.03Zm-1.15-2.53h.73c.11,0,.24,0,.39-.01s.27-.02.37-.02l-.62-2.2h-.09l-.77,2.23h-.01Z"/>
    <path class="cls-2" d="m83.92,13.57c-.3,0-.56-.03-.78-.08s-.46-.13-.71-.24l-.05-.1c.02-.17.04-.33.06-.47s.03-.31.04-.5c.02-.19.02-.39.02-.59l.55-.04c0,.38.03.68.09.89s.17.35.33.43.39.12.68.12c.33,0,.6-.08.81-.23.21-.16.31-.37.31-.63,0-.19-.07-.34-.2-.48-.13-.13-.3-.25-.5-.37-.2-.11-.42-.23-.65-.34-.24-.12-.47-.25-.69-.4-.22-.14-.4-.31-.54-.5s-.21-.42-.21-.69c0-.34.1-.63.29-.89s.45-.46.79-.61c.33-.15.71-.22,1.14-.22.28,0,.53.02.75.05.22.04.45.1.7.18l.04.08c-.05.28-.1.53-.12.77-.03.23-.06.49-.08.76l-.49.04-.07-.05c.02-.15.03-.29.03-.41,0-.29-.07-.5-.22-.62s-.4-.18-.77-.18c-.29,0-.54.07-.73.22-.19.15-.29.33-.29.55,0,.17.06.32.17.45s.26.25.45.36c.18.11.38.21.59.31.26.13.51.26.77.41.25.15.46.32.62.52.17.2.25.44.25.72,0,.35-.1.67-.29.93s-.47.48-.82.62c-.35.15-.76.23-1.23.23h-.04Z"/>
    <path class="cls-2" d="m89.17,13.57c-.3,0-.56-.03-.78-.08s-.46-.13-.71-.24l-.05-.1c.02-.17.04-.33.06-.47s.03-.31.04-.5.02-.39.02-.59l.55-.04c0,.38.03.68.09.89s.17.35.33.43.39.12.68.12c.33,0,.6-.08.81-.23.21-.16.31-.37.31-.63,0-.19-.07-.34-.2-.48s-.3-.25-.5-.37c-.2-.11-.42-.23-.65-.34-.24-.12-.47-.25-.69-.4-.22-.14-.4-.31-.54-.5s-.21-.42-.21-.69c0-.34.1-.63.29-.89s.46-.46.79-.61.71-.22,1.14-.22c.28,0,.53.02.75.05s.45.1.7.18l.04.08c-.05.28-.1.53-.13.77-.03.23-.06.49-.08.76l-.49.04-.07-.05c.02-.15.03-.29.03-.41,0-.29-.07-.5-.22-.62s-.4-.18-.77-.18c-.29,0-.54.07-.73.22-.19.15-.29.33-.29.55,0,.17.06.32.17.45s.26.25.45.36c.18.11.38.21.59.31.26.13.51.26.76.41s.46.32.62.52c.17.2.25.44.25.72,0,.35-.1.67-.29.93-.19.27-.47.48-.82.62-.35.15-.76.23-1.23.23h-.02Z"/>
    <path class="cls-2" d="m98.38,14.39l-2.22-.12c.01-.44.03-.83.04-1.17.02-.34.03-.71.04-1.1s.02-.76.03-1.12c0-.36.01-.65.01-.87s0-.52-.01-.87c0-.36-.02-.73-.03-1.13s-.02-.77-.04-1.12c-.02-.35-.03-.74-.04-1.18l2.24-.12.05.08-.07.48-1.25.25v7.2l1.27.25.05.09-.07.46h0Z"/>
    <path class="cls-2" d="m100.26,14.03c-.29,0-.49-.07-.61-.22-.12-.15-.18-.4-.2-.75l.09-.1c.31.08.62.12.94.12.35,0,.66-.06.94-.18s.5-.28.66-.48.24-.43.24-.67c0-.36-.15-.62-.45-.78-.3-.17-.77-.25-1.42-.26l-.08-.08-.07-.53.74-.17c.29-.13.52-.31.69-.53s.26-.46.26-.69-.08-.39-.23-.52-.34-.19-.58-.19c-.2,0-.41.05-.65.15-.23.1-.44.24-.62.41h-.13l-.16-.62s.11-.09.24-.18.29-.18.48-.28c.19-.1.39-.18.61-.26s.43-.11.63-.11c.47,0,.84.12,1.13.35s.42.55.42.94c0,.31-.11.61-.34.89-.23.28-.53.52-.91.7v.07c.51.13.9.31,1.16.56.26.24.39.54.39.88,0,.3-.09.6-.28.9-.19.3-.44.57-.75.82s-.66.44-1.04.59-.76.22-1.15.22h.05Z"/>
    <path class="cls-2" d="m105.57,14.03l-.1-.06-.16-.46c.96-.42,1.7-.96,2.21-1.64s.77-1.45.77-2.31c0-.54-.11-.96-.32-1.27-.22-.31-.51-.46-.89-.46-.34,0-.6.11-.79.33-.18.22-.28.53-.28.92,0,.26.05.49.16.69s.25.37.44.49.39.18.62.18c.18,0,.38-.04.61-.14s.42-.21.58-.35l-.23.9-.16-.11c-.26.15-.49.27-.69.36s-.35.14-.46.15c-.37,0-.7-.08-.99-.24s-.52-.39-.69-.67c-.17-.29-.25-.61-.25-.96,0-.44.1-.82.3-1.16.2-.33.48-.59.83-.79.36-.19.76-.29,1.21-.29.42,0,.78.1,1.1.3s.57.48.74.84c.18.36.27.78.27,1.26s-.09.98-.27,1.43c-.18.46-.43.88-.77,1.28-.33.39-.74.74-1.21,1.05s-1,.56-1.59.75v-.02Z"/>
    <path class="cls-2" d="m110.65,14.39l-.05-.08.08-.48,1.24-.25v-7.2l-1.27-.25-.05-.09.07-.46,2.23.12c-.02.44-.03.83-.04,1.17s-.03.71-.04,1.1-.03.76-.03,1.12-.01.65-.01.87,0,.52.01.87.02.73.03,1.12c.01.39.02.76.04,1.12.01.35.03.75.04,1.18l-2.26.12v.02Z"/>
  </g>
</svg>