<?xml version="1.0" encoding="UTF-8"?>
<svg id="_图层_2" data-name=" 图层 2" xmlns="http://www.w3.org/2000/svg" viewBox="0 0 119.77 20.55">
  <defs>
    <style>
      .cls-1 {
        fill: #fff;
        stroke: #000;
        stroke-miterlimit: 10;
        stroke-width: .71px;
      }

      .cls-2 {
        fill: #231815;
        stroke-width: 0px;
      }
    </style>
  </defs>
  <rect class="cls-1" x=".35" y=".35" width="119.06" height="19.84"/>
  <g>
    <path class="cls-2" d="m15.62,13.48l.05-.54c.26-.03.45-.06.59-.08.14-.03.23-.07.28-.12s.08-.13.08-.23c0-.06,0-.13-.02-.21-.01-.08-.03-.16-.06-.26l-.32-1.08c-.14,0-.32-.01-.55-.01h-.56c-.2,0-.42,0-.64.03-.22.02-.4.04-.53.05l-.36,1.04c-.06.18-.09.31-.09.4,0,.15.05.26.15.32.1.06.25.1.46.1h.58l.03.06-.07.58c-.33-.02-.62-.04-.87-.05s-.5-.02-.74-.02h-.6c-.2,0-.44.01-.71.03l.09-.62c.2-.03.35-.1.48-.22s.23-.32.34-.61l2.13-5.77,1.18-.19.1.03c.11.37.2.72.29,1.04s.19.69.3,1.09.23.83.36,1.28c.13.45.26.89.39,1.33s.26.85.38,1.23c.09.27.21.46.35.58.14.11.36.18.66.21l.03.06-.08.56c-.31-.02-.56-.02-.76-.03h-.53c-.29,0-.58,0-.86.03-.28.02-.58.04-.92.07l-.05-.08h.02Zm-1.45-3.19h.92c.14,0,.3,0,.49-.02.19-.01.34-.02.46-.03l-.78-2.77h-.11l-.98,2.81h0Z"/>
    <path class="cls-2" d="m19.89,13.55l.08-.62c.33-.06.54-.15.65-.27.11-.12.16-.34.16-.67v-4.57c.01-.24-.01-.4-.07-.49-.05-.08-.16-.12-.32-.12-.07,0-.2,0-.38.02l-.05-.06.09-.58h.29c.16,0,.33,0,.52.01h.9c.17,0,.34,0,.52-.02.18,0,.4-.02.65-.02.45,0,.84.05,1.16.15s.59.24.79.43c.21.19.36.41.46.67.1.26.15.54.15.84,0,.33-.07.65-.21.95s-.34.57-.59.8-.53.43-.84.56-.64.2-.99.2h-.96v1c-.01.31,0,.54.02.7s.07.26.15.31.19.07.33.07c.11,0,.29-.01.57-.03l.02.06-.1.61c-.17,0-.33-.01-.45-.02-.13,0-.26,0-.4-.01h-.35c-.15,0-.33,0-.53.01-.2,0-.4.01-.58.02-.19,0-.35.02-.47.03s-.19.02-.2.03h-.02Zm3.14-3.44c.82-.15,1.22-.71,1.22-1.67,0-.54-.16-.93-.46-1.18-.31-.25-.8-.37-1.46-.37-.13,0-.21,0-.23.02-.03.02-.04.07-.05.16-.03.46-.06.94-.08,1.44s-.04.98-.06,1.44c0,0,1.12.16,1.12.16Z"/>
    <path class="cls-2" d="m29.97,13.48l.05-.54c.26-.03.45-.06.59-.08.14-.03.23-.07.28-.12s.08-.13.08-.23c0-.06,0-.13-.02-.21-.01-.08-.03-.16-.06-.26l-.32-1.08c-.14,0-.32-.01-.55-.01h-.56c-.2,0-.42,0-.64.03-.22.02-.4.04-.53.05l-.36,1.04c-.06.18-.09.31-.09.4,0,.15.05.26.15.32.1.06.25.1.46.1h.58l.03.06-.07.58c-.33-.02-.62-.04-.87-.05s-.5-.02-.74-.02h-.6c-.2,0-.44.01-.71.03l.09-.62c.2-.03.35-.1.48-.22s.23-.32.34-.61l2.13-5.77,1.18-.19.1.03c.11.37.2.72.29,1.04s.19.69.3,1.09.23.83.36,1.28c.13.45.26.89.39,1.33s.26.85.38,1.23c.09.27.21.46.35.58.14.11.36.18.66.21l.03.06-.08.56c-.31-.02-.56-.02-.76-.03h-.53c-.29,0-.58,0-.86.03-.28.02-.58.04-.92.07l-.05-.08h.02Zm-1.45-3.19h.92c.14,0,.3,0,.49-.02.19-.01.34-.02.46-.03l-.78-2.77h-.11l-.98,2.81h0Z"/>
    <path class="cls-2" d="m39.45,13.64c-.21,0-.42-.09-.64-.28-.21-.19-.41-.45-.59-.78l-1.1-2.11h-.88l-.02,1.51c0,.26.02.46.05.59s.11.21.23.25.3.06.54.07l.02.04-.1.58c-.18,0-.34-.01-.48-.02-.14,0-.28,0-.43-.01h-1.07c-.22,0-.49.02-.8.04l.1-.62c.34-.04.57-.12.67-.24s.16-.34.16-.67v-4.59c0-.23,0-.38-.07-.46-.05-.08-.16-.12-.32-.12-.07,0-.2,0-.38.02l-.05-.06.09-.59c.19,0,.36.01.5.02s.29,0,.44.01.28,0,.39,0h.41c.17,0,.34,0,.52-.02.17,0,.38-.02.61-.02.77,0,1.37.16,1.8.48s.65.78.65,1.37c0,.45-.14.86-.41,1.24-.28.38-.67.69-1.19.93l1.13,1.81c.22.35.43.6.63.75s.44.23.72.23l.06.07-.08.48-1.12.12v-.02Zm-2.08-3.86s.09-.05.21-.1.25-.14.38-.25.26-.27.36-.46c.1-.2.15-.45.15-.75,0-.46-.16-.81-.47-1.04-.31-.23-.79-.35-1.43-.35-.08,0-.13.02-.15.05-.03.03-.04.1-.05.21-.03.54-.05,1.01-.07,1.41-.02.4-.03.79-.04,1.17l1.11.11Z"/>
    <path class="cls-2" d="m42.62,13.51l.09-.6c.35-.03.6-.08.76-.14s.26-.18.31-.36c.04-.17.07-.44.07-.8v-4.76c-.38,0-.69.03-.91.06-.22.03-.38.09-.49.18s-.19.23-.24.42c-.05.19-.09.46-.13.79l-.71.06c.03-.24.05-.49.07-.75s.04-.51.05-.76c.02-.25.03-.47.03-.67l.11-.1,1.02.12h3.53l1.04-.12.11.1c0,.21.02.44.03.7,0,.25.03.5.05.75s.04.47.07.67l-.71.06c-.05-.35-.09-.62-.15-.82s-.13-.34-.23-.44c-.1-.09-.25-.16-.46-.19-.2-.03-.48-.05-.84-.07-.02.24-.04.57-.06.98s-.03.86-.05,1.34c0,.49-.02.98-.03,1.49s-.02.98-.02,1.42c0,.28.05.48.15.59.1.12.26.18.49.18.2,0,.41-.01.61-.03l.03.06-.1.63c-.17-.01-.38-.02-.61-.03-.23,0-.45,0-.66-.01s-.39,0-.52,0h-.49c-.2,0-.4.01-.62.02-.22.01-.41.02-.6.03h.01Z"/>
    <path class="cls-2" d="m52.52,13.66c-.23-.71-.47-1.4-.7-2.07s-.46-1.31-.67-1.93c-.22-.62-.42-1.2-.61-1.75h-.08s0,.16-.02.38-.04.5-.06.83-.05.68-.08,1.05-.06.72-.08,1.06c-.03.34-.05.62-.06.85,0,.23-.02.37-.02.42,0,.23.12.35.36.35h.43l.03.06-.11.6s-.12,0-.27-.01c-.15,0-.31-.02-.49-.02-.17,0-.32-.01-.44-.01-.11,0-.22,0-.33.01-.12,0-.23.02-.34.03-.11.02-.23.03-.37.05l.07-.62c.23-.02.4-.09.5-.21s.17-.33.2-.63c0-.11.04-.29.07-.55s.06-.56.1-.91c.03-.34.07-.69.1-1.05s.07-.7.1-1.02c.03-.32.06-.6.08-.82.02-.22.03-.35.03-.4,0-.14-.03-.24-.09-.32-.06-.08-.16-.14-.29-.19-.13-.04-.31-.08-.54-.09l-.04-.07.09-.51c.06,0,.17,0,.34.01s.34.02.53.03c.18.01.33.02.45.02s.25,0,.39-.01c.14,0,.26-.01.37-.02.11,0,.18-.01.22-.01.21.71.42,1.37.61,1.98.2.61.37,1.15.53,1.61s.29.84.38,1.12c.1.28.16.46.17.52h.07c.02-.05.07-.22.18-.51.1-.29.23-.66.4-1.13.16-.46.35-1,.55-1.6s.42-1.26.65-1.96c.04,0,.13,0,.25.01.12,0,.25.01.39.01h.37c.12,0,.27,0,.46-.02.19-.01.35-.02.49-.04.14-.01.23-.02.25-.02l.03.05-.07.53c-.33.03-.55.09-.68.18s-.19.23-.19.43c0,.08,0,.24.02.48,0,.23.03.52.05.84.02.33.05.68.07,1.05s.05.74.08,1.1.05.7.07,1c.04.42.1.7.18.84.07.14.19.21.37.21.07,0,.14,0,.2-.01.07,0,.11-.01.11-.01l.03.06-.1.6s-.09,0-.21-.01c-.13,0-.28-.01-.44-.02s-.31,0-.44,0-.27,0-.42.01c-.15,0-.3.02-.45.03-.15.02-.27.03-.36.04-.09,0-.15.01-.15.01l.07-.62c.23-.03.39-.09.49-.18.1-.09.15-.22.15-.39,0-.06,0-.2-.02-.43-.02-.22-.03-.49-.06-.8-.02-.31-.05-.64-.07-.99s-.05-.68-.07-.99c-.02-.31-.04-.58-.06-.8s-.03-.37-.03-.43h-.08c-.14.4-.29.82-.45,1.27-.16.45-.33.91-.5,1.39s-.35.98-.52,1.47c-.17.5-.35,1.01-.52,1.52l-.5.09-.05-.02Z"/>
    <path class="cls-2" d="m58.85,13.57l.07-.62c.33-.05.56-.14.68-.27.12-.14.18-.37.18-.69v-4.57c0-.24,0-.4-.06-.49-.05-.08-.16-.12-.32-.12h-.17c-.07,0-.14,0-.2.02l-.04-.07.09-.58c.15,0,.33,0,.54.01s.42.01.65.02.42,0,.61,0c.58,0,1.08,0,1.5-.01.42,0,.78-.02,1.09-.05.31-.02.59-.05.83-.08l.06.09c-.04.19-.08.4-.11.63-.04.23-.07.46-.09.69s-.04.44-.06.64l-.76.06c0-.07,0-.15.02-.25v-.23c0-.17-.02-.31-.04-.41-.03-.1-.1-.18-.2-.23-.11-.05-.27-.08-.48-.1s-.5-.03-.87-.03c-.22,0-.38,0-.48.02-.1.01-.16.05-.19.11s-.04.16-.05.28l-.11,2.56-.03,2.19c0,.2.02.34.05.44s.11.16.22.19.29.05.54.05c.41,0,.74-.01.99-.05.25-.03.44-.09.57-.18s.23-.23.29-.41.12-.42.15-.71l.7-.07.06.08c-.06.26-.12.57-.17.95-.06.38-.1.73-.14,1.04l-.08.09c-.43-.02-.87-.03-1.32-.04s-.86-.02-1.24-.03c-.38,0-.68-.01-.92-.01-.26,0-.55,0-.88.03-.33.02-.62.05-.87.08v.03Zm1.92-3.37l.09-.84h1.19c.13,0,.33-.01.59-.03.26-.02.52-.05.77-.08l.06.08-.16.8c-.2,0-.46-.02-.76-.02s-.56-.01-.77-.01c-.16,0-.33,0-.52.03-.19.02-.36.04-.5.06h0Z"/>
    <path class="cls-2" d="m71.82,13.84c-.5-.79-.98-1.54-1.44-2.23s-.87-1.3-1.22-1.82-.74-1.08-1.16-1.68h-.08l-.05,4.26c0,.17.04.3.09.37.05.07.15.11.28.11h.55l.03.06-.1.6c-.18,0-.34-.01-.48-.02-.14,0-.28-.01-.43-.02s-.29,0-.41,0c-.17,0-.35,0-.54.02-.19.01-.41.04-.66.07l.07-.62c.23-.03.41-.1.52-.2.11-.11.17-.28.18-.51l.15-4.75c0-.24-.07-.41-.2-.5-.13-.1-.39-.16-.77-.2l-.04-.08.08-.52c.26.02.47.03.65.04.17.01.33.02.48.02s.28,0,.42-.01c.14,0,.29-.02.48-.03.35.54.69,1.06,1.02,1.57.33.51.65.99.94,1.43.29.44.56.83.79,1.16s.47.68.73,1.05h.08v-4.07c-.01-.17-.04-.3-.1-.38s-.16-.11-.28-.11h-.41l-.03-.07.09-.59c.17,0,.33.02.46.02s.27.01.41.02.27,0,.38,0c.17,0,.34,0,.53-.02.19-.01.42-.03.68-.06l-.06.62c-.26.03-.44.1-.56.21-.12.11-.18.28-.19.5l-.16,6.22-.7.15h-.02Z"/>
    <path class="cls-2" d="m75.68,13.51l.09-.6c.35-.03.6-.08.76-.14s.26-.18.31-.36c.04-.17.07-.44.07-.8v-4.76c-.38,0-.69.03-.91.06-.22.03-.38.09-.49.18s-.19.23-.24.42c-.05.19-.09.46-.13.79l-.71.06c.03-.24.05-.49.07-.75s.04-.51.05-.76c.02-.25.03-.47.03-.67l.11-.1,1.02.12h3.53l1.04-.12.11.1c0,.21.02.44.03.7.01.25.03.5.05.75.02.25.04.47.07.67l-.71.06c-.05-.35-.09-.62-.15-.82s-.13-.34-.23-.44c-.1-.09-.25-.16-.46-.19-.2-.03-.48-.05-.84-.07-.02.24-.04.57-.06.98s-.03.86-.05,1.34c-.01.49-.02.98-.03,1.49s-.02.98-.02,1.42c0,.28.05.48.15.59.1.12.26.18.49.18.2,0,.41-.01.61-.03l.03.06-.1.63c-.17-.01-.38-.02-.61-.03-.23,0-.45,0-.66-.01s-.39,0-.52,0h-.49c-.2,0-.4.01-.62.02s-.41.02-.6.03h0Z"/>
    <path class="cls-2" d="m87.15,14.39l-2.22-.12c.01-.44.03-.83.04-1.17.02-.34.03-.71.04-1.1s.02-.76.03-1.12c0-.36.01-.65.01-.87s0-.52-.01-.87c0-.36-.02-.73-.03-1.13s-.02-.77-.04-1.12c-.01-.35-.03-.74-.04-1.18l2.25-.12.04.08-.07.48-1.25.25v7.2l1.27.25.04.09-.07.46h.01Z"/>
    <path class="cls-2" d="m88.55,12.38c.27-.02.48-.07.63-.14.15-.07.25-.19.31-.35s.08-.39.08-.69v-2.53c0-.28-.05-.46-.15-.53-.1-.08-.25-.11-.45-.11-.11,0-.31.02-.59.07l-.05-.06.06-.54s.12-.02.26-.03c.14-.01.3-.04.48-.06s.37-.05.55-.07c.38-.06.66-.11.84-.14.19-.03.34-.06.47-.08l.09.25c-.14.11-.23.23-.29.36s-.1.32-.12.57c-.02.36-.04.73-.06,1.13-.01.4-.02.78-.03,1.14v.94c0,.29.04.49.11.6.08.11.22.16.42.16.14,0,.33-.01.58-.03l.02.06-.11.62c-.21-.02-.4-.03-.56-.03s-.33,0-.52-.01h-.48c-.16,0-.33,0-.51.02s-.35.03-.51.05c-.16.01-.34.04-.56.07l.08-.61v-.03Z"/>
    <path class="cls-2" d="m95.33,12.99c-.49,0-.92-.12-1.28-.35-.36-.23-.64-.56-.84-.98s-.3-.92-.3-1.48c0-.6.12-1.13.35-1.59.23-.46.55-.83.96-1.09.41-.26.89-.39,1.42-.39.48,0,.91.11,1.27.34.36.23.64.55.84.96s.3.9.3,1.46c0,.6-.12,1.14-.35,1.62-.23.47-.56.84-.96,1.11-.41.27-.88.4-1.41.4h0Zm.19-1.13c.54,0,.97-.16,1.29-.46.32-.31.48-.72.48-1.22,0-.38-.08-.71-.24-.99-.16-.28-.38-.5-.66-.66-.28-.16-.61-.24-1-.24-.53,0-.95.16-1.26.47-.31.31-.47.74-.47,1.26,0,.36.08.68.23.96.16.28.37.5.65.65s.6.23.97.23h0Z"/>
    <path class="cls-2" d="m100.92,14.03l-.83-.25-.11-.26,2.71-5.33-1.78.09c-.25,0-.44.04-.57.1s-.22.16-.28.31-.12.35-.17.62l-.54.07c.03-.26.06-.5.08-.71.03-.21.05-.44.07-.69s.04-.49.06-.71l.07-.06c.26.02.5.03.71.03s.43.01.67.01h2.43l.33.42c-.3.62-.57,1.19-.82,1.71-.24.52-.46.99-.65,1.42s-.37.82-.52,1.17c-.15.35-.29.67-.42.96l-.31,1.11h-.14,0Z"/>
    <path class="cls-2" d="m104.62,14.39l-.05-.08.08-.48,1.24-.25v-7.2l-1.27-.25-.05-.09.07-.46,2.23.12c-.01.44-.03.83-.04,1.17s-.02.71-.04,1.1c-.01.39-.03.76-.03,1.12s-.01.65-.01.87,0,.52.01.87c0,.35.02.73.03,1.12.01.39.02.77.04,1.12.01.35.03.75.04,1.18l-2.26.12v.02Z"/>
  </g>
</svg>