<?xml version="1.0" encoding="UTF-8"?>
<svg id="_图层_2" data-name=" 图层 2" xmlns="http://www.w3.org/2000/svg" viewBox="0 0 119.77 20.55">
  <defs>
    <style>
      .cls-1 {
        fill: #fff;
        stroke: #000;
        stroke-miterlimit: 10;
        stroke-width: .71px;
      }

      .cls-2 {
        fill: #231815;
        stroke-width: 0px;
      }
    </style>
  </defs>
  <rect class="cls-1" x=".35" y=".35" width="119.06" height="19.84"/>
  <g>
    <path class="cls-2" d="m5.87,13.59c-.23-.03-.43-.05-.6-.07s-.36-.03-.55-.04c-.19-.02-.37-.02-.52-.02-.19,0-.39.01-.6.04-.21.02-.46.05-.76.09l.07-.62c.34-.07.57-.17.68-.3.11-.13.17-.36.17-.67v-4.56c0-.24,0-.4-.06-.49-.05-.08-.15-.12-.31-.12-.08,0-.2,0-.39.02l-.05-.07.09-.59c.18,0,.34.01.48.02.14,0,.28,0,.43.01s.27,0,.38,0h.49c.2,0,.39,0,.58-.02.19,0,.42-.02.69-.02.75,0,1.41.14,1.96.41.55.28.98.67,1.29,1.18s.46,1.11.46,1.8c0,.58-.1,1.12-.29,1.61-.2.49-.47.91-.83,1.28s-.77.65-1.25.85c-.48.2-1,.3-1.57.3v-.02Zm-.48-6.69c-.14,0-.24.01-.29.04-.05.03-.08.1-.08.21-.05,1.15-.08,2.14-.11,2.96s-.04,1.42-.04,1.78c0,.24.03.43.1.57s.19.23.37.29.43.09.75.09c.75,0,1.33-.26,1.74-.78.41-.52.62-1.25.62-2.21,0-.66-.11-1.21-.34-1.64-.23-.44-.57-.77-1.02-.99-.45-.22-1.02-.33-1.69-.33h0Z"/>
    <path class="cls-2" d="m14.35,13.59c-.64,0-1.2-.15-1.68-.44-.48-.29-.85-.7-1.11-1.24-.26-.53-.4-1.15-.4-1.86,0-.58.09-1.1.27-1.59.18-.48.44-.91.78-1.26.34-.36.73-.64,1.18-.83.45-.2.95-.29,1.49-.29.67,0,1.24.15,1.72.44s.86.7,1.13,1.22c.27.53.4,1.14.4,1.85,0,.58-.09,1.12-.28,1.6-.19.49-.45.91-.79,1.26s-.73.63-1.2.83c-.46.2-.97.3-1.52.3h.01Zm.33-.75c.43,0,.8-.11,1.12-.33.31-.22.56-.54.74-.95s.27-.89.27-1.44c0-.67-.09-1.23-.28-1.71-.19-.47-.45-.84-.79-1.09-.34-.26-.73-.39-1.2-.39-.42,0-.78.11-1.09.33s-.55.54-.72.94-.26.88-.26,1.44c0,.66.09,1.22.27,1.7s.44.84.77,1.11c.33.26.72.39,1.17.39Z"/>
    <path class="cls-2" d="m25.33,13.84c-.5-.79-.98-1.54-1.44-2.23s-.87-1.3-1.22-1.82-.74-1.08-1.16-1.68h-.08l-.05,4.26c0,.17.04.3.09.37s.15.11.28.11h.55l.03.06-.1.6c-.18,0-.34-.01-.48-.02-.14,0-.28-.01-.43-.02s-.29,0-.41,0c-.17,0-.35,0-.54.02-.19.01-.41.04-.66.07l.07-.62c.23-.03.41-.1.52-.2s.17-.28.18-.51l.15-4.75c0-.24-.07-.41-.2-.5-.13-.09-.39-.16-.77-.2l-.04-.08.08-.52c.26.02.47.03.65.04s.33.02.48.02.28,0,.42-.01c.14,0,.29-.02.48-.03.35.54.69,1.06,1.02,1.57s.65.99.94,1.43c.29.44.56.83.79,1.16.23.33.47.68.73,1.05h.08v-4.07c-.01-.17-.04-.3-.1-.38-.06-.07-.16-.11-.28-.11h-.41l-.03-.07.09-.59c.17,0,.33.01.46.02s.27.01.41.02.27,0,.38,0c.17,0,.34,0,.53-.02.19-.01.42-.03.68-.06l-.06.62c-.26.03-.44.1-.56.22-.12.11-.18.28-.19.5l-.16,6.22-.7.15-.02-.02Z"/>
    <path class="cls-2" d="m31.6,13.59c-.69,0-1.28-.14-1.78-.43s-.88-.7-1.16-1.22c-.27-.53-.41-1.16-.41-1.88,0-.81.16-1.51.49-2.1s.79-1.05,1.39-1.38c.6-.33,1.31-.49,2.12-.49.24,0,.49.01.75.04.26.03.5.06.72.1s.47.08.75.13l.06.1c-.08.36-.14.68-.19.98-.05.3-.08.63-.11.99l-.78.06c.02-.25.03-.45.03-.61,0-.34-.12-.58-.35-.72-.23-.14-.62-.22-1.14-.22s-.96.1-1.33.31c-.36.21-.64.52-.82.93-.18.41-.28.92-.28,1.51,0,.65.09,1.21.28,1.68s.45.83.79,1.08.74.37,1.21.37c.27,0,.51-.03.71-.09s.42-.16.65-.28v-1.24c0-.24-.04-.4-.11-.48s-.22-.11-.46-.11h-.7l-.03-.07.1-.67s.15,0,.3.01c.15,0,.34.01.55.02h.65c.17,0,.34,0,.5-.01.16,0,.34-.02.54-.04l.07.34c-.11.08-.2.18-.25.31s-.1.31-.12.54-.03.55-.03.95c0,.2,0,.4.02.57.02.18.03.32.06.42l-.08.11c-.45.17-.88.29-1.28.37-.4.08-.85.12-1.36.12h.03Z"/>
    <path class="cls-2" d="m38.41,13.59c-.38,0-.71-.03-.99-.1s-.58-.17-.9-.31l-.07-.12c.03-.22.05-.42.07-.6s.04-.38.06-.62.03-.49.03-.74l.69-.06c0,.48.04.86.11,1.12s.21.44.41.54.49.15.86.15c.42,0,.75-.1,1.02-.29.26-.2.39-.46.39-.79,0-.23-.08-.43-.25-.6s-.38-.32-.64-.46-.53-.29-.82-.43c-.3-.15-.59-.32-.87-.5s-.51-.39-.69-.64c-.18-.24-.27-.53-.27-.87,0-.42.12-.8.36-1.12.24-.33.57-.58.99-.77.42-.19.9-.28,1.43-.28.36,0,.67.02.94.07.27.04.57.12.88.23l.04.1c-.07.35-.12.67-.16.96-.04.29-.07.62-.1.96l-.61.06-.09-.07c.02-.19.03-.36.03-.51,0-.37-.09-.63-.28-.78-.19-.15-.51-.22-.97-.22-.37,0-.68.09-.92.28-.24.18-.36.42-.36.7,0,.21.07.4.22.56.14.16.33.31.56.45.23.14.48.27.74.4.32.16.65.33.96.52.32.19.58.41.79.65.21.25.31.55.31.91,0,.45-.12.84-.37,1.17-.25.34-.59.6-1.03.79s-.96.28-1.55.28l.05-.02Z"/>
    <path class="cls-2" d="m43.1,13.58l.08-.61c.34-.07.57-.17.68-.3s.17-.36.17-.68v-4.58c0-.24,0-.4-.07-.49-.05-.08-.17-.12-.34-.12h-.18c-.07,0-.13,0-.19.02l-.05-.07.09-.57c.18,0,.4,0,.66.01s.47.01.63.01.36,0,.62-.03c.26-.02.53-.04.81-.06l-.05.61c-.2.03-.36.07-.45.12-.1.05-.16.14-.2.26-.04.12-.06.3-.07.54l-.07,1.75h1.71c.24.01.47,0,.7,0,.22-.01.5-.04.83-.07v-1.92c0-.24,0-.4-.07-.49-.05-.08-.17-.12-.34-.12h-.18c-.07,0-.13,0-.18.02l-.05-.07.08-.57h.29c.15,0,.32,0,.51.01s.34,0,.46,0c.16,0,.38,0,.65-.03.28-.02.56-.04.84-.06l-.06.61c-.28.04-.46.1-.56.18s-.14.23-.16.45c-.02.39-.04.81-.06,1.25s-.03.88-.05,1.32c0,.43-.02.84-.03,1.21,0,.37,0,.69,0,.95,0,.3.03.5.1.61.07.1.2.15.39.15.08,0,.16,0,.25-.01s.16-.02.22-.02l.04.06-.1.61c-.2,0-.46-.02-.75-.02s-.55-.01-.75-.01h-.93c-.18,0-.35,0-.5.01l.1-.61c.23,0,.4-.04.52-.1s.2-.17.25-.33c.04-.16.07-.39.07-.7v-1.6h-1.51c-.07,0-.2,0-.39.01-.19,0-.4.02-.65.04-.24.02-.48.04-.73.06l-.03,1.85c0,.3.03.51.1.61.06.11.19.16.37.16.08,0,.17,0,.25-.01.09,0,.16-.02.22-.02l.03.06-.1.61s-.13-.01-.27-.02-.3,0-.46-.01h-.41c-.2,0-.43,0-.69.02-.25.01-.48.03-.68.04-.2.02-.33.04-.39.06l.04.02Z"/>
    <path class="cls-2" d="m55.37,13.48l.04-.54c.26-.03.45-.06.59-.08.14-.03.23-.07.28-.12s.08-.13.08-.23c0-.06,0-.13-.02-.21,0-.08-.03-.16-.06-.25l-.32-1.08c-.14,0-.32-.01-.55-.01h-.56c-.2,0-.42,0-.64.03-.22.02-.4.04-.53.05l-.36,1.04c-.06.18-.09.31-.09.4,0,.15.05.26.15.32.1.06.25.1.46.1h.58l.03.06-.07.58c-.33-.02-.62-.04-.87-.05s-.5-.02-.74-.02h-.6c-.2,0-.44.01-.71.03l.09-.62c.2-.03.36-.1.48-.22s.23-.32.34-.61l2.13-5.77,1.18-.19.1.03c.11.37.2.72.29,1.04s.19.69.3,1.09.23.83.36,1.28.26.89.39,1.33.26.85.38,1.23c.09.27.21.46.35.58s.36.19.66.21l.03.06-.08.56c-.31-.02-.57-.03-.77-.03h-.53c-.29,0-.58,0-.86.03-.28.02-.58.04-.92.07l-.04-.08h.03Zm-1.45-3.19h.92c.14,0,.3,0,.49-.02.19-.01.34-.02.46-.03l-.78-2.77h-.11l-.97,2.81h0Z"/>
    <path class="cls-2" d="m65.26,13.84c-.5-.79-.98-1.54-1.44-2.23s-.87-1.3-1.22-1.82-.74-1.08-1.16-1.68h-.08l-.05,4.26c0,.17.04.3.09.37s.15.11.28.11h.55l.03.06-.1.6c-.18,0-.34-.01-.48-.02-.14,0-.28-.01-.43-.02s-.29,0-.41,0c-.17,0-.35,0-.54.02-.19.01-.41.04-.66.07l.07-.62c.23-.03.41-.1.52-.2s.17-.28.18-.51l.15-4.75c0-.24-.07-.41-.2-.5s-.39-.16-.77-.2l-.04-.08.08-.52c.26.02.47.03.65.04s.33.02.48.02.28,0,.42-.01c.14,0,.29-.02.48-.03.35.54.69,1.06,1.02,1.57s.65.99.94,1.43c.29.44.56.83.79,1.16s.47.68.73,1.05h.08v-4.07c-.01-.17-.04-.3-.1-.38-.06-.07-.16-.11-.28-.11h-.41l-.03-.07.09-.59c.17,0,.33.01.46.02s.27.01.41.02.27,0,.38,0c.17,0,.34,0,.53-.02.19-.01.42-.03.68-.06l-.06.62c-.26.03-.44.1-.56.22-.12.11-.18.28-.19.5l-.16,6.22-.7.15-.02-.02Z"/>
    <path class="cls-2" d="m69.29,7.41c0-.24-.03-.4-.08-.49-.05-.08-.17-.12-.34-.12-.07,0-.19,0-.36.02l-.05-.07.09-.58c.2,0,.38.01.54.02.15,0,.31,0,.46.01s.28,0,.37,0c.12,0,.26,0,.41-.02.15-.01.3-.02.45-.03.14,0,.31-.02.5-.05l-.04.61c-.28.05-.47.12-.57.21s-.16.24-.17.45l-.12,4.68c0,.3.02.51.09.61.07.11.19.16.38.16.12,0,.28-.01.49-.03l.03.06-.1.61c-.21,0-.4-.01-.56-.02-.16,0-.33,0-.49-.01s-.31,0-.44,0h-.94c-.14,0-.31,0-.49.02l.11-.6c.35-.04.57-.12.67-.23s.15-.33.15-.65v-4.58.02Zm1.39,2.27l1.87-1.98c.22-.22.33-.41.33-.58,0-.1-.05-.18-.16-.23s-.28-.09-.5-.11l-.03-.06.09-.58c.18.01.35.03.49.03.15,0,.29.02.44.02s.28.01.39.01h.36c.13,0,.26,0,.38-.02.12,0,.26-.02.41-.02l.06.09-.08.54c-.14.05-.28.11-.4.19s-.26.19-.41.33c-.15.14-.34.34-.57.58l-1.54,1.67,1.74,2.39c.25.34.48.59.68.74s.43.23.69.24l.07.07-.08.49c-.2.02-.36.04-.5.06s-.26.03-.38.05c-.12.01-.19.02-.23.02-.21,0-.42-.08-.63-.24s-.42-.4-.62-.72l-1.87-2.77.02-.2h-.02Z"/>
    <path class="cls-2" d="m79.21,13.59c-.64,0-1.2-.15-1.68-.44s-.85-.7-1.11-1.24c-.26-.53-.4-1.15-.4-1.86,0-.58.09-1.1.27-1.59.18-.48.44-.91.78-1.26.34-.36.73-.64,1.18-.83.45-.2.95-.29,1.49-.29.67,0,1.24.15,1.72.44s.86.7,1.13,1.22.4,1.14.4,1.85c0,.58-.09,1.12-.28,1.6-.19.49-.45.91-.79,1.26-.34.35-.74.63-1.2.83s-.97.3-1.52.3h.01Zm.33-.75c.43,0,.8-.11,1.12-.33.31-.22.56-.54.74-.95s.27-.89.27-1.44c0-.67-.09-1.23-.28-1.71-.19-.47-.45-.84-.79-1.09-.34-.26-.74-.39-1.2-.39-.42,0-.78.11-1.09.33s-.55.54-.72.94-.25.88-.25,1.44c0,.66.09,1.22.27,1.7s.44.84.77,1.11.72.39,1.17.39h0Z"/>
    <path class="cls-2" d="m87.6,13.59c-.82,0-1.45-.21-1.89-.63-.43-.42-.65-1.04-.65-1.85v-3.7c0-.24-.02-.4-.07-.49-.05-.08-.16-.12-.32-.12-.07,0-.19,0-.37.02l-.02-.04.08-.6c.34.02.62.03.84.03h.6c.11,0,.24,0,.39-.02s.29-.02.41-.03c.13,0,.28-.02.45-.05l-.07.62c-.26.03-.43.09-.53.18-.09.09-.15.24-.15.45l-.09,3.32c0,.67.15,1.19.44,1.55s.71.54,1.25.54.96-.15,1.25-.44.43-.72.43-1.29v-.66c0-.29,0-.61-.02-.95s-.01-.66-.02-.97c0-.31,0-.66-.02-1.06-.01-.26-.04-.42-.09-.5-.04-.08-.15-.11-.31-.11-.07,0-.22,0-.44.02l-.02-.04.09-.6c.18,0,.34.01.48.02s.28,0,.43.01.27,0,.38,0c.18,0,.37,0,.55-.02.19-.01.41-.04.66-.07l-.06.61c-.3.05-.5.12-.59.19s-.14.22-.14.44v3.69c0,.82-.25,1.45-.74,1.89-.5.44-1.2.66-2.11.66h-.01Z"/>
    <path class="cls-2" d="m98.04,14.39l-2.22-.12c.02-.44.03-.83.05-1.17.01-.34.03-.71.04-1.1s.02-.76.03-1.12c0-.36.01-.65.01-.87s0-.52-.01-.87c0-.36-.02-.73-.03-1.13s-.02-.77-.04-1.12c-.02-.35-.03-.74-.05-1.18l2.25-.12.05.08-.07.48-1.25.25v7.2l1.27.25.05.09-.07.46h-.01Z"/>
    <path class="cls-2" d="m99.45,12.38c.27-.02.48-.07.63-.14.15-.07.25-.19.31-.35.06-.16.09-.39.09-.69v-2.53c0-.28-.05-.46-.15-.53-.1-.08-.25-.11-.45-.11-.11,0-.31.02-.59.07l-.04-.06.06-.54s.12-.02.26-.03c.14-.02.3-.04.48-.06.18-.03.37-.05.55-.07.38-.06.66-.11.84-.14.18-.03.34-.06.47-.08l.09.25c-.14.11-.23.23-.29.36-.06.12-.1.32-.12.57-.02.36-.04.73-.06,1.13-.02.4-.03.78-.03,1.14v.94c0,.29.04.49.11.6s.22.16.42.16c.14,0,.33-.01.58-.03l.02.06-.11.62c-.21-.01-.4-.02-.56-.03-.16,0-.33,0-.52-.01s-.34,0-.48,0c-.16,0-.33,0-.51.02-.18.01-.35.03-.51.05-.16.01-.34.04-.56.07l.08-.61v-.03Z"/>
    <path class="cls-2" d="m103.68,12.7l.87-.98c.42-.48.75-.89,1.01-1.25s.45-.67.58-.94c.12-.26.19-.5.19-.69,0-.25-.07-.44-.21-.58s-.33-.21-.58-.21-.48.09-.72.26-.44.4-.62.69h-.12l-.16-.65c.16-.25.35-.47.57-.65.22-.18.46-.33.71-.44.25-.11.5-.16.75-.16.5,0,.9.13,1.2.38.3.26.45.6.45,1.02,0,.23-.07.48-.21.76s-.37.63-.7,1.04c-.33.42-.79.95-1.38,1.61l.04.08h1.45c.26,0,.47-.03.62-.08s.26-.16.35-.31c.09-.15.16-.36.22-.64l.64-.07c-.05.23-.1.45-.13.64s-.07.4-.11.63c-.04.23-.07.45-.09.66l-.15.1c-.38,0-.72-.02-1.01-.03s-.62-.02-.96-.03-.67-.02-.98-.02h-.77l-.66.12-.1-.28v.02Z"/>
    <path class="cls-2" d="m109.97,12.38c.27-.02.48-.07.63-.14.15-.07.25-.19.31-.35.06-.16.08-.39.08-.69v-2.53c0-.28-.05-.46-.15-.53s-.25-.11-.45-.11c-.11,0-.31.02-.59.07l-.05-.06.06-.54s.12-.02.26-.03c.14-.02.3-.04.48-.06.19-.03.37-.05.55-.07.38-.06.66-.11.84-.14.19-.03.34-.06.47-.08l.09.25c-.14.11-.23.23-.29.36-.06.12-.1.32-.12.57-.02.36-.04.73-.06,1.13-.01.4-.02.78-.03,1.14s0,.68,0,.94c0,.29.04.49.11.6.08.11.22.16.42.16.14,0,.33-.01.58-.03l.02.06-.11.62c-.21-.01-.4-.02-.56-.03-.16,0-.33,0-.52-.01h-.48c-.16,0-.33,0-.51.02s-.35.03-.51.05c-.16.01-.34.04-.56.07l.08-.61v-.03Z"/>
    <path class="cls-2" d="m114.22,14.39l-.05-.08.08-.48,1.24-.25v-7.2l-1.27-.25-.05-.09.07-.46,2.23.12c-.01.44-.03.83-.04,1.17s-.02.71-.04,1.1c-.01.39-.03.76-.03,1.12s-.01.65-.01.87,0,.52.01.87c0,.35.02.73.03,1.12.01.39.02.76.04,1.12.01.35.03.75.04,1.19l-2.26.12h.01Z"/>
  </g>
</svg>