<?xml version="1.0" encoding="UTF-8"?>
<svg id="_图层_2" data-name=" 图层 2" xmlns="http://www.w3.org/2000/svg" viewBox="0 0 119.77 20.55">
  <defs>
    <style>
      .cls-1 {
        fill: #fff;
        stroke: #000;
        stroke-miterlimit: 10;
        stroke-width: .71px;
      }

      .cls-2 {
        fill: #231815;
        stroke-width: 0px;
      }
    </style>
  </defs>
  <rect class="cls-1" x=".35" y=".35" width="119.06" height="19.84"/>
  <g>
    <path class="cls-2" d="m9.3,13.6c-.08-.29-.16-.56-.23-.8-.07-.25-.15-.54-.25-.86-.1-.33-.2-.67-.31-1.04-.11-.37-.22-.73-.33-1.11-.11-.37-.23-.73-.33-1.07-.05-.18-.14-.31-.26-.4-.12-.08-.29-.13-.5-.13l-.03-.04.06-.46c.16,0,.29.01.41.01h.67c.14,0,.3,0,.46-.01.16,0,.32-.02.47-.03.15-.01.32-.03.5-.04l.04.07-.04.43c-.2.01-.36.03-.47.06-.11.03-.18.06-.22.11-.04.04-.06.11-.06.19,0,.05.02.15.05.32s.08.36.14.6c.06.24.12.5.19.77s.14.55.22.81.14.51.19.73c.06.22.12.46.2.73h.1c.07-.16.14-.36.23-.6.09-.24.18-.5.28-.78.1-.28.2-.57.3-.85.1-.28.18-.55.27-.8s.15-.45.19-.62c.05-.17.07-.27.07-.32,0-.11-.04-.2-.13-.25-.08-.05-.22-.08-.42-.08h-.42l-.03-.05.05-.46c.28.02.51.03.71.04.2,0,.4.01.6.01h.46c.16,0,.34-.01.55-.02l-.06.5c-.17,0-.29.04-.36.09-.07.06-.13.17-.19.35l-1.82,4.79-.96.19v.02Z"/>
    <path class="cls-2" d="m13.56,13.56l.05-.49c.28-.05.46-.13.55-.24.09-.1.14-.28.14-.54v-3.64c0-.19-.01-.32-.06-.39-.04-.07-.13-.1-.27-.1h-.17c-.07,0-.13,0-.18.01l-.03-.05.06-.45h1.15c.12,0,.29,0,.5-.02s.43-.03.65-.05l-.04.49c-.24.03-.4.08-.48.14-.08.07-.13.19-.14.36-.02.31-.04.64-.05.99s-.03.69-.04,1.04c0,.35-.02.67-.02.96v.75c0,.24.03.4.08.49s.15.12.29.12h.24c.08,0,.15-.01.2-.02l.03.04-.08.49c-.12,0-.26,0-.41-.01s-.31,0-.46,0h-.37c-.14,0-.31,0-.52.03-.21.02-.41.04-.61.07v.02Z"/>
    <path class="cls-2" d="m21.79,13.76c-.4-.63-.78-1.22-1.14-1.77-.37-.55-.69-1.03-.97-1.45s-.59-.86-.92-1.33h-.06l-.04,3.38c0,.14.03.23.07.29s.12.08.23.08h.43l.03.04-.08.48c-.14,0-.27-.01-.38-.02-.11,0-.22-.01-.34-.01h-.32c-.14,0-.28,0-.43.02-.15.01-.32.03-.53.05l.05-.49c.19-.02.32-.08.41-.16s.13-.22.14-.41l.12-3.77c0-.19-.05-.33-.16-.4-.11-.08-.31-.13-.61-.16l-.04-.06.06-.41c.2.01.38.02.51.03.14,0,.26.01.38.01h.33c.11,0,.23-.01.38-.03.28.43.55.84.81,1.25.26.4.51.78.75,1.13.23.35.44.66.63.92.18.26.38.54.58.83h.06v-3.23c0-.14-.03-.24-.08-.3s-.12-.09-.23-.09h-.32l-.03-.05.07-.47c.14,0,.26.01.37.02.1,0,.21,0,.32.01h.3c.13,0,.27,0,.42-.01.15,0,.33-.03.54-.05l-.04.49c-.2.02-.35.08-.45.17s-.14.22-.15.4l-.13,4.94-.56.12h.02Z"/>
    <path class="cls-2" d="m24.86,13.5l.07-.48c.28-.02.48-.06.6-.11s.21-.15.24-.28.05-.35.05-.64v-3.78c-.31,0-.55.02-.72.04-.17.02-.3.07-.39.14s-.15.18-.19.34-.07.36-.1.63l-.57.04c.02-.19.04-.39.06-.59.01-.21.03-.41.04-.6.01-.2.02-.38.03-.53l.09-.08.81.1h2.8l.83-.1.09.08c0,.17.01.35.02.55,0,.2.02.4.04.59.02.19.04.37.05.54l-.57.04c-.04-.28-.08-.49-.12-.65s-.1-.27-.18-.35-.2-.12-.37-.15c-.16-.02-.38-.04-.67-.05-.02.19-.03.45-.05.77-.02.32-.03.68-.04,1.07,0,.39-.02.78-.03,1.18,0,.4-.01.78-.01,1.12,0,.22.04.38.12.47s.21.14.39.14c.16,0,.32,0,.49-.03l.03.04-.08.5c-.14-.01-.3-.02-.48-.02h-1.33c-.16,0-.32,0-.49.02-.17,0-.33.02-.47.02v.02Z"/>
    <path class="cls-2" d="m32.22,13.48l.04-.43c.2-.02.36-.05.47-.07.11-.02.18-.05.22-.09s.06-.1.06-.18c0-.05,0-.1,0-.17,0-.06-.03-.13-.05-.2l-.25-.85h-.89c-.16,0-.33,0-.51.02-.18.01-.32.03-.42.04l-.29.83c-.05.14-.07.25-.07.32,0,.12.04.21.12.26s.2.08.37.08h.46l.03.04-.05.46c-.26-.02-.5-.03-.69-.04-.2,0-.39-.01-.58-.01h-.47c-.16,0-.35,0-.56.02l.07-.49c.16-.02.28-.08.38-.18.1-.09.19-.25.27-.48l1.69-4.58.94-.15.08.03c.08.29.16.57.23.82.07.26.15.54.24.87s.19.66.29,1.02c.1.35.21.71.31,1.06.1.35.21.68.3.98.07.22.16.37.28.46s.29.15.52.17l.03.04-.06.44c-.25-.01-.45-.02-.61-.02h-.42c-.23,0-.46,0-.68.02s-.46.04-.73.06l-.04-.06-.02-.04Zm-1.15-2.53h.73c.11,0,.24,0,.39-.01.15,0,.27-.02.37-.02l-.62-2.2h-.09l-.77,2.23h-.01Z"/>
    <path class="cls-2" d="m38.1,13.57c-.55,0-1.02-.11-1.41-.34-.4-.23-.7-.55-.92-.97-.22-.42-.32-.92-.32-1.49,0-.64.13-1.2.39-1.67s.63-.84,1.11-1.1,1.04-.39,1.68-.39c.19,0,.39,0,.6.03.21.02.4.05.57.08s.37.07.59.11l.04.08c-.06.28-.11.54-.15.78s-.07.5-.08.79l-.62.04c.02-.2.03-.36.03-.49,0-.27-.09-.46-.28-.58-.19-.11-.49-.17-.91-.17s-.76.08-1.05.25-.51.41-.65.74c-.15.33-.22.73-.22,1.2,0,.52.08.96.22,1.33.15.37.36.66.63.86s.59.3.96.3c.22,0,.41-.02.57-.07s.33-.12.51-.22v-.98c0-.19-.03-.32-.08-.38-.06-.06-.18-.09-.36-.09h-.56l-.03-.05.08-.53h.24c.12,0,.27.01.44.01h.92c.13,0,.27-.02.43-.04l.05.27c-.09.06-.16.14-.2.24-.04.1-.08.24-.09.43-.02.18-.03.43-.03.75,0,.16,0,.31.02.45,0,.14.03.25.04.34l-.06.09c-.36.13-.7.23-1.01.3-.32.07-.67.1-1.08.1h0Z"/>
    <path class="cls-2" d="m41.97,13.55l.05-.5c.26-.04.44-.11.54-.22.1-.11.14-.29.14-.55v-3.63c0-.19,0-.32-.05-.39-.04-.07-.12-.1-.26-.1h-.14c-.06,0-.11,0-.16.01l-.04-.05.07-.46h.43c.17,0,.34,0,.51.01h1.67c.33,0,.62-.02.87-.04s.46-.04.66-.06l.04.07c-.03.15-.06.32-.09.5s-.05.37-.07.55-.03.35-.04.51l-.6.04c0-.05,0-.12,0-.2v-.18c0-.14,0-.25-.04-.33-.02-.08-.08-.14-.16-.18s-.21-.07-.38-.08c-.17-.01-.4-.02-.69-.02-.17,0-.3,0-.38.02s-.13.04-.15.09-.03.12-.04.23l-.09,2.03-.03,1.74c0,.16,0,.27.04.35.03.08.09.13.18.15.09.02.23.04.43.04.32,0,.58-.01.78-.04.2-.02.35-.07.46-.14.1-.07.18-.18.23-.32s.09-.33.12-.57l.56-.05.04.06c-.05.2-.09.46-.14.76s-.08.58-.11.83l-.06.07c-.34-.01-.69-.02-1.04-.03-.35,0-.68-.02-.98-.02h-.73c-.2,0-.44,0-.7.02-.26.02-.49.04-.69.07h.03Zm1.52-2.67l.07-.67h.95c.1,0,.26,0,.47-.03.21-.02.41-.04.61-.06l.04.06-.13.64c-.16,0-.36-.01-.6-.02s-.44,0-.61,0c-.13,0-.26,0-.41.02-.15.01-.28.03-.4.05h.01Z"/>
    <path class="cls-2" d="m52.92,13.62c-.19-.56-.37-1.11-.55-1.64-.18-.53-.36-1.04-.54-1.53s-.34-.96-.49-1.39h-.06s0,.12-.02.3-.03.4-.05.66-.04.54-.07.83c-.02.29-.05.57-.07.84s-.04.49-.05.68c0,.18-.02.29-.02.34,0,.19.1.28.29.28h.34l.03.04-.09.48h-.22c-.12,0-.25-.01-.39-.02h-.62c-.1,0-.18.02-.27.03s-.18.02-.29.04l.05-.49c.19-.02.32-.08.4-.17.08-.1.13-.26.16-.5,0-.08.03-.23.05-.44s.05-.45.08-.72c.03-.27.05-.55.08-.83.03-.28.05-.55.08-.81.03-.26.05-.47.06-.65,0-.17.02-.28.02-.32,0-.11-.02-.19-.07-.26-.05-.06-.12-.11-.23-.15s-.25-.06-.43-.07l-.04-.05.07-.4h.27c.13,0,.27.01.42.02.15,0,.27.01.36.01h.31c.11,0,.21-.01.29-.02s.15,0,.18,0c.17.56.33,1.09.49,1.57s.3.91.42,1.28.23.67.31.89c.08.23.12.36.13.41h.05s.06-.18.14-.41.19-.53.32-.9.27-.79.44-1.27.33-1,.51-1.56h.8c.1,0,.22,0,.37-.01.15,0,.28-.02.39-.03.11,0,.18-.01.2-.01l.03.04-.05.42c-.26.03-.44.07-.54.14-.1.07-.15.19-.15.34,0,.07,0,.19,0,.38,0,.19.02.41.04.67s.04.54.06.83.04.59.06.87c.02.29.04.55.06.79.04.34.08.56.14.67.06.11.16.17.29.17h.25l.03.04-.08.48h-.17c-.1,0-.22-.01-.35-.01h-.68c-.12,0-.24.02-.36.03s-.21.02-.29.03-.12,0-.12,0l.05-.49c.18-.02.31-.07.39-.14s.12-.17.12-.31c0-.05,0-.16-.02-.34,0-.18-.03-.39-.05-.64s-.04-.51-.06-.79-.04-.54-.06-.79-.04-.46-.05-.64-.02-.29-.02-.34h-.06c-.11.32-.23.65-.36,1.01-.13.35-.26.72-.4,1.11-.14.38-.28.77-.41,1.17-.14.4-.28.8-.41,1.21l-.4.07.02-.03Z"/>
    <path class="cls-2" d="m60.47,13.48l.04-.43c.2-.02.36-.05.47-.07.11-.02.18-.05.22-.09s.06-.1.06-.18c0-.05,0-.1,0-.17,0-.06-.03-.13-.05-.2l-.25-.85h-.89c-.16,0-.33,0-.51.02-.18.01-.32.03-.42.04l-.29.83c-.05.14-.07.25-.07.32,0,.12.04.21.12.26s.2.08.37.08h.46l.03.04-.05.46c-.26-.02-.5-.03-.69-.04-.2,0-.39-.01-.58-.01h-.47c-.16,0-.35,0-.56.02l.07-.49c.16-.02.28-.08.38-.18.1-.09.19-.25.27-.48l1.69-4.58.94-.15.08.03c.08.29.16.57.23.82.07.26.15.54.24.87s.19.66.29,1.02c.1.35.21.71.31,1.06.1.35.21.68.3.98.07.22.16.37.28.46s.29.15.52.17l.03.04-.06.44c-.25-.01-.45-.02-.61-.02h-.42c-.23,0-.46,0-.68.02s-.46.04-.73.06l-.04-.06-.02-.04Zm-1.15-2.53h.73c.11,0,.24,0,.39-.01.15,0,.27-.02.37-.02l-.62-2.2h-.09l-.77,2.23h0Z"/>
    <path class="cls-2" d="m67.99,13.6c-.17,0-.34-.07-.5-.22s-.32-.36-.47-.62l-.87-1.67h-.7l-.02,1.2c0,.21.01.37.04.47s.09.17.18.2c.09.03.24.05.43.05l.02.04-.08.46c-.14,0-.27-.01-.38-.01h-1.19c-.18,0-.39.02-.63.04l.08-.5c.27-.03.45-.09.54-.19.09-.1.13-.27.13-.53v-3.65c0-.18-.01-.3-.05-.37s-.13-.1-.25-.1c-.05,0-.16,0-.31.02l-.04-.04.07-.47c.15,0,.28.01.4.01h.99c.14,0,.27,0,.41-.01.14,0,.3-.01.49-.02.61,0,1.09.13,1.43.38s.51.62.51,1.08c0,.35-.11.68-.33.98-.22.3-.53.55-.94.74l.9,1.44c.17.28.34.47.5.59s.35.18.57.18l.04.05-.06.38-.89.1h-.02Zm-1.65-3.06s.07-.04.17-.08.2-.11.31-.2.21-.21.29-.37.12-.35.12-.59c0-.37-.12-.64-.37-.82s-.63-.27-1.14-.27c-.06,0-.1.01-.12.04-.02.03-.03.08-.04.17-.02.43-.04.8-.06,1.12s-.03.63-.03.93l.88.09v-.02Z"/>
    <path class="cls-2" d="m70.64,8.66c0-.19-.02-.32-.06-.39-.04-.07-.13-.1-.27-.1-.05,0-.15,0-.29.02l-.04-.05.07-.46c.16,0,.3.01.43.01h.67c.1,0,.21,0,.33-.01.12,0,.24-.02.36-.02.11,0,.25-.02.4-.04l-.04.49c-.22.04-.37.1-.45.17-.08.07-.12.19-.13.36l-.1,3.72c0,.24.02.4.07.49.05.08.15.12.3.12.1,0,.23,0,.39-.03l.03.04-.08.49c-.17,0-.32,0-.45-.01s-.26,0-.39,0h-1.1c-.11,0-.24,0-.39.01l.09-.48c.28-.04.45-.1.54-.18s.12-.26.12-.52v-3.64h-.01Zm1.11,1.8l1.49-1.57c.17-.17.26-.33.26-.46,0-.08-.04-.14-.13-.19-.09-.04-.22-.07-.4-.08l-.03-.05.07-.46c.14.01.27.02.39.03.12,0,.23.01.35.02h.59c.11,0,.21,0,.31-.01.1,0,.21-.01.33-.02l.04.07-.06.43c-.11.04-.22.09-.32.15-.1.06-.21.15-.33.26s-.27.27-.45.46l-1.22,1.32,1.38,1.9c.2.27.38.46.54.59.16.12.34.18.55.19l.05.05-.06.39c-.16.02-.29.04-.4.05s-.21.03-.3.04c-.09,0-.15.01-.18.01-.17,0-.34-.06-.5-.19s-.33-.32-.49-.57l-1.49-2.2.02-.16h-.01Z"/>
    <path class="cls-2" d="m76.11,13.55l.05-.5c.26-.04.44-.11.54-.22s.14-.29.14-.55v-3.63c0-.19-.01-.32-.05-.39-.04-.07-.12-.1-.26-.1h-.14c-.06,0-.11,0-.16.01l-.04-.05.07-.46h.43c.17,0,.34,0,.51.01h1.67c.33,0,.62-.02.87-.04.25-.02.46-.04.66-.06l.04.07c-.03.15-.06.32-.09.5s-.05.37-.07.55-.03.35-.04.51l-.6.04c0-.05.01-.12.01-.2v-.18c0-.14-.01-.25-.04-.33-.02-.08-.08-.14-.16-.18s-.21-.07-.38-.08-.4-.02-.69-.02c-.17,0-.3,0-.38.02s-.13.04-.15.09c-.02.05-.04.12-.04.23l-.09,2.03-.03,1.74c0,.16.01.27.04.35s.09.13.18.15c.09.02.23.04.43.04.32,0,.58-.01.78-.04.2-.02.35-.07.45-.14.11-.07.18-.18.23-.32s.09-.33.12-.57l.56-.05.04.06c-.05.2-.09.46-.14.76s-.08.58-.11.83l-.06.07c-.34-.01-.69-.02-1.04-.03-.35,0-.68-.02-.98-.02h-.73c-.2,0-.44,0-.7.02s-.49.04-.69.07h.04Zm1.52-2.67l.07-.67h.95c.1,0,.26,0,.47-.03.21-.02.41-.04.61-.06l.04.06-.13.64c-.16,0-.36-.01-.6-.02h-.61c-.13,0-.26,0-.41.02-.15.01-.28.03-.4.05h0Z"/>
    <path class="cls-2" d="m82.52,13.5l.07-.48c.28-.02.48-.06.6-.11s.21-.15.24-.28.05-.35.05-.64v-3.78c-.31,0-.55.02-.72.04-.17.02-.3.07-.39.14s-.15.18-.19.34-.07.36-.1.63l-.57.04c.02-.19.04-.39.06-.59.01-.21.03-.41.04-.6.01-.2.02-.38.03-.53l.09-.08.81.1h2.8l.83-.1.09.08c0,.17.01.35.02.55,0,.2.02.4.04.59.02.19.04.37.05.54l-.57.04c-.04-.28-.08-.49-.12-.65s-.1-.27-.18-.35-.2-.12-.36-.15c-.16-.02-.38-.04-.67-.05-.02.19-.04.45-.05.77s-.03.68-.04,1.07c0,.39-.02.78-.03,1.18,0,.4-.01.78-.01,1.12,0,.22.04.38.12.47s.21.14.39.14c.16,0,.32,0,.49-.03l.03.04-.08.5c-.14-.01-.3-.02-.48-.02h-1.33c-.16,0-.32,0-.49.02-.17,0-.33.02-.47.02v.02Z"/>
    <path class="cls-2" d="m92.28,14.39l-2.22-.12c.02-.44.03-.83.05-1.17.01-.34.03-.71.04-1.1s.02-.76.03-1.12c0-.35.01-.65.01-.87s0-.52-.01-.87c0-.35-.02-.73-.03-1.13s-.02-.77-.04-1.12c-.02-.35-.03-.74-.05-1.18l2.25-.12.05.08-.07.48-1.25.25v7.2l1.27.25.05.09-.07.46h-.01Z"/>
    <path class="cls-2" d="m93.69,12.38c.27-.02.48-.07.63-.14s.25-.19.31-.35c.06-.16.09-.39.09-.69v-2.53c0-.28-.05-.46-.15-.53-.1-.08-.25-.11-.45-.11-.11,0-.31.02-.59.07l-.04-.06.06-.54s.12-.02.26-.03.3-.04.48-.06c.18-.03.37-.05.55-.07.38-.06.66-.11.84-.14.18-.03.34-.06.47-.08l.09.25c-.14.11-.23.23-.29.36-.06.12-.1.32-.12.57-.02.36-.04.73-.06,1.13-.02.4-.03.78-.03,1.14v.94c0,.29.04.49.11.6.08.11.22.16.42.16.14,0,.33-.01.58-.03l.02.06-.11.62c-.21-.01-.4-.02-.56-.03s-.33,0-.52-.01-.34,0-.48,0c-.16,0-.33,0-.51.02-.18.01-.35.03-.51.04-.16.02-.34.04-.56.07l.08-.61v-.02Z"/>
    <path class="cls-2" d="m97.92,12.7l.87-.97c.42-.48.75-.89,1.01-1.25s.45-.67.58-.94c.12-.26.19-.49.19-.69,0-.25-.07-.44-.21-.58s-.33-.2-.58-.2-.48.08-.72.25-.44.4-.62.69h-.12l-.16-.65c.16-.25.35-.47.57-.65.22-.19.46-.33.71-.44.25-.11.5-.16.75-.16.5,0,.9.13,1.2.38.3.26.45.6.45,1.02,0,.23-.07.48-.21.76-.14.28-.37.63-.7,1.04-.33.42-.79.95-1.38,1.61l.04.08h1.45c.26,0,.47-.03.62-.09s.26-.16.35-.31.16-.36.22-.64l.64-.07c-.05.23-.1.45-.13.64-.03.19-.07.4-.11.63-.04.23-.07.45-.09.66l-.15.1c-.38,0-.72-.02-1.01-.03s-.62-.02-.96-.03c-.34-.01-.67-.02-.98-.02h-.77l-.66.12-.1-.28v.02Z"/>
    <path class="cls-2" d="m104.57,14.02c-.25,0-.44-.07-.57-.2s-.21-.39-.23-.78l.1-.1c.16.04.32.07.48.09s.31.03.46.03c.37,0,.7-.06.99-.17s.52-.27.69-.47c.17-.2.25-.43.25-.69,0-.23-.07-.43-.22-.59s-.38-.29-.71-.41c-.33-.11-.78-.22-1.34-.31l-.1-.12c.03-.35.06-.69.08-1.04.03-.34.05-.66.07-.94s.04-.59.05-.92l.09-.09,2.17-.09c.22,0,.38-.04.48-.1.1-.06.18-.17.24-.34l.48-.04-.28,1.49-.1.09c-.44-.03-.84-.05-1.2-.07-.36-.02-.76-.02-1.18-.02l-.09,1.26c.54.11,1.01.24,1.42.4s.73.36.95.6c.23.24.34.53.34.89s-.1.68-.31.99-.47.59-.8.84-.69.45-1.08.59-.77.21-1.13.21h0Z"/>
    <path class="cls-2" d="m109.37,14.39l-.05-.08.08-.48,1.24-.25v-7.2l-1.27-.25-.05-.09.07-.46,2.23.12c-.01.44-.03.83-.04,1.17s-.02.71-.04,1.1c-.01.39-.03.76-.03,1.12s-.01.65-.01.87,0,.52.01.87c0,.36.02.73.03,1.12.01.39.02.76.04,1.12.01.35.03.75.04,1.18l-2.26.12v.02Z"/>
  </g>
</svg>