<?xml version="1.0" encoding="UTF-8"?>
<svg id="_图层_2" data-name=" 图层 2" xmlns="http://www.w3.org/2000/svg" viewBox="0 0 119.77 20.55">
  <defs>
    <style>
      .cls-1 {
        fill: #fff;
        stroke: #000;
        stroke-miterlimit: 10;
        stroke-width: .71px;
      }

      .cls-2 {
        fill: #231815;
        stroke-width: 0px;
      }
    </style>
  </defs>
  <rect class="cls-1" x=".35" y=".35" width="119.06" height="19.84"/>
  <g>
    <path class="cls-2" d="m20.47,13.51l.09-.6c.35-.03.6-.08.76-.14s.26-.18.31-.36c.05-.17.07-.44.07-.81v-4.76c-.39,0-.69.03-.91.06-.22.03-.38.09-.49.18-.11.09-.19.23-.24.43-.05.19-.09.46-.13.79l-.71.06c.03-.24.05-.49.07-.75s.04-.51.05-.76c.01-.25.03-.47.03-.67l.11-.1,1.02.12h3.53l1.04-.12.11.1c0,.21.02.44.03.7.01.25.03.5.05.75s.05.47.07.67l-.71.06c-.04-.35-.09-.62-.15-.82-.05-.2-.13-.34-.23-.44-.1-.09-.25-.16-.46-.19-.2-.03-.48-.05-.84-.07-.02.24-.04.57-.06.98s-.03.86-.04,1.34c-.01.49-.02.98-.03,1.49s-.02.98-.02,1.42c0,.28.05.48.15.59.1.12.26.18.49.18.2,0,.41-.01.61-.03l.03.06-.1.63c-.17-.02-.38-.03-.61-.03s-.45,0-.66-.01h-1.01c-.2,0-.4.01-.62.02-.21.01-.41.02-.59.03h-.01Z"/>
    <path class="cls-2" d="m26.56,13.57l.07-.62c.33-.05.56-.14.68-.27.12-.14.18-.37.18-.69v-4.57c.01-.24-.01-.4-.06-.49-.05-.08-.16-.12-.32-.12h-.18c-.07,0-.14,0-.2.02l-.05-.07.09-.58c.15,0,.33,0,.54.01.21,0,.42.01.65.02h.61c.58,0,1.08,0,1.5-.01.42,0,.78-.02,1.09-.04s.58-.05.83-.08l.06.09c-.04.19-.08.4-.11.63s-.07.46-.09.69-.04.45-.06.64l-.76.06c0-.07.01-.15.02-.25s0-.17,0-.23c0-.17-.02-.31-.05-.41s-.1-.18-.2-.23-.27-.08-.48-.1c-.22-.02-.5-.03-.87-.03-.22,0-.38,0-.48.02s-.16.05-.19.11-.04.16-.05.28l-.11,2.56-.03,2.19c0,.2.02.34.05.44.03.1.11.16.22.19s.29.04.54.04c.41,0,.74-.01.99-.04s.44-.09.57-.18.23-.23.29-.41.12-.42.15-.71l.7-.07.06.08c-.06.26-.12.57-.18.95s-.1.73-.14,1.04l-.08.09c-.43-.02-.87-.03-1.32-.04-.45-.01-.86-.02-1.24-.03-.38,0-.68-.01-.92-.01-.26,0-.55,0-.88.03-.33.02-.62.05-.87.09h.03Zm1.92-3.37l.09-.84h1.19c.13,0,.32-.01.59-.03s.52-.05.77-.08l.06.08-.16.8c-.2,0-.46-.01-.76-.02-.3,0-.56-.01-.77-.01-.16,0-.33,0-.52.03-.19.02-.36.04-.5.06h.01Z"/>
    <path class="cls-2" d="m37.04,13.48l.04-.54c.26-.03.45-.06.59-.09s.23-.07.28-.12.08-.13.08-.23c0-.06,0-.13-.02-.21,0-.08-.03-.17-.06-.26l-.32-1.08c-.14,0-.32-.01-.55-.01h-.56c-.2,0-.42,0-.64.03-.22.02-.4.04-.53.05l-.36,1.04c-.06.18-.09.31-.09.4,0,.15.05.26.15.32.1.06.25.1.46.1h.58l.03.06-.07.58c-.33-.02-.62-.04-.87-.05s-.5-.02-.74-.02h-.6c-.2,0-.44.01-.71.03l.09-.62c.2-.03.36-.1.48-.22s.23-.32.34-.61l2.13-5.77,1.18-.19.1.03c.11.37.2.72.29,1.04s.19.69.3,1.09.23.84.36,1.28c.13.45.26.89.39,1.33s.26.85.38,1.23c.09.27.21.46.35.58.14.11.36.18.66.22l.03.06-.08.55c-.31-.02-.57-.02-.77-.03h-.53c-.29,0-.58,0-.86.03-.28.02-.58.04-.92.07l-.04-.08h.03Zm-1.45-3.19h.92c.14,0,.3,0,.49-.02.19-.01.34-.02.46-.03l-.78-2.77h-.11l-.97,2.81h0Z"/>
    <path class="cls-2" d="m44.01,12.96c.35-.06.58-.16.69-.29s.17-.36.17-.68v-4.57c0-.24,0-.4-.06-.49-.05-.08-.16-.12-.32-.12-.07,0-.19,0-.37.02l-.04-.07.09-.58c.23,0,.43.01.61.02s.38,0,.59.01h.59c.51,0,.95,0,1.34-.01.39,0,.74-.02,1.04-.04.31-.02.57-.05.8-.08l.06.09c-.06.37-.11.71-.15,1.01-.04.3-.07.63-.1.98l-.75.06c.02-.26.02-.42.02-.5,0-.23-.03-.4-.09-.51-.06-.11-.19-.18-.39-.21s-.5-.05-.91-.05c-.22,0-.38,0-.48.02s-.16.05-.19.11-.04.16-.05.28l-.09,2.2h1.12c.12.01.27,0,.46-.02s.43-.05.73-.08l.07.08-.16.8c-.31-.01-.57-.02-.79-.03h-.58c-.17,0-.33,0-.49.03-.16.02-.29.04-.39.05l-.03,1.66c0,.29.03.49.1.6.06.1.19.15.39.15.08,0,.19,0,.31-.01.12,0,.28-.02.47-.03l.04.08-.1.68c-.25,0-.46-.02-.65-.02-.18,0-.37-.01-.57-.02h-.51c-.23,0-.47.01-.7.03-.23.02-.51.06-.82.1l.07-.64h.02Z"/>
    <path class="cls-2" d="m53.6,13.48l.05-.54c.26-.03.45-.06.59-.09s.23-.07.28-.12.08-.13.08-.23c0-.06,0-.13-.02-.21,0-.08-.03-.17-.06-.26l-.32-1.08c-.14,0-.32-.01-.55-.01h-.56c-.2,0-.42,0-.64.03-.22.02-.4.04-.53.05l-.36,1.04c-.06.18-.09.31-.09.4,0,.15.05.26.15.32.1.06.25.1.46.1h.58l.03.06-.07.58c-.33-.02-.62-.04-.87-.05s-.5-.02-.74-.02h-.6c-.2,0-.44.01-.71.03l.09-.62c.2-.03.35-.1.48-.22s.23-.32.34-.61l2.13-5.77,1.18-.19.1.03c.11.37.2.72.29,1.04s.19.69.3,1.09.23.84.36,1.28c.13.45.26.89.39,1.33s.26.85.38,1.23c.09.27.21.46.35.58.14.11.36.18.66.22l.03.06-.08.55c-.31-.02-.56-.02-.76-.03h-.53c-.29,0-.58,0-.86.03-.28.02-.58.04-.92.07l-.05-.08h.02Zm-1.45-3.19h.92c.14,0,.3,0,.49-.02.19-.01.34-.02.46-.03l-.78-2.77h-.11l-.98,2.81h0Z"/>
    <path class="cls-2" d="m63.08,13.64c-.21,0-.42-.1-.64-.28-.21-.19-.41-.45-.59-.78l-1.1-2.11h-.88l-.02,1.51c0,.27.02.46.05.59s.11.21.23.25.3.06.54.07l.02.04-.1.58c-.18,0-.34-.01-.48-.02-.14,0-.28,0-.43-.01h-1.07c-.22,0-.49.02-.8.05l.1-.62c.34-.04.57-.12.67-.24.11-.12.16-.34.16-.67v-4.59c0-.23,0-.38-.07-.46-.05-.08-.16-.12-.32-.12-.07,0-.2,0-.38.02l-.05-.06.09-.59c.19,0,.36.01.5.02s.29,0,.44.01.28,0,.39,0h.41c.17,0,.34,0,.52-.02.17,0,.38-.01.61-.02.77,0,1.37.16,1.8.48s.65.78.65,1.37c0,.45-.14.86-.41,1.24-.28.38-.67.69-1.19.93l1.13,1.81c.22.35.43.6.63.75s.44.23.72.23l.06.07-.08.48-1.12.12v-.03Zm-2.08-3.86s.09-.05.21-.1.25-.14.38-.25.26-.27.36-.46c.1-.2.15-.45.15-.75,0-.46-.16-.81-.47-1.04-.31-.23-.79-.35-1.43-.35-.08,0-.13.02-.15.05s-.04.1-.05.21c-.03.54-.05,1.01-.07,1.41-.02.4-.03.79-.04,1.17l1.11.11Z"/>
    <path class="cls-2" d="m69.28,13.66c-.23-.71-.47-1.4-.7-2.07-.23-.67-.46-1.31-.67-1.93-.22-.62-.42-1.2-.61-1.75h-.08s0,.16-.02.38-.04.5-.06.83c-.03.33-.05.68-.08,1.05s-.06.72-.08,1.06-.05.62-.06.85c-.01.23-.02.37-.02.42,0,.23.12.35.36.35h.43l.03.06-.11.6s-.12,0-.27-.01c-.15,0-.31-.02-.49-.02s-.32-.01-.44-.01c-.11,0-.22,0-.33.01s-.23.02-.34.03-.23.03-.37.04l.07-.62c.23-.02.4-.09.5-.22.1-.12.17-.33.2-.63.01-.11.04-.29.07-.55s.06-.56.1-.91c.03-.34.07-.69.1-1.05.03-.35.07-.7.1-1.02.03-.32.06-.6.08-.82.02-.22.03-.35.03-.4,0-.14-.03-.24-.09-.32s-.16-.14-.29-.19c-.13-.04-.31-.08-.54-.09l-.04-.07.09-.51c.06,0,.17,0,.34.01s.34.02.53.03c.18.01.33.02.45.02s.25,0,.39-.01c.14,0,.26-.01.37-.02.11,0,.18-.01.22-.01.21.71.42,1.37.61,1.98s.37,1.14.53,1.61c.16.46.29.84.38,1.12.1.28.16.46.17.52h.07c.02-.05.07-.22.18-.51.1-.29.23-.66.4-1.13.16-.46.35-1,.55-1.6.2-.61.42-1.26.65-1.96.04,0,.13,0,.25.01.12,0,.25.01.39.01h.37c.12,0,.27,0,.46-.02.19-.01.35-.02.49-.03s.23-.02.25-.02l.03.05-.07.53c-.33.03-.55.09-.68.18-.13.09-.19.23-.19.43,0,.08,0,.24.02.48.01.23.03.52.05.84.02.33.05.68.07,1.05.03.37.05.74.08,1.1.03.36.05.7.07,1,.04.42.1.71.18.85.07.14.19.21.37.21.07,0,.14,0,.2-.01.07,0,.11-.01.11-.01l.03.06-.1.6s-.09,0-.21-.01c-.13,0-.28-.01-.44-.02h-.44c-.13,0-.27,0-.42.01-.15,0-.3.02-.45.03s-.27.03-.36.03-.15.01-.15.01l.07-.62c.23-.03.39-.09.49-.18s.15-.22.15-.39c0-.06,0-.2-.02-.43-.02-.22-.03-.49-.06-.8-.02-.31-.05-.64-.07-.99s-.05-.68-.07-.99c-.02-.31-.04-.58-.06-.8s-.03-.37-.03-.43h-.08c-.14.4-.29.82-.45,1.27-.16.45-.33.91-.5,1.39-.17.48-.35.98-.52,1.47-.17.5-.35,1.01-.52,1.52l-.5.09h-.05Z"/>
    <path class="cls-2" d="m80.98,14.39l-2.22-.12c.02-.44.03-.83.05-1.17.01-.34.03-.71.04-1.1s.02-.76.03-1.12c0-.35.01-.65.01-.87s0-.52-.01-.87c0-.35-.02-.73-.03-1.13s-.02-.77-.04-1.12c-.02-.35-.03-.74-.05-1.18l2.25-.12.05.08-.07.48-1.25.25v7.2l1.27.25.05.09-.07.46h-.01Z"/>
    <path class="cls-2" d="m82.39,12.38c.27-.02.48-.07.63-.14s.25-.19.31-.35c.06-.16.09-.39.09-.69v-2.53c0-.28-.05-.46-.15-.53-.1-.08-.25-.11-.45-.11-.11,0-.31.02-.59.07l-.04-.06.06-.54s.12-.02.26-.03c.14-.01.3-.04.48-.06.18-.03.37-.05.55-.07.38-.06.66-.11.84-.14.18-.03.34-.06.47-.08l.09.25c-.14.11-.23.23-.29.36s-.1.32-.12.57c-.02.36-.04.73-.06,1.13-.02.4-.03.78-.03,1.14v.94c0,.29.04.49.11.6.08.11.22.16.42.16.14,0,.33-.01.58-.03l.02.06-.11.62c-.21-.02-.4-.03-.56-.03s-.33,0-.52-.01h-.48c-.16,0-.33,0-.51.02s-.35.03-.51.04c-.16.02-.34.04-.56.07l.08-.61v-.02Z"/>
    <path class="cls-2" d="m87.39,14.02c-.29,0-.49-.07-.61-.22-.12-.15-.18-.4-.2-.75l.09-.1c.31.08.62.12.94.12.35,0,.66-.06.94-.18s.5-.28.66-.48.24-.43.24-.67c0-.35-.15-.62-.45-.78s-.77-.25-1.42-.26l-.08-.08-.07-.53.74-.17c.29-.13.52-.31.69-.53s.26-.46.26-.69-.08-.39-.23-.52-.34-.19-.58-.19c-.2,0-.41.05-.65.15-.23.1-.44.24-.62.41h-.13l-.16-.62s.11-.09.24-.18.29-.18.48-.28c.19-.1.39-.19.61-.26.22-.08.43-.11.63-.11.47,0,.84.12,1.13.35.28.23.43.55.43.94,0,.31-.11.61-.34.89-.23.28-.53.52-.91.7v.07c.51.13.9.31,1.16.56s.39.54.39.88c0,.3-.09.6-.28.9-.19.3-.44.57-.75.82s-.66.44-1.04.59c-.38.15-.76.22-1.14.22h.03Z"/>
    <path class="cls-2" d="m92.75,14.02c-.29,0-.49-.07-.61-.22-.12-.15-.18-.4-.2-.75l.09-.1c.31.08.62.12.94.12.35,0,.66-.06.94-.18s.5-.28.66-.48.24-.43.24-.67c0-.35-.15-.62-.45-.78-.3-.17-.78-.25-1.42-.26l-.08-.08-.07-.53.74-.17c.29-.13.52-.31.69-.53s.26-.46.26-.69-.08-.39-.23-.52-.34-.19-.58-.19c-.2,0-.41.05-.65.15s-.44.24-.62.41h-.13l-.16-.62s.11-.09.24-.18.29-.18.48-.28c.19-.1.39-.19.61-.26.22-.08.43-.11.63-.11.47,0,.84.12,1.13.35.28.23.42.55.42.94,0,.31-.11.61-.34.89-.23.28-.53.52-.91.7v.07c.51.13.9.31,1.16.56s.39.54.39.88c0,.3-.09.6-.28.9-.19.3-.44.57-.75.82s-.66.44-1.04.59c-.38.15-.76.22-1.15.22h.05Z"/>
    <path class="cls-2" d="m97.37,14.39l-.04-.08.08-.48,1.24-.25v-7.2l-1.27-.25-.04-.09.07-.46,2.23.12c-.02.44-.03.83-.04,1.17s-.02.71-.04,1.1c-.02.39-.03.76-.03,1.12s-.01.65-.01.87,0,.52.01.87c0,.36.02.73.03,1.12.01.39.02.77.04,1.12.02.35.03.75.05,1.18l-2.26.12-.02.02Z"/>
  </g>
</svg>