<?xml version="1.0" encoding="UTF-8"?>
<svg id="_图层_2" data-name=" 图层 2" xmlns="http://www.w3.org/2000/svg" viewBox="0 0 119.77 20.55">
  <defs>
    <style>
      .cls-1 {
        fill: #fff;
        stroke: #000;
        stroke-miterlimit: 10;
        stroke-width: .71px;
      }

      .cls-2 {
        fill: #231815;
        stroke-width: 0px;
      }
    </style>
  </defs>
  <rect class="cls-1" x=".35" y=".35" width="119.06" height="19.84"/>
  <g>
    <path class="cls-2" d="m21.59,9.45c-.17-.5-.33-.99-.49-1.46s-.32-.93-.48-1.36c-.16-.44-.3-.85-.43-1.23h-.06s0,.11-.02.27c-.01.16-.03.35-.04.58-.02.23-.04.48-.06.74-.02.26-.04.51-.06.75-.02.24-.03.44-.04.6,0,.16-.02.26-.02.3,0,.17.09.25.26.25h.3l.02.04-.08.42h-.19c-.11,0-.22-.01-.34-.02h-.55c-.08,0-.16.01-.24.02-.08,0-.16.02-.26.03l.05-.44c.16-.02.28-.07.36-.15.07-.08.12-.23.14-.45,0-.07.03-.2.05-.39s.04-.4.07-.64c.02-.24.05-.49.07-.74s.05-.49.07-.72c.02-.23.04-.42.06-.58.01-.16.02-.25.02-.28,0-.1-.02-.17-.06-.23-.04-.06-.11-.1-.2-.13s-.22-.05-.38-.06l-.03-.05.06-.36h.24c.12,0,.24.01.37.02.13,0,.24.01.32.01h.27c.1,0,.18-.01.26-.02h.16c.15.5.29.97.43,1.4s.26.81.38,1.14.2.59.27.79.11.32.12.36h.05s.05-.16.12-.36c.07-.2.17-.47.28-.8s.24-.71.39-1.13c.14-.43.3-.89.46-1.38h.72c.09,0,.19,0,.32-.01s.25-.02.35-.02.16-.01.18-.01l.02.03-.05.38c-.23.02-.39.06-.48.13-.09.06-.13.17-.13.3,0,.06,0,.17.01.34s.02.36.04.6c.02.23.03.48.05.74.02.26.04.52.06.78s.04.49.05.7c.03.3.07.5.12.6.05.1.14.15.26.15h.22l.02.04-.07.42h-.15c-.09,0-.19,0-.31-.01h-.61c-.11,0-.21.01-.32.02-.1,0-.19.02-.26.02h-.11l.05-.44c.16-.02.28-.06.35-.12.07-.06.11-.15.11-.28,0-.04,0-.14-.02-.3-.01-.16-.02-.35-.04-.57-.02-.22-.03-.45-.05-.7-.02-.25-.04-.48-.05-.7-.02-.22-.03-.41-.04-.57s-.02-.26-.02-.3h-.06c-.1.28-.21.58-.32.9s-.23.64-.35.98c-.12.34-.25.69-.37,1.04s-.25.71-.37,1.07l-.35.06h-.02Z"/>
    <path class="cls-2" d="m28.24,9.4c-.58,0-1.03-.15-1.33-.45-.31-.3-.46-.73-.46-1.3v-2.61c0-.17-.02-.29-.05-.34s-.11-.09-.23-.09c-.05,0-.13,0-.26.02l-.02-.03.06-.42c.24.01.44.02.59.02h.42c.08,0,.17,0,.28-.01s.2-.01.29-.02c.09,0,.2-.02.32-.03l-.05.44c-.18.02-.31.06-.37.12-.07.06-.1.17-.11.32l-.06,2.34c0,.47.1.84.31,1.1s.5.38.88.38.68-.1.88-.31c.2-.21.3-.51.3-.91v-.47c0-.21,0-.43-.01-.67,0-.24,0-.47-.01-.68,0-.22,0-.46-.01-.75-.01-.18-.03-.3-.06-.35s-.1-.08-.22-.08c-.05,0-.15,0-.31.02l-.02-.03.06-.42c.13,0,.24,0,.34.01s.2,0,.3,0h.27c.13,0,.26,0,.39-.01.13,0,.29-.03.47-.05l-.04.43c-.21.04-.35.08-.42.13s-.1.15-.1.31v2.6c0,.58-.17,1.02-.52,1.33s-.85.47-1.49.47h0Z"/>
    <path class="cls-2" d="m33.18,9.4c-.27,0-.5-.02-.7-.07s-.41-.12-.63-.22l-.05-.09c.02-.15.04-.29.05-.42s.03-.27.04-.44.02-.34.02-.52l.49-.04c0,.34.03.6.08.79.05.18.15.31.29.38s.34.1.6.1c.29,0,.53-.07.71-.21s.28-.33.28-.56c0-.17-.06-.31-.18-.42s-.27-.23-.45-.33-.37-.2-.58-.3c-.21-.11-.42-.22-.62-.35s-.36-.28-.48-.45c-.12-.17-.19-.38-.19-.62,0-.3.08-.56.26-.79.17-.23.4-.41.7-.54s.63-.2,1.01-.2c.25,0,.47.02.66.05s.4.08.62.16l.03.07c-.05.25-.08.47-.11.68s-.05.43-.07.68l-.43.04-.06-.05c.02-.13.02-.25.02-.36,0-.26-.07-.44-.2-.55-.13-.1-.36-.16-.68-.16-.26,0-.48.07-.65.2-.17.13-.26.29-.26.49,0,.15.05.28.15.4.1.12.23.22.4.32s.34.19.52.28c.23.11.46.23.68.37.22.13.41.29.56.46.15.17.22.39.22.64,0,.31-.09.59-.26.83s-.42.42-.73.56c-.31.13-.68.2-1.09.2h.03Z"/>
    <path class="cls-2" d="m36.49,9.39l.05-.44c.23-.03.39-.1.48-.19.08-.1.13-.26.13-.49v-3.22c0-.17,0-.29-.04-.34s-.11-.09-.23-.09h-.12s-.1,0-.14.01l-.03-.05.06-.41h.38c.15,0,.3,0,.46.01s.3,0,.43,0h1.06c.3,0,.55-.02.77-.03s.41-.03.58-.06l.04.06c-.03.13-.05.28-.08.44-.03.16-.05.33-.06.49-.02.16-.03.31-.04.45l-.54.04s0-.11,0-.18v-.16c0-.12,0-.22-.03-.29-.02-.07-.07-.12-.14-.16s-.19-.06-.34-.07-.36-.02-.61-.02c-.16,0-.27,0-.34.02-.07.01-.11.04-.13.08s-.03.11-.04.2l-.08,1.81-.02,1.54c0,.14,0,.24.04.31.02.07.08.12.16.14s.21.03.38.03c.29,0,.52,0,.7-.03.18-.02.31-.06.4-.13.09-.06.16-.16.21-.29s.08-.3.11-.5l.5-.05.04.06c-.04.18-.08.41-.12.67-.04.27-.07.51-.1.74l-.06.06c-.3-.01-.61-.02-.93-.03-.31,0-.61-.01-.87-.02h-.65c-.18,0-.39,0-.62.02-.23.01-.44.03-.61.06h-.02Zm1.35-2.38l.06-.59h.85c.09,0,.23,0,.42-.02s.37-.03.54-.06l.04.06-.11.57c-.14,0-.32-.01-.54-.02h-.54c-.11,0-.23,0-.37.02-.13.01-.25.03-.35.04Z"/>
    <path class="cls-2" d="m43.82,9.4c-.58,0-1.03-.15-1.33-.45-.31-.3-.46-.73-.46-1.3v-2.61c0-.17-.02-.29-.05-.34s-.11-.09-.23-.09c-.05,0-.13,0-.26.02l-.02-.03.06-.42c.24.01.44.02.59.02h.42c.08,0,.17,0,.28-.01s.2-.01.29-.02c.09,0,.2-.02.32-.03l-.05.44c-.18.02-.31.06-.37.12-.07.06-.1.17-.11.32l-.06,2.34c0,.47.1.84.31,1.1.21.26.5.38.88.38s.68-.1.88-.31.3-.51.3-.91v-.47c0-.21,0-.43,0-.67,0-.24,0-.47,0-.68,0-.22,0-.46,0-.75,0-.18-.03-.3-.06-.35s-.1-.08-.22-.08c-.05,0-.15,0-.31.02l-.02-.03.06-.42c.13,0,.24,0,.34.01s.2,0,.3,0h.27c.13,0,.26,0,.39-.01.13,0,.29-.03.47-.05l-.04.43c-.21.04-.35.08-.42.13s-.1.15-.1.31v2.6c0,.58-.17,1.02-.52,1.33-.35.31-.85.47-1.49.47h-.01Z"/>
    <path class="cls-2" d="m50.08,9.45c-.17-.5-.33-.99-.49-1.46s-.32-.93-.48-1.36c-.16-.44-.3-.85-.43-1.23h-.06s0,.11-.02.27-.03.35-.04.58c-.02.23-.04.48-.06.74s-.04.51-.06.75-.03.44-.04.6c0,.16-.02.26-.02.3,0,.17.08.25.26.25h.3l.02.04-.08.42h-.19c-.11,0-.22-.01-.34-.02h-.55c-.08,0-.16.01-.24.02-.08,0-.16.02-.26.03l.05-.44c.17-.02.28-.07.36-.15.07-.08.12-.23.14-.45,0-.07.03-.2.05-.39s.04-.4.07-.64c.02-.24.05-.49.07-.74s.05-.49.07-.72c.02-.23.04-.42.06-.58,0-.16.02-.25.02-.28,0-.1-.02-.17-.06-.23s-.11-.1-.21-.13c-.09-.03-.22-.05-.38-.06l-.03-.05.06-.36h.24c.12,0,.24.01.37.02.13,0,.24.01.32.01h.27c.1,0,.18-.01.26-.02h.16c.15.5.29.97.43,1.4s.26.81.38,1.14c.11.33.2.59.27.79s.11.32.12.36h.05s.05-.16.12-.36.17-.47.28-.8c.12-.33.24-.71.39-1.13s.3-.89.46-1.38h.72c.08,0,.19,0,.32-.01s.25-.02.35-.02.16-.01.18-.01l.02.03-.05.38c-.23.02-.39.06-.48.13-.09.06-.14.17-.14.3,0,.06,0,.17,0,.34,0,.17.02.36.04.6.02.23.03.48.05.74s.04.52.05.78c.02.26.04.49.05.7.03.3.07.5.12.6s.14.15.26.15h.22l.02.04-.07.42h-.15c-.09,0-.2,0-.31-.01s-.22,0-.31,0h-.29c-.11,0-.21.01-.32.02-.1,0-.19.02-.26.02h-.11l.05-.44c.16-.02.28-.06.35-.12.07-.06.11-.15.11-.28,0-.04,0-.14-.02-.3s-.02-.35-.04-.57c-.02-.22-.03-.45-.05-.7s-.04-.48-.05-.7c-.02-.22-.03-.41-.04-.57,0-.16-.02-.26-.02-.3h-.06c-.1.28-.21.58-.32.9s-.23.64-.35.98c-.12.34-.24.69-.37,1.04-.12.35-.25.71-.37,1.07l-.35.06h0Z"/>
    <path class="cls-2" d="m58.58,9.4c-.45,0-.85-.1-1.18-.31-.34-.21-.6-.5-.78-.87s-.28-.81-.28-1.32c0-.41.06-.78.19-1.12.13-.34.31-.64.55-.89s.52-.45.84-.59.67-.21,1.05-.21c.47,0,.88.1,1.22.31s.61.49.8.86.28.81.28,1.31c0,.41-.07.79-.2,1.13-.13.34-.32.64-.56.89s-.52.45-.84.59c-.33.14-.68.21-1.07.21h-.02Zm.23-.53c.3,0,.57-.08.79-.24s.39-.38.52-.67.19-.63.19-1.02c0-.47-.07-.87-.2-1.2-.13-.33-.32-.59-.56-.77s-.52-.27-.84-.27c-.29,0-.55.08-.77.24s-.39.38-.51.66c-.12.29-.18.62-.18,1.01,0,.46.06.86.19,1.2s.31.6.54.78c.23.18.51.28.82.28h.01Z"/>
    <path class="cls-2" d="m62.36,8.95c.24-.04.41-.11.49-.21s.12-.26.12-.48v-3.22c0-.17,0-.29-.04-.34s-.11-.09-.23-.09c-.05,0-.14,0-.26.02l-.03-.05.06-.41c.16,0,.3,0,.43.01h1.79c.27,0,.52-.02.74-.03s.4-.03.56-.06l.04.06c-.04.26-.08.5-.11.71s-.05.44-.07.69l-.53.04c.01-.18.02-.3.02-.35,0-.17-.02-.29-.06-.36-.04-.08-.13-.12-.27-.15-.14-.02-.35-.04-.64-.04-.16,0-.27,0-.34.02-.07.01-.11.04-.13.08s-.03.11-.04.2l-.06,1.55h.79c.09,0,.19,0,.32-.01s.3-.03.52-.06l.05.06-.11.57c-.22-.01-.4-.02-.56-.02h-.41c-.12,0-.23,0-.34.02-.11.01-.2.03-.27.04l-.02,1.17c0,.21.02.35.07.42s.14.11.28.11h.22c.09,0,.2-.01.33-.02l.03.06-.07.48c-.18,0-.33-.01-.46-.02-.13,0-.26,0-.4-.01h-.36c-.17,0-.33,0-.5.02s-.36.04-.58.07l.05-.45-.02-.02Z"/>
    <path class="cls-2" d="m71.03,9.32l.03-.38c.18-.02.32-.04.42-.06s.16-.05.2-.08.06-.09.06-.16c0-.04,0-.09-.01-.15s-.02-.12-.04-.18l-.22-.76h-.79c-.14,0-.29,0-.45.02-.16.01-.28.03-.37.04l-.26.74c-.04.13-.06.22-.06.28,0,.11.03.18.1.23.07.04.18.07.33.07h.41l.02.04-.05.41c-.24-.02-.44-.03-.62-.04-.18,0-.35-.01-.52-.01h-.42c-.14,0-.31,0-.5.02l.06-.44c.14-.02.25-.07.34-.16.08-.08.17-.23.24-.43l1.5-4.07.83-.14.07.02c.08.26.14.51.21.73.06.23.13.48.21.77s.17.59.26.9.18.63.28.94c.09.31.18.6.27.87.06.19.15.33.25.41s.26.13.46.15l.02.04-.06.39c-.22-.01-.4-.02-.54-.02h-.37c-.21,0-.41,0-.6.02-.2.01-.41.03-.65.05l-.03-.06h0Zm-1.02-2.25h.65c.1,0,.21,0,.34-.01.13,0,.24-.01.33-.02l-.55-1.95h-.08s-.69,1.98-.69,1.98Z"/>
    <path class="cls-2" d="m77.71,9.43c-.15,0-.3-.07-.45-.2s-.29-.32-.42-.55l-.78-1.49h-.62l-.02,1.06c0,.19.01.33.04.42s.08.15.16.18c.08.03.21.04.38.05l.02.03-.07.41c-.13,0-.24,0-.34-.01s-.2,0-.3,0h-.75c-.16,0-.35.02-.56.03l.07-.44c.24-.03.4-.08.48-.17.08-.08.12-.24.12-.47v-3.24c0-.16,0-.27-.05-.33-.04-.06-.11-.09-.22-.09-.05,0-.14,0-.27.02l-.03-.04.06-.42c.13,0,.25,0,.35.01h.87c.12,0,.24,0,.36-.01.12,0,.27-.01.43-.02.54,0,.97.11,1.27.34.3.23.46.55.46.96,0,.31-.1.6-.29.87-.2.27-.47.49-.84.66l.8,1.28c.16.25.3.42.44.53s.31.16.51.16l.04.05-.06.34-.79.09h0Zm-1.46-2.72s.07-.04.15-.07c.08-.04.17-.1.27-.18s.18-.19.26-.33c.07-.14.11-.31.11-.53,0-.33-.11-.57-.33-.73s-.56-.24-1.01-.24c-.05,0-.09.01-.11.04-.02.02-.03.07-.04.15-.02.38-.04.71-.05.99-.01.28-.02.56-.03.82,0,0,.78.08.78.08Z"/>
    <path class="cls-2" d="m79.95,9.35l.06-.42c.25-.02.42-.05.54-.1.11-.04.18-.13.22-.25.03-.12.05-.31.05-.57v-3.36c-.27,0-.48.02-.64.04s-.27.06-.35.13c-.08.06-.13.16-.17.3-.03.14-.06.32-.09.56l-.5.04c.02-.17.04-.35.05-.53.01-.18.03-.36.04-.54s.02-.33.02-.47l.08-.07.72.09h2.49l.74-.09.08.07c0,.15.01.31.02.49s.02.36.04.53c.02.17.03.33.05.48l-.5.04c-.03-.25-.07-.44-.1-.58-.04-.14-.09-.24-.16-.31-.07-.07-.18-.11-.32-.13s-.34-.04-.59-.05c-.02.17-.03.4-.04.69s-.02.6-.03.95-.02.7-.02,1.05-.01.69-.01,1c0,.2.03.34.1.42s.18.12.34.12c.14,0,.29,0,.43-.02l.02.04-.07.45c-.12-.01-.27-.02-.43-.02h-1.18c-.13,0-.28,0-.44.02-.15,0-.29.01-.42.02l-.03-.02Z"/>
    <path class="cls-2" d="m34.41,17.97l.06-.44c.23-.04.38-.11.46-.19.08-.09.11-.24.11-.47v-3.22c0-.17,0-.29-.05-.34s-.11-.09-.22-.09c-.05,0-.14,0-.27.02l-.03-.04.06-.41h1.21c.12,0,.24,0,.37-.01.13,0,.28-.01.46-.02.32,0,.59.03.82.1.23.07.41.17.56.3s.25.29.32.47.1.38.1.59c0,.24-.05.46-.15.67-.1.21-.24.4-.42.57-.18.17-.38.3-.6.4-.22.1-.45.14-.7.14h-.68v.7c0,.22,0,.38.02.5.02.11.05.18.1.22.05.03.13.05.23.05.08,0,.21,0,.4-.02l.02.04-.07.43c-.12,0-.23,0-.32-.01h-.9c-.14,0-.28.01-.41.02-.13,0-.24.01-.33.02s-.13.01-.14.02h-.01Zm2.22-2.42c.58-.11.86-.5.86-1.18,0-.38-.11-.66-.33-.83-.22-.18-.56-.26-1.03-.26-.09,0-.15,0-.16.02-.02.01-.03.05-.04.11-.02.33-.04.66-.05,1.02-.02.35-.03.69-.04,1.02l.79.11h0Z"/>
    <path class="cls-2" d="m41.46,18c-.58,0-1.03-.15-1.33-.45-.31-.3-.46-.73-.46-1.3v-2.61c0-.17-.02-.29-.05-.34s-.11-.09-.23-.09c-.05,0-.14,0-.26.02l-.02-.03.06-.42c.24.01.44.02.59.02h.42c.08,0,.17,0,.28-.01s.2-.01.29-.02c.09,0,.2-.02.32-.03l-.05.44c-.18.02-.31.06-.37.12-.07.06-.1.17-.11.32l-.06,2.34c0,.48.1.84.31,1.1.21.26.5.38.88.38s.68-.1.88-.31.3-.51.3-.91v-.47c0-.21,0-.43,0-.67,0-.24,0-.47,0-.68,0-.22,0-.47,0-.75,0-.18-.03-.3-.06-.35-.03-.05-.1-.08-.22-.08-.05,0-.15,0-.31.02l-.02-.03.06-.42c.13,0,.24,0,.34.01h.57c.13,0,.26,0,.39-.01s.29-.03.47-.05l-.04.43c-.21.04-.35.08-.42.13s-.1.15-.1.31v2.6c0,.58-.17,1.02-.52,1.33-.35.31-.85.47-1.49.47h-.01Z"/>
    <path class="cls-2" d="m47.18,18c-.16-.02-.3-.04-.42-.05s-.25-.02-.39-.03-.26-.02-.36-.02c-.13,0-.27,0-.42.02-.15.02-.33.04-.54.06l.05-.44c.24-.05.4-.12.48-.21.08-.09.12-.25.12-.48v-3.22c0-.17,0-.29-.04-.34-.04-.06-.11-.09-.22-.09-.05,0-.14,0-.27.02l-.03-.05.06-.42c.13,0,.24,0,.34.01h.91c.14,0,.28,0,.41-.01.14,0,.3-.01.48-.02.53,0,.99.1,1.38.29s.69.47.91.83.32.78.32,1.27c0,.41-.07.79-.21,1.13-.14.34-.33.65-.58.9-.25.26-.54.46-.88.6-.34.14-.7.21-1.1.21v.04Zm-.34-4.72c-.1,0-.17.01-.2.03-.04.02-.05.07-.06.15-.03.81-.06,1.51-.08,2.09-.02.58-.03,1-.03,1.26,0,.17.02.3.07.4s.13.16.26.2c.13.04.3.06.53.06.53,0,.94-.18,1.23-.55.29-.37.44-.88.44-1.56,0-.46-.08-.85-.24-1.16-.16-.31-.4-.54-.72-.7-.32-.15-.72-.23-1.19-.23h0Z"/>
    <path class="cls-2" d="m53.17,18c-.45,0-.85-.1-1.18-.31s-.6-.5-.78-.87-.28-.81-.28-1.32c0-.41.06-.78.19-1.12.13-.34.31-.64.55-.89.24-.25.52-.45.84-.59s.67-.21,1.05-.21c.47,0,.88.1,1.22.31s.61.49.8.86.28.81.28,1.31c0,.41-.07.79-.2,1.13-.13.34-.32.64-.56.89s-.52.45-.84.59c-.33.14-.68.21-1.07.21h-.02Zm.23-.53c.3,0,.57-.08.79-.24s.39-.38.52-.67.19-.63.19-1.02c0-.47-.07-.87-.2-1.2s-.32-.59-.56-.77c-.24-.18-.52-.27-.84-.27-.29,0-.55.08-.77.24s-.39.38-.51.66c-.12.29-.18.62-.18,1.01,0,.46.06.86.19,1.2.13.34.31.6.54.78s.51.28.82.28h.01Z"/>
    <path class="cls-2" d="m60.91,18.18c-.35-.56-.69-1.08-1.02-1.57s-.61-.92-.86-1.28-.52-.76-.82-1.18h-.06l-.03,3.01c0,.12.03.21.06.26.04.05.1.08.2.08h.38l.02.04-.07.42c-.13,0-.24-.01-.34-.02-.1,0-.2,0-.3-.01h-.29c-.12,0-.25,0-.38.02s-.29.03-.47.05l.05-.44c.17-.02.29-.07.36-.14.08-.08.12-.2.12-.36l.1-3.35c0-.17-.05-.29-.14-.36s-.27-.11-.54-.14l-.03-.06.05-.37c.18.01.33.02.46.03.12,0,.23.01.34.01h.3c.1,0,.21-.01.34-.02.25.38.49.75.72,1.11s.46.7.66,1.01c.21.31.39.58.56.82.16.23.33.48.52.74h.06v-2.87c0-.12-.03-.21-.07-.26s-.11-.08-.2-.08h-.29l-.02-.05.06-.42c.12,0,.23.01.32.02.09,0,.19,0,.29.01h.27c.12,0,.24,0,.38-.01.13,0,.29-.02.48-.04l-.04.44c-.18.02-.31.07-.4.15-.08.08-.13.2-.13.35l-.11,4.39-.5.1v-.03Z"/>
    <path class="cls-2" d="m65.33,18c-.48,0-.9-.1-1.26-.3-.35-.2-.62-.49-.82-.86-.19-.37-.29-.82-.29-1.33,0-.57.12-1.07.35-1.48s.56-.74.98-.98c.42-.23.92-.35,1.49-.35.17,0,.35,0,.53.03s.35.04.51.07.33.06.53.1l.04.07c-.05.25-.1.48-.13.69s-.06.44-.08.7l-.55.04c.02-.18.02-.32.02-.43,0-.24-.08-.41-.25-.51s-.43-.15-.81-.15-.68.07-.94.22c-.26.15-.45.37-.58.66-.13.29-.2.65-.2,1.07,0,.46.07.85.2,1.18s.32.58.56.76.53.26.86.26c.19,0,.36-.02.5-.06s.3-.11.46-.2v-.87c0-.17-.03-.28-.08-.34s-.16-.08-.32-.08h-.5l-.02-.05.07-.47h.21c.11,0,.24,0,.39.01s.3,0,.46,0h.35c.11,0,.24-.02.38-.03l.05.24c-.08.05-.14.12-.18.22-.04.09-.07.22-.08.38-.02.16-.02.39-.02.67,0,.14,0,.28.02.4,0,.12.02.23.04.3l-.06.08c-.32.12-.62.21-.9.26-.28.06-.6.09-.96.09h.03Z"/>
  </g>
  <g>
    <path class="cls-2" d="m89.94,15.2l-2.22-.12c.01-.44.03-.83.04-1.17.02-.34.03-.71.04-1.1s.02-.76.03-1.12.01-.65.01-.87,0-.52-.01-.87-.02-.73-.03-1.13c-.01-.4-.02-.77-.04-1.12-.01-.35-.03-.74-.04-1.18l2.25-.12.04.08-.07.48-1.25.25v7.2l1.27.25.04.09-.07.46h.01Z"/>
    <path class="cls-2" d="m91.34,13.2c.27-.02.48-.07.63-.14.15-.07.25-.19.31-.35.06-.16.08-.39.08-.69v-2.53c0-.28-.05-.46-.15-.53-.1-.08-.25-.11-.45-.11-.11,0-.31.02-.59.07l-.04-.06.06-.54s.12-.02.26-.03c.14-.01.3-.04.48-.06.19-.03.37-.05.55-.07.38-.06.66-.11.84-.14.19-.03.34-.06.47-.08l.09.25c-.14.11-.23.23-.29.36-.06.12-.1.32-.12.57-.02.36-.04.73-.06,1.13-.01.4-.02.78-.03,1.14s0,.68,0,.94c0,.29.04.49.11.59.08.11.21.17.42.17.14,0,.33-.01.58-.03l.02.06-.11.62c-.21-.01-.4-.02-.56-.03-.16,0-.33,0-.52-.01h-.48c-.16,0-.33,0-.51.02s-.35.03-.51.05c-.16.01-.34.04-.56.07l.08-.61v-.03Z"/>
    <path class="cls-2" d="m96.34,14.84c-.29,0-.49-.07-.61-.22-.12-.15-.18-.4-.2-.75l.09-.1c.31.08.62.12.94.12.35,0,.66-.06.94-.18s.5-.28.66-.48.24-.42.24-.67c0-.36-.15-.62-.45-.78-.3-.17-.77-.25-1.42-.26l-.08-.08-.07-.53.74-.17c.29-.13.52-.31.69-.53s.26-.46.26-.69-.08-.39-.23-.52-.34-.19-.58-.19c-.2,0-.41.05-.65.15-.23.1-.44.24-.62.41h-.13l-.16-.62s.11-.09.24-.18.29-.18.48-.28c.19-.1.39-.19.61-.26.22-.08.43-.11.63-.11.47,0,.84.12,1.13.35.28.23.42.55.42.94,0,.31-.11.61-.34.89-.23.28-.53.52-.91.7v.07c.51.13.9.31,1.16.56s.39.54.39.88c0,.3-.09.6-.28.9-.19.3-.44.57-.75.82s-.66.44-1.04.59c-.38.15-.76.22-1.15.22h.05Z"/>
    <path class="cls-2" d="m101.65,14.84l-.1-.06-.16-.46c.96-.42,1.7-.96,2.21-1.64s.77-1.45.77-2.31c0-.54-.11-.96-.32-1.27-.22-.31-.51-.46-.89-.46-.34,0-.6.11-.79.33s-.28.53-.28.92c0,.26.05.49.16.69s.25.37.44.49.39.18.62.18c.18,0,.38-.05.61-.14s.42-.21.58-.35l-.23.9-.16-.11c-.26.15-.49.27-.69.36s-.35.14-.46.15c-.37,0-.7-.08-.99-.24s-.52-.39-.69-.67c-.17-.29-.26-.61-.26-.96,0-.44.1-.82.3-1.16.2-.33.48-.59.83-.79.36-.19.76-.29,1.21-.29.42,0,.78.1,1.1.3s.57.48.74.84c.18.36.27.78.27,1.26s-.09.98-.27,1.43c-.18.46-.43.88-.76,1.28-.33.39-.74.74-1.21,1.05s-1,.56-1.59.75v-.02Z"/>
    <path class="cls-2" d="m106.73,15.2l-.05-.08.08-.48,1.24-.25v-7.2l-1.27-.25-.05-.09.07-.46,2.23.12c-.01.44-.03.83-.04,1.17s-.03.71-.04,1.1c-.02.39-.03.76-.03,1.12s-.01.65-.01.87,0,.52.01.87c0,.36.02.73.03,1.12s.02.76.04,1.12c.01.35.03.75.04,1.19l-2.26.12h.01Z"/>
  </g>
</svg>