<?xml version="1.0" encoding="UTF-8"?>
<svg id="_图层_2" data-name=" 图层 2" xmlns="http://www.w3.org/2000/svg" viewBox="0 0 119.77 20.55">
  <defs>
    <style>
      .cls-1 {
        fill: #fff;
        stroke: #000;
        stroke-miterlimit: 10;
        stroke-width: .71px;
      }

      .cls-2 {
        fill: #231815;
        stroke-width: 0px;
      }
    </style>
  </defs>
  <rect class="cls-1" x=".35" y=".35" width="119.06" height="19.84"/>
  <g>
    <path class="cls-2" d="m25.93,13.46c-.16,0-.32,0-.49.02-.17.01-.32.03-.47.04s-.31.03-.49.06l.07-.62c.35-.07.58-.17.69-.29.11-.13.17-.34.17-.65v-4.61c.01-.23-.01-.39-.07-.48-.05-.08-.16-.12-.32-.12-.07,0-.2,0-.38.02l-.05-.06.09-.59c.2,0,.38.01.54.02.15,0,.31,0,.46.01h.7c.12,0,.25,0,.39-.01.14,0,.27,0,.39-.02.12,0,.26-.02.41-.02.75,0,1.32.15,1.72.45.4.3.59.73.59,1.3,0,.38-.11.72-.34,1.01s-.54.54-.93.72c.34.08.63.19.88.35.25.16.44.35.58.58s.21.49.21.78c0,.42-.12.79-.36,1.13s-.58.6-1,.8-.9.29-1.43.29c-.11,0-.23,0-.36-.02-.14-.01-.27-.02-.41-.04-.14-.02-.27-.03-.41-.04s-.28-.02-.4-.02h.02Zm.62-3.29l-.06,1.92c0,.26.09.45.28.57s.49.17.92.17.74-.12.98-.35c.24-.23.36-.55.36-.95,0-.75-.46-1.21-1.37-1.38l-1.11.02Zm.02-.78c.2.01.37.03.51.05s.28.03.4.04c.12,0,.21.01.26.01.19-.08.35-.17.47-.27.12-.1.23-.23.33-.41.09-.17.14-.4.14-.68,0-.44-.15-.76-.44-.98-.29-.21-.75-.32-1.37-.32-.08,0-.13.02-.15.05-.03.03-.04.1-.05.2-.02.22-.03.46-.04.73-.01.27-.02.54-.03.8s-.02.52-.02.77h0Z"/>
    <path class="cls-2" d="m32.13,12.95c.29-.04.5-.14.61-.27.11-.14.17-.37.17-.69v-4.57c0-.24-.03-.4-.08-.49s-.16-.12-.33-.12c-.07,0-.19,0-.36.02l-.04-.07.08-.57h.31c.16,0,.34,0,.54.01h.53c.13,0,.27,0,.44-.02s.32-.02.48-.03c.15,0,.33-.02.54-.04l-.06.63c-.26.02-.44.07-.54.13-.11.06-.17.16-.19.29-.02.13-.04.31-.07.53-.03.45-.05.93-.07,1.44s-.03,1.02-.05,1.51c0,.49-.02.94-.02,1.34,0,.23.02.4.06.51.04.11.12.19.24.23.12.04.31.06.56.06.3,0,.55-.02.74-.06.19-.04.34-.12.45-.24s.21-.29.28-.5c.07-.22.13-.51.19-.86l.69-.07.06.08c-.08.44-.14.83-.18,1.18s-.09.74-.14,1.15l-.08.09c-.42-.02-.79-.04-1.11-.05-.33-.01-.67-.02-1.02-.03-.36-.01-.68-.02-.97-.02s-.58,0-.84.03c-.26.02-.55.05-.86.08l.07-.62h-.03Z"/>
    <path class="cls-2" d="m38.39,13.58l.07-.61c.35-.07.58-.17.7-.3s.18-.36.18-.67v-4.58c0-.24-.02-.4-.07-.49s-.17-.12-.33-.12h-.21c-.09,0-.16,0-.23.02l-.03-.07.08-.57c.22,0,.47,0,.74.01.28,0,.51.01.71.01.15,0,.36,0,.62-.03.26-.02.54-.04.82-.06l-.06.61c-.3.04-.5.1-.61.18-.1.08-.16.23-.18.45-.02.39-.04.81-.06,1.25s-.03.88-.04,1.31c0,.43-.02.84-.03,1.21,0,.38,0,.69,0,.95,0,.3.03.51.1.61.06.11.19.16.37.16.1,0,.2,0,.3-.01.1,0,.19-.02.26-.02l.03.06-.1.61c-.15,0-.33-.01-.52-.02-.2,0-.39,0-.58-.01h-.46c-.17,0-.39.01-.66.03-.26.02-.52.05-.77.09h-.03Z"/>
    <path class="cls-2" d="m48.76,13.84c-.5-.79-.98-1.54-1.44-2.23s-.87-1.3-1.22-1.82c-.36-.52-.74-1.08-1.16-1.68h-.08l-.04,4.26c0,.17.04.3.09.37s.15.11.28.11h.55l.03.06-.1.6c-.18,0-.34-.01-.48-.02s-.28-.01-.43-.02h-.41c-.17,0-.35,0-.54.02-.19.01-.41.04-.66.07l.07-.62c.23-.03.41-.1.52-.2.11-.11.17-.28.18-.51l.15-4.75c0-.24-.07-.41-.2-.5s-.39-.16-.77-.2l-.05-.08.08-.52c.26.02.47.03.65.04s.33.02.48.02.28,0,.42-.01.29-.02.48-.03c.35.54.69,1.06,1.02,1.57s.65.99.94,1.43c.29.44.56.83.79,1.16s.47.68.73,1.05h.08v-4.07c0-.17-.04-.3-.1-.37s-.16-.11-.28-.11h-.41l-.03-.07.09-.59c.17,0,.33.02.46.02s.27.01.41.02h.38c.17,0,.34,0,.53-.02.19-.01.42-.03.68-.06l-.06.62c-.26.03-.44.1-.56.21-.12.11-.18.28-.19.5l-.16,6.23-.7.15-.02-.03Z"/>
    <path class="cls-2" d="m54.88,13.59c-.23-.03-.43-.05-.6-.07-.17-.01-.36-.03-.55-.04-.19-.02-.37-.02-.52-.02-.19,0-.39.01-.6.03-.21.02-.46.05-.76.09l.07-.62c.34-.07.57-.17.68-.3s.17-.36.17-.67v-4.56c0-.24,0-.4-.06-.49-.05-.08-.15-.12-.31-.12-.08,0-.21,0-.39.02l-.04-.07.09-.59c.18,0,.34.01.48.02.14,0,.28,0,.43.01h.87c.2,0,.39,0,.58-.02.19,0,.42-.01.69-.02.76,0,1.41.14,1.96.41s.98.67,1.29,1.18.46,1.11.46,1.8c0,.58-.1,1.12-.29,1.6-.2.49-.47.91-.83,1.28s-.77.65-1.25.85-1,.3-1.56.3h0Zm-.48-6.69c-.14,0-.24.01-.29.04s-.08.1-.08.22c-.05,1.15-.08,2.14-.11,2.96s-.05,1.42-.05,1.78c0,.24.04.43.1.57.07.14.19.23.37.29s.43.08.75.08c.75,0,1.33-.26,1.74-.78.41-.52.62-1.25.62-2.21,0-.66-.11-1.21-.34-1.64-.23-.44-.57-.77-1.02-.99-.45-.22-1.02-.33-1.69-.33h0Z"/>
    <path class="cls-2" d="m60.34,13.57l.07-.62c.33-.04.56-.14.68-.27.12-.14.18-.37.18-.69v-4.57c0-.24,0-.4-.06-.49s-.16-.12-.32-.12h-.18c-.08,0-.14,0-.2.02l-.05-.07.09-.58c.15,0,.33,0,.54.01.21,0,.42.01.65.02h.61c.58,0,1.08,0,1.5-.01.42,0,.79-.02,1.09-.05.31-.02.58-.05.83-.08l.06.09c-.04.19-.08.4-.11.63-.04.23-.07.46-.09.69-.02.23-.04.44-.06.64l-.76.06c0-.07.01-.15.02-.25v-.23c0-.17-.02-.31-.05-.41-.03-.1-.1-.18-.2-.23-.11-.05-.27-.08-.48-.1-.21-.02-.5-.03-.87-.03-.22,0-.38,0-.48.02-.1.01-.16.05-.19.11s-.04.16-.05.28l-.11,2.56-.03,2.19c0,.2.02.34.05.44.03.1.11.16.22.19s.29.05.54.05c.41,0,.74-.02.99-.05s.44-.09.57-.18.23-.23.29-.41.12-.42.15-.71l.7-.07.06.08c-.06.26-.12.57-.18.95s-.1.73-.14,1.04l-.08.09c-.43-.02-.87-.03-1.32-.04-.45-.01-.86-.02-1.24-.03-.38,0-.68-.01-.92-.01-.26,0-.55,0-.88.03-.33.02-.62.05-.87.08l.03.03Zm1.92-3.37l.09-.84h1.19c.13,0,.33-.01.59-.03.27-.02.52-.05.77-.08l.06.08-.16.8c-.21,0-.46-.01-.76-.02-.3,0-.56-.01-.77-.01-.16,0-.33,0-.52.03-.19.02-.36.04-.5.06h.01Z"/>
    <path class="cls-2" d="m72.89,13.64c-.21,0-.42-.09-.63-.28s-.41-.45-.59-.78l-1.1-2.11h-.88l-.02,1.51c0,.26.02.46.05.59.03.13.11.21.23.25s.3.06.54.07l.02.04-.1.58c-.18,0-.34-.01-.48-.02-.14,0-.28,0-.43-.01h-1.07c-.22,0-.49.02-.8.05l.1-.62c.34-.04.56-.12.67-.24s.16-.34.16-.67v-4.59c.01-.23-.01-.38-.07-.46-.05-.08-.16-.12-.32-.12-.07,0-.2,0-.39.02l-.05-.06.09-.59c.19,0,.35.01.5.02s.29,0,.44.01.28,0,.39,0h.41c.17,0,.34,0,.52-.02.17,0,.38-.01.61-.02.77,0,1.37.16,1.8.48s.65.78.65,1.37c0,.45-.14.86-.41,1.24s-.67.69-1.18.93l1.13,1.81c.22.35.43.6.63.75s.44.23.72.23l.06.07-.08.48-1.12.12v-.03Zm-2.08-3.86s.09-.05.21-.1.25-.14.38-.25c.14-.11.26-.27.36-.46s.15-.45.15-.75c0-.46-.16-.81-.47-1.04s-.79-.35-1.43-.35c-.08,0-.13.02-.15.05-.03.03-.04.1-.05.21-.03.54-.06,1.01-.07,1.41-.02.4-.03.79-.04,1.17,0,0,1.11.11,1.11.11Z"/>
    <path class="cls-2" d="m80.66,14.39l-2.22-.12c.01-.44.03-.83.04-1.17s.03-.71.04-1.1.02-.76.03-1.12c0-.35.01-.65.01-.87s0-.52-.01-.87c0-.35-.02-.73-.03-1.13s-.02-.77-.04-1.12c-.02-.35-.03-.74-.04-1.18l2.24-.12.05.08-.07.48-1.25.25v7.2l1.27.25.05.09-.07.46h0Z"/>
    <path class="cls-2" d="m82.42,14.03c-.25,0-.44-.07-.57-.2s-.21-.39-.23-.78l.1-.1c.16.04.32.07.48.09s.31.03.46.03c.37,0,.7-.06.99-.17s.52-.27.69-.47.26-.43.26-.69c0-.23-.07-.43-.22-.59-.14-.16-.38-.29-.71-.41-.33-.11-.78-.22-1.34-.31l-.1-.12c.03-.35.06-.69.08-1.04s.05-.66.07-.94.04-.59.05-.92l.09-.09,2.17-.09c.22,0,.38-.04.48-.1.1-.06.18-.17.24-.34l.48-.04-.28,1.49-.1.09c-.44-.03-.84-.05-1.2-.07s-.76-.02-1.18-.02l-.09,1.26c.54.11,1.01.24,1.42.4.41.16.73.36.95.6s.34.54.34.89-.1.68-.31.99c-.2.31-.47.59-.8.84s-.69.45-1.08.59-.77.21-1.13.21h-.01Z"/>
    <path class="cls-2" d="m87.97,14.03c-.29,0-.49-.07-.61-.22-.12-.15-.18-.4-.2-.75l.09-.1c.31.08.62.12.94.12.35,0,.66-.06.94-.18s.5-.28.66-.48.24-.42.24-.67c0-.35-.15-.62-.45-.78-.3-.17-.77-.25-1.42-.26l-.08-.08-.07-.53.74-.17c.29-.13.52-.31.69-.53.17-.23.26-.46.26-.69s-.08-.39-.23-.52-.34-.19-.58-.19c-.2,0-.41.05-.65.15-.23.1-.44.24-.62.41h-.13l-.16-.62s.11-.09.24-.18.29-.18.48-.28c.19-.1.39-.19.61-.26.22-.08.43-.11.63-.11.47,0,.84.12,1.13.35.28.23.43.55.43.94,0,.31-.11.61-.34.89-.23.28-.53.52-.91.7v.07c.51.13.9.31,1.16.56.26.24.39.54.39.88,0,.3-.1.6-.28.9s-.44.57-.75.82-.66.44-1.04.59c-.38.15-.76.22-1.14.22h.03Z"/>
    <path class="cls-2" d="m92.58,14.39l-.05-.08.08-.48,1.24-.25v-7.2l-1.27-.25-.05-.09.07-.46,2.23.12c-.02.44-.03.83-.04,1.17s-.02.71-.04,1.1c-.01.39-.03.76-.03,1.12s-.01.65-.01.87,0,.52.01.87c0,.35.02.73.03,1.12.01.39.03.77.04,1.12s.03.75.05,1.18l-2.26.12v.02Z"/>
  </g>
</svg>