<?xml version="1.0" encoding="UTF-8"?>
<svg id="_图层_2" data-name=" 图层 2" xmlns="http://www.w3.org/2000/svg" viewBox="0 0 119.77 20.55">
  <defs>
    <style>
      .cls-1 {
        fill: #fff;
        stroke: #000;
        stroke-miterlimit: 10;
        stroke-width: .71px;
      }

      .cls-2 {
        fill: #231815;
        stroke-width: 0px;
      }
    </style>
  </defs>
  <rect class="cls-1" x=".35" y=".35" width="119.06" height="19.84"/>
  <g>
    <path class="cls-2" d="m18.12,13.55l.08-.62c.33-.06.54-.15.65-.27s.16-.34.16-.67v-4.57c.01-.24-.01-.4-.07-.49-.05-.08-.16-.12-.32-.12-.07,0-.2,0-.39.02l-.05-.06.09-.58h.29c.15,0,.33,0,.52.01h.9c.17,0,.34,0,.52-.02.18,0,.4-.02.65-.02.45,0,.84.05,1.16.15s.59.24.79.43c.21.19.36.41.46.67.1.26.15.54.15.84,0,.33-.07.65-.21.95s-.34.57-.59.81c-.25.24-.53.42-.84.56s-.64.2-.99.2h-.96v1c-.01.31,0,.54.02.7s.07.26.15.31.19.07.33.07c.11,0,.29-.01.57-.03l.02.06-.1.61c-.17,0-.32-.01-.45-.02-.13,0-.26,0-.4-.01h-.35c-.15,0-.33,0-.53.01-.2,0-.39.01-.58.02s-.35.02-.47.03-.19.02-.2.03h-.01Zm3.14-3.44c.82-.15,1.22-.71,1.22-1.67,0-.54-.16-.93-.46-1.18-.31-.25-.8-.37-1.46-.37-.13,0-.21,0-.23.02-.03.01-.04.07-.05.16-.03.46-.06.94-.08,1.44s-.04.98-.06,1.44c0,0,1.12.16,1.12.16Z"/>
    <path class="cls-2" d="m25.02,13.58l.08-.61c.34-.07.57-.17.68-.3s.17-.36.17-.67v-4.58c.01-.24-.02-.4-.07-.49-.05-.08-.17-.12-.34-.12h-.18c-.08,0-.13,0-.19.02l-.04-.07.09-.57c.18,0,.4,0,.66.01.26,0,.47.01.63.01s.36,0,.62-.03.53-.04.81-.06l-.05.61c-.2.03-.36.07-.45.12-.1.05-.16.14-.2.26-.04.12-.06.3-.07.54l-.07,1.75h1.71c.24.01.47,0,.7,0,.22-.01.5-.04.83-.07v-1.92c.01-.24-.01-.4-.07-.49-.05-.08-.17-.12-.34-.12h-.18c-.07,0-.13,0-.18.02l-.05-.07.08-.57h.29c.16,0,.33,0,.51.01h.46c.16,0,.38,0,.65-.03.28-.02.56-.04.85-.06l-.06.61c-.28.04-.46.1-.56.18-.09.08-.14.23-.16.45-.02.39-.04.81-.06,1.25-.02.44-.03.88-.04,1.32s-.02.84-.03,1.21c0,.38-.01.69-.01.95,0,.3.03.5.1.61.07.1.2.15.38.15.08,0,.16,0,.25-.01.09,0,.16-.01.21-.02l.05.06-.1.61c-.2,0-.46-.02-.75-.02s-.55-.01-.75-.01h-.93c-.18,0-.35,0-.5.01l.1-.61c.23,0,.4-.04.52-.1s.2-.17.25-.33c.04-.16.07-.39.07-.7v-1.6h-1.5c-.07,0-.2,0-.38.01-.19,0-.4.02-.65.04s-.48.04-.73.06l-.03,1.85c0,.3.03.51.1.61.06.11.19.16.37.16.08,0,.17,0,.26-.01.09,0,.16-.01.22-.02l.03.06-.1.61s-.13-.01-.27-.02c-.14,0-.3,0-.46-.01h-.41c-.21,0-.43,0-.69.02-.25.01-.48.03-.68.04-.2.02-.33.04-.39.06h0Z"/>
    <path class="cls-2" d="m37.29,13.48l.05-.54c.26-.03.45-.06.59-.08.14-.03.23-.07.28-.12s.08-.13.08-.23c0-.06,0-.13-.02-.21,0-.08-.03-.16-.06-.25l-.32-1.08c-.14,0-.32-.01-.55-.01h-.56c-.2,0-.42,0-.64.03-.22.02-.4.04-.53.05l-.36,1.04c-.06.18-.09.31-.09.4,0,.15.05.26.15.32.1.06.25.1.46.1h.58l.03.06-.07.58c-.33-.02-.62-.04-.87-.05s-.5-.02-.74-.02h-.6c-.2,0-.44.01-.71.03l.09-.62c.2-.03.35-.1.48-.22s.23-.32.34-.61l2.13-5.77,1.18-.19.1.03c.11.37.2.72.29,1.04s.19.69.3,1.09.23.84.36,1.28c.13.45.26.89.39,1.33s.26.85.38,1.23c.09.27.21.46.35.58.14.11.36.18.66.21l.03.06-.08.56c-.31-.02-.57-.02-.77-.03h-.53c-.29,0-.58,0-.86.03-.28.02-.58.04-.92.07l-.05-.08h.03Zm-1.45-3.19h.92c.14,0,.3,0,.49-.02.19-.01.34-.02.46-.03l-.78-2.77h-.11l-.98,2.81h0Z"/>
    <path class="cls-2" d="m46.77,13.64c-.21,0-.42-.09-.64-.28-.21-.19-.41-.45-.59-.78l-1.1-2.11h-.88l-.02,1.51c0,.26.02.46.05.59s.11.21.23.25.3.06.54.07l.02.05-.1.58c-.18,0-.34-.01-.48-.02s-.28,0-.43-.01h-1.07c-.22,0-.49.02-.8.04l.1-.62c.34-.04.57-.12.67-.24.11-.12.17-.34.17-.67v-4.59c0-.23-.02-.38-.07-.47-.05-.08-.16-.12-.32-.12-.07,0-.2,0-.38.02l-.04-.06.09-.59c.19,0,.36.01.5.02.14,0,.29,0,.44.01s.28,0,.39,0h.41c.17,0,.34,0,.52-.02s.38-.02.61-.02c.77,0,1.37.16,1.8.48s.65.78.65,1.37c0,.45-.14.86-.41,1.24s-.67.69-1.19.93l1.13,1.81c.22.35.43.6.63.75s.44.23.72.23l.06.07-.08.48-1.12.12v-.02Zm-2.08-3.86s.09-.05.21-.1.25-.14.39-.25.26-.27.36-.46c.1-.2.15-.45.15-.75,0-.46-.16-.81-.47-1.04-.31-.23-.79-.35-1.43-.35-.08,0-.13.02-.15.05-.03.03-.04.1-.05.21-.03.54-.05,1-.07,1.41-.02.4-.03.79-.04,1.17l1.11.11h0Z"/>
    <path class="cls-2" d="m52.97,13.66c-.23-.71-.47-1.4-.7-2.07s-.46-1.31-.68-1.93c-.22-.62-.42-1.2-.61-1.75h-.08s0,.16-.02.38-.04.5-.06.83c-.03.33-.06.68-.09,1.05s-.06.72-.08,1.06c-.03.34-.05.62-.06.85-.02.23-.02.37-.02.42,0,.23.12.35.36.35h.43l.03.06-.11.6s-.12,0-.27-.01-.31-.02-.49-.02c-.17,0-.32-.01-.44-.01-.11,0-.22,0-.33.01-.12,0-.23.02-.34.03-.11.01-.23.03-.37.04l.07-.62c.23-.02.4-.09.5-.22s.17-.33.2-.63c.02-.11.04-.29.07-.55s.06-.56.1-.91c.04-.34.07-.69.1-1.05s.07-.7.1-1.02c.03-.33.06-.6.08-.82.02-.22.03-.35.03-.4,0-.14-.03-.24-.09-.32-.06-.08-.16-.14-.29-.19s-.31-.08-.54-.09l-.05-.07.09-.51c.06,0,.17,0,.34.01.17,0,.34.02.53.03s.33.02.45.02.25,0,.39-.01c.14,0,.26-.01.37-.02.11,0,.18-.01.22-.01.21.71.42,1.37.61,1.98.2.61.38,1.14.53,1.61s.29.84.38,1.12c.1.28.16.46.17.52h.07c.02-.05.07-.22.18-.51.1-.29.23-.66.4-1.13.16-.46.35-1,.55-1.6s.42-1.26.65-1.96c.04,0,.13,0,.25.01.12,0,.25.01.39.01h.37c.12,0,.27,0,.46-.02.18-.01.35-.02.49-.03.14-.01.23-.02.25-.02l.03.05-.07.53c-.33.03-.55.09-.68.18s-.19.23-.19.43c0,.08,0,.24.02.48,0,.23.03.52.05.84.02.33.05.68.07,1.05s.05.74.08,1.1c.03.36.05.7.07,1,.05.42.1.71.18.84.07.14.19.21.37.21.07,0,.14,0,.2-.01.07,0,.11-.01.11-.01l.03.06-.1.6s-.09,0-.22-.01c-.13,0-.28-.01-.44-.02s-.31,0-.44,0-.27,0-.42.01c-.15,0-.3.02-.45.03-.15.01-.27.03-.36.03-.1,0-.15.01-.15.01l.07-.62c.23-.03.39-.09.49-.18.1-.09.15-.22.15-.39,0-.06,0-.2-.02-.42,0-.22-.03-.49-.06-.81-.02-.31-.05-.64-.07-.99-.03-.35-.05-.68-.07-.99-.02-.31-.04-.58-.06-.8s-.03-.36-.03-.42h-.08c-.14.4-.29.82-.45,1.27-.16.45-.33.91-.5,1.39-.17.48-.35.98-.52,1.47-.17.5-.35,1-.52,1.52l-.5.09h0Z"/>
    <path class="cls-2" d="m62.48,13.48l.05-.54c.26-.03.45-.06.59-.08s.23-.07.28-.12.08-.13.08-.23c0-.06,0-.13-.02-.21,0-.08-.03-.16-.06-.25l-.32-1.08c-.14,0-.32-.01-.55-.01h-.56c-.2,0-.42,0-.64.03-.22.02-.4.04-.53.05l-.36,1.04c-.06.18-.09.31-.09.4,0,.15.05.26.15.32s.25.1.46.1h.58l.03.06-.07.58c-.33-.02-.62-.04-.87-.05s-.49-.02-.74-.02h-.6c-.2,0-.44.01-.71.03l.09-.62c.2-.03.35-.1.48-.22s.23-.32.34-.61l2.13-5.77,1.18-.19.1.03c.11.37.2.72.29,1.04s.19.69.3,1.09.23.84.36,1.28c.13.45.26.89.39,1.33s.26.85.38,1.23c.09.27.21.46.35.58.14.11.36.18.66.21l.04.06-.08.56c-.31-.02-.56-.02-.77-.03h-.53c-.29,0-.58,0-.86.03-.28.02-.58.04-.92.07l-.05-.08h.02Zm-1.45-3.19h.92c.13,0,.3,0,.49-.02.19-.01.34-.02.46-.03l-.78-2.77h-.11l-.98,2.81h0Z"/>
    <path class="cls-2" d="m69.92,13.59c-.69,0-1.29-.14-1.79-.43-.51-.29-.9-.7-1.17-1.22-.28-.53-.41-1.16-.41-1.88,0-.59.1-1.13.29-1.62s.46-.91.82-1.26.77-.62,1.25-.82c.48-.19,1.02-.29,1.61-.29.23,0,.47.01.72.04.25.03.47.06.67.1s.42.08.67.14l.05.1c-.08.36-.14.69-.18.99-.05.31-.08.64-.1,1.01l-.79.06c.02-.25.03-.44.03-.58,0-.34-.12-.59-.36-.76s-.62-.25-1.12-.25c-.46,0-.85.11-1.18.33-.32.22-.58.53-.75.94s-.27.9-.27,1.49c0,.64.09,1.2.28,1.67s.45.83.79,1.08c.34.25.75.38,1.21.38s.84-.14,1.12-.41c.28-.27.47-.7.6-1.28l.79-.07c-.05.24-.08.46-.11.66s-.06.41-.09.64c-.03.23-.05.46-.07.67l-.08.11c-.42.15-.82.26-1.17.34-.36.08-.77.11-1.23.11h-.03Z"/>
    <path class="cls-2" d="m75.42,12.96c.28-.04.49-.11.62-.19s.22-.19.26-.35c.04-.15.06-.36.06-.62v-.43c0-.21-.02-.4-.06-.58s-.13-.39-.27-.66l-1.05-2.11c-.14-.27-.26-.49-.36-.66-.11-.17-.23-.3-.38-.38s-.36-.15-.63-.19l-.02-.04.08-.57c.18,0,.34.01.48.02.14,0,.29,0,.44.01s.29,0,.41,0c.15,0,.32,0,.52-.01.19,0,.38-.02.56-.03.18-.02.39-.03.62-.05l.04.09-.06.51c-.3.02-.51.06-.61.11-.11.05-.16.14-.16.27,0,.06.04.19.11.37.07.19.16.41.27.65.11.25.22.49.33.73.11.24.21.45.29.62s.13.27.14.29h.08l1.12-2.18c.11-.22.17-.4.17-.56,0-.09-.05-.16-.16-.21s-.27-.08-.5-.1l-.02-.04.08-.53s.14,0,.3.01c.16,0,.34.02.54.03.2.01.37.02.52.02.17,0,.33,0,.5-.01.17,0,.37-.02.6-.03l.04.08-.08.54c-.23.05-.42.13-.57.24s-.28.25-.4.44-.28.45-.46.78l-1.11,2.01c-.07.14-.12.28-.15.42-.04.15-.06.33-.06.54s-.01.5-.01.86c0,.29.02.49.1.6.07.11.21.16.41.16.12,0,.31-.01.56-.03l.03.06-.1.64c-.23-.02-.44-.03-.61-.03s-.35,0-.54-.01-.35,0-.48,0c-.15,0-.31,0-.48.02-.17.02-.33.03-.49.05-.16.01-.33.03-.52.06l.07-.62h-.01Z"/>
    <path class="cls-2" d="m86.64,14.39l-2.22-.12c.01-.44.03-.83.04-1.17s.03-.71.04-1.1.02-.76.03-1.12c0-.36.01-.65.01-.87s0-.52-.01-.87c0-.36-.02-.73-.03-1.13s-.02-.77-.04-1.12-.03-.74-.04-1.18l2.24-.12.05.08-.07.48-1.25.25v7.2l1.27.25.05.09-.07.46h0Z"/>
    <path class="cls-2" d="m88.41,14.03c-.25,0-.44-.07-.57-.2s-.21-.39-.23-.78l.1-.1c.16.04.32.07.48.09s.31.03.46.03c.37,0,.7-.06.99-.17s.52-.27.69-.47c.17-.2.26-.43.26-.69,0-.23-.07-.43-.22-.59-.14-.16-.38-.29-.71-.41-.33-.11-.78-.21-1.34-.31l-.1-.12c.03-.35.06-.69.08-1.04.03-.34.05-.66.07-.94s.04-.59.05-.92l.09-.09,2.17-.09c.22,0,.38-.04.48-.1s.18-.17.24-.34l.48-.05-.28,1.49-.1.09c-.44-.03-.84-.05-1.2-.07-.36-.01-.76-.02-1.18-.02l-.09,1.26c.54.11,1.01.24,1.42.4.41.16.73.36.95.6.23.24.34.53.34.89s-.1.68-.31.99c-.2.31-.47.59-.8.84s-.69.45-1.08.59-.77.22-1.13.22h-.01Z"/>
    <path class="cls-2" d="m93.9,14.03l-.1-.06-.16-.46c.96-.42,1.7-.96,2.21-1.64s.77-1.45.77-2.31c0-.54-.11-.96-.32-1.27-.22-.31-.51-.46-.89-.46-.34,0-.6.11-.79.33-.18.22-.28.53-.28.92,0,.26.05.49.16.69s.25.37.44.49.39.18.62.18c.18,0,.38-.04.61-.14.22-.09.42-.21.58-.35l-.23.9-.16-.11c-.26.15-.49.27-.69.36s-.35.14-.46.15c-.37,0-.7-.08-.99-.24s-.52-.39-.69-.67c-.17-.29-.25-.61-.25-.96,0-.44.1-.82.3-1.16.2-.33.48-.59.83-.79.36-.19.76-.29,1.21-.29.42,0,.78.1,1.1.3s.57.48.74.84c.18.36.27.78.27,1.26s-.09.98-.27,1.43c-.18.46-.43.88-.77,1.28-.33.39-.74.74-1.21,1.05s-1,.56-1.59.75v-.02Z"/>
    <path class="cls-2" d="m98.98,14.39l-.05-.08.08-.48,1.24-.25v-7.2l-1.27-.25-.05-.09.07-.46,2.23.12c-.02.44-.03.83-.04,1.17s-.03.71-.04,1.1-.03.76-.03,1.12-.01.65-.01.87,0,.52.01.87.02.73.03,1.12c.01.39.02.76.04,1.12.01.35.03.75.04,1.18l-2.26.12v.02Z"/>
  </g>
</svg>