<?xml version="1.0" encoding="UTF-8"?>
<svg id="_图层_2" data-name=" 图层 2" xmlns="http://www.w3.org/2000/svg" viewBox="0 0 119.77 20.55">
  <defs>
    <style>
      .cls-1 {
        fill: #fff;
        stroke: #000;
        stroke-miterlimit: 10;
        stroke-width: .71px;
      }

      .cls-2 {
        fill: #231815;
        stroke-width: 0px;
      }
    </style>
  </defs>
  <rect class="cls-1" x=".35" y=".35" width="119.06" height="19.84"/>
  <g>
    <path class="cls-2" d="m35.35,13.66c-.23-.71-.47-1.4-.7-2.07s-.46-1.31-.67-1.93c-.22-.62-.42-1.2-.61-1.75h-.08s0,.16-.02.38-.04.5-.06.83c-.03.33-.06.68-.08,1.05-.03.37-.06.72-.09,1.06-.03.34-.05.62-.06.85s-.02.37-.02.42c0,.23.12.35.36.35h.43l.03.06-.11.6s-.12,0-.27-.01c-.15,0-.31-.02-.49-.02-.17,0-.32-.01-.44-.01-.11,0-.22,0-.33.01-.12,0-.23.02-.34.03-.11.02-.23.03-.37.05l.07-.62c.23-.02.4-.09.5-.22.1-.12.17-.33.2-.63,0-.11.04-.29.07-.55s.06-.56.1-.91c.03-.34.07-.69.1-1.05.04-.35.07-.7.1-1.02.03-.32.06-.6.08-.82.02-.22.03-.35.03-.4,0-.14-.03-.24-.09-.32s-.16-.14-.29-.19c-.13-.04-.31-.08-.54-.09l-.05-.07.09-.51c.06,0,.17,0,.34.01s.34.02.53.03c.18.01.33.02.45.02s.25,0,.39-.01.26-.02.37-.02.18-.01.22-.01c.21.71.42,1.37.61,1.98.2.61.37,1.15.53,1.61s.29.84.38,1.12c.1.28.15.46.17.52h.07c.02-.05.07-.22.18-.51s.23-.66.4-1.13.35-1,.55-1.6.42-1.26.65-1.96c.04,0,.13,0,.25.01.12,0,.25.01.39.01h.37c.12,0,.27,0,.46-.02.18-.01.35-.02.49-.03.14-.01.23-.02.25-.02l.03.04-.07.53c-.32.03-.55.09-.68.18s-.19.23-.19.43c0,.08,0,.24.02.48s.03.52.05.84c.02.33.05.68.07,1.05.03.37.05.74.08,1.1.03.36.05.7.07,1,.05.42.1.7.18.84.07.14.2.21.37.21.07,0,.14,0,.2-.01.07,0,.11-.01.11-.01l.03.06-.1.6s-.09,0-.22-.01c-.13,0-.28-.01-.44-.02h-.44c-.13,0-.27,0-.42.01-.15,0-.3.02-.45.03-.15.02-.27.03-.36.03s-.15.01-.15.01l.07-.62c.23-.03.39-.09.49-.18s.15-.22.15-.39c0-.06,0-.2-.02-.43,0-.22-.03-.49-.06-.8-.02-.31-.05-.64-.07-.99s-.05-.68-.07-.99c-.02-.31-.04-.58-.06-.8s-.03-.37-.03-.43h-.08c-.14.4-.29.82-.45,1.27-.16.45-.33.91-.5,1.39-.17.48-.35.97-.52,1.47s-.35,1.01-.52,1.52l-.5.09h-.02Z"/>
    <path class="cls-2" d="m44.71,13.59c-.64,0-1.2-.15-1.68-.44s-.85-.7-1.11-1.24c-.27-.53-.4-1.15-.4-1.86,0-.58.09-1.1.27-1.59s.44-.91.78-1.26c.34-.36.73-.64,1.18-.83.45-.2.95-.29,1.49-.29.66,0,1.24.15,1.72.44s.86.7,1.13,1.22c.27.53.4,1.14.4,1.85,0,.58-.09,1.12-.28,1.6-.19.49-.45.91-.79,1.26-.34.36-.73.63-1.2.83-.46.2-.97.3-1.52.3h0Zm.33-.75c.43,0,.8-.11,1.12-.33.31-.22.56-.54.74-.95s.27-.89.27-1.44c0-.67-.09-1.23-.28-1.71-.19-.47-.45-.84-.79-1.09-.34-.26-.73-.38-1.2-.38-.42,0-.78.11-1.09.33-.31.22-.55.54-.72.94s-.26.88-.26,1.43c0,.66.09,1.22.27,1.7s.44.84.77,1.11.72.39,1.17.39Z"/>
    <path class="cls-2" d="m50,13.58l.08-.61c.34-.07.57-.17.68-.3s.17-.36.17-.67v-4.58c0-.24-.02-.4-.07-.49s-.17-.12-.34-.12h-.18c-.08,0-.13,0-.19.02l-.04-.07.09-.57c.18,0,.4,0,.66.01s.47.01.63.01.36,0,.62-.03c.26-.02.53-.04.81-.06l-.05.61c-.2.03-.36.07-.45.12-.1.05-.16.14-.2.26-.04.12-.06.3-.07.54l-.07,1.75h1.71c.24.01.47,0,.7,0,.22-.01.5-.04.83-.07v-1.92c0-.24,0-.4-.07-.49-.05-.08-.17-.12-.34-.12h-.18c-.07,0-.13,0-.18.02l-.05-.07.08-.57h.29c.16,0,.33,0,.51.01h.46c.16,0,.38,0,.65-.03.28-.02.56-.04.85-.06l-.06.61c-.28.04-.46.1-.56.18-.09.08-.14.23-.16.45-.02.39-.04.81-.06,1.25s-.03.88-.04,1.32-.02.84-.03,1.21c0,.37,0,.69,0,.95,0,.3.03.5.1.61.07.1.2.15.38.15.08,0,.16,0,.25-.01s.16-.02.21-.02l.05.06-.1.61c-.2,0-.46-.02-.75-.02s-.55-.01-.75-.01h-.93c-.18,0-.35,0-.5.01l.1-.61c.23,0,.4-.04.52-.1s.2-.17.25-.33c.04-.16.07-.39.07-.7v-1.6h-1.5c-.07,0-.2,0-.38.01-.19,0-.4.02-.65.04-.24.02-.48.04-.73.06l-.03,1.85c0,.3.03.51.1.61.06.11.19.16.37.16.08,0,.17,0,.26-.01.09,0,.16-.02.22-.02l.03.06-.1.61s-.13-.01-.27-.02c-.14,0-.3,0-.46-.01h-.41c-.21,0-.43,0-.69.02-.25.01-.48.03-.68.05s-.33.04-.39.06h-.01Z"/>
    <path class="cls-2" d="m62.11,13.59c-.64,0-1.2-.15-1.68-.44s-.85-.7-1.11-1.24c-.27-.53-.4-1.15-.4-1.86,0-.58.09-1.1.27-1.59s.44-.91.78-1.26c.34-.36.73-.64,1.18-.83.45-.2.95-.29,1.49-.29.66,0,1.24.15,1.72.44s.86.7,1.13,1.22c.27.53.4,1.14.4,1.85,0,.58-.09,1.12-.28,1.6-.19.49-.45.91-.79,1.26-.34.36-.73.63-1.2.83s-.97.3-1.52.3h.01Zm.33-.75c.43,0,.8-.11,1.12-.33.31-.22.56-.54.74-.95s.27-.89.27-1.44c0-.67-.09-1.23-.28-1.71-.19-.47-.45-.84-.79-1.09-.34-.26-.73-.38-1.2-.38-.42,0-.78.11-1.09.33-.31.22-.55.54-.72.94s-.26.88-.26,1.43c0,.66.09,1.22.27,1.7s.44.84.77,1.11.72.39,1.17.39Z"/>
    <path class="cls-2" d="m72.78,14.39l-2.22-.12c.01-.44.03-.83.04-1.17s.03-.71.04-1.1.02-.76.03-1.12c0-.35.01-.65.01-.87s0-.52-.01-.87c0-.35-.02-.73-.03-1.13s-.02-.77-.04-1.12c-.02-.35-.03-.74-.04-1.18l2.24-.12.05.08-.07.48-1.25.25v7.2l1.27.25.05.09-.07.46h0Z"/>
    <path class="cls-2" d="m76.24,12.99c-.42,0-.78-.1-1.1-.3s-.56-.48-.74-.84c-.18-.36-.27-.78-.27-1.26s.09-.98.27-1.43c.18-.46.43-.88.77-1.28.33-.39.73-.74,1.21-1.05.47-.31,1-.56,1.59-.75l.09.06.17.46c-.96.41-1.7.95-2.21,1.63s-.77,1.46-.77,2.32c0,.54.11.96.32,1.27s.51.46.89.46c.34,0,.6-.11.79-.33s.28-.53.28-.91c0-.26-.05-.5-.16-.7s-.25-.36-.43-.48-.39-.18-.62-.18c-.18,0-.38.05-.61.14-.22.09-.42.21-.58.35l.23-.9.16.11c.25-.15.48-.27.68-.36.21-.09.36-.14.45-.15.38,0,.71.08,1,.24s.52.38.69.67c.17.28.26.61.26.97,0,.44-.1.82-.3,1.16-.2.33-.48.59-.83.79-.35.19-.76.29-1.21.29h-.02Z"/>
    <path class="cls-2" d="m80.43,14.03l-.1-.06-.16-.46c.96-.42,1.7-.96,2.21-1.64s.77-1.45.77-2.31c0-.54-.11-.96-.32-1.27-.22-.31-.51-.47-.89-.47-.34,0-.6.11-.79.33-.18.22-.28.53-.28.92,0,.26.05.49.16.69s.25.37.44.49.39.18.62.18c.18,0,.38-.04.61-.14s.42-.21.58-.35l-.23.9-.16-.11c-.26.15-.49.27-.69.36s-.35.14-.46.15c-.37,0-.7-.08-.99-.24s-.52-.39-.69-.67-.25-.61-.25-.96c0-.44.1-.82.3-1.16.2-.33.48-.6.83-.79.36-.19.76-.29,1.21-.29.42,0,.78.1,1.1.3s.57.48.74.84c.18.36.27.78.27,1.26s-.09.98-.27,1.43-.43.88-.77,1.28c-.33.39-.74.74-1.21,1.05s-1,.56-1.59.75h0Z"/>
    <path class="cls-2" d="m85.51,14.39l-.05-.08.08-.48,1.24-.25v-7.2l-1.27-.25-.05-.09.07-.46,2.23.12c-.02.44-.03.83-.04,1.17s-.03.71-.04,1.1-.03.76-.03,1.12-.01.65-.01.87,0,.52.01.87c0,.35.02.73.03,1.12.01.39.02.77.04,1.12.01.35.03.75.04,1.18l-2.26.12v.02Z"/>
  </g>
</svg>