<?xml version="1.0" encoding="UTF-8"?>
<svg id="_图层_2" data-name=" 图层 2" xmlns="http://www.w3.org/2000/svg" viewBox="0 0 119.77 20.55">
  <defs>
    <style>
      .cls-1 {
        fill: #fff;
        stroke: #000;
        stroke-miterlimit: 10;
        stroke-width: .71px;
      }

      .cls-2 {
        fill: #231815;
        stroke-width: 0px;
      }
    </style>
  </defs>
  <rect class="cls-1" x=".35" y=".35" width="119.06" height="19.84"/>
  <g>
    <path class="cls-2" d="m27.02,13.66c-.23-.71-.47-1.4-.7-2.07s-.46-1.31-.68-1.93c-.22-.62-.42-1.2-.61-1.75h-.08s0,.16-.02.38-.04.5-.06.83c-.03.33-.06.68-.09,1.05s-.06.72-.08,1.06-.05.62-.06.85c-.02.23-.02.37-.02.42,0,.23.12.35.36.35h.43l.03.06-.11.6s-.12,0-.27-.01c-.15,0-.31-.02-.49-.02s-.32-.01-.44-.01c-.11,0-.22,0-.33.01s-.23.02-.34.03c-.11.02-.23.03-.37.05l.07-.62c.23-.02.4-.09.5-.22.1-.12.17-.33.2-.63.02-.11.04-.29.07-.55.03-.26.06-.56.1-.91.04-.34.07-.69.1-1.05.03-.35.07-.7.1-1.02.03-.32.06-.6.08-.82s.03-.35.03-.4c0-.14-.03-.24-.09-.32-.06-.08-.16-.14-.29-.19-.13-.04-.31-.08-.54-.09l-.05-.07.09-.51c.06,0,.17,0,.34.01.17,0,.34.02.53.03s.33.02.45.02.25,0,.39-.01c.14,0,.26-.02.37-.02s.18-.01.22-.01c.21.71.42,1.37.61,1.98.2.61.38,1.15.53,1.61s.29.84.38,1.12c.1.28.16.46.17.52h.07c.02-.05.07-.22.18-.51.1-.29.23-.66.4-1.13.16-.46.35-1,.55-1.6.2-.6.42-1.26.65-1.96.04,0,.13,0,.25.01.12,0,.25.01.39.01h.37c.12,0,.27,0,.46-.02.18-.01.35-.02.49-.03s.23-.02.25-.02l.03.05-.07.53c-.33.03-.55.09-.68.18s-.19.23-.19.43c0,.08,0,.24.02.48.01.23.03.52.05.84.02.33.05.68.07,1.05.03.37.05.74.08,1.1.03.36.05.7.07,1,.05.42.1.7.18.84.07.14.19.21.37.21.07,0,.14,0,.2-.01.07,0,.11-.01.11-.01l.03.06-.1.6s-.09,0-.22-.01c-.13,0-.28-.01-.44-.02h-.44c-.13,0-.27,0-.42.01-.15,0-.3.02-.45.03s-.27.03-.36.03c-.1,0-.15.01-.15.01l.07-.62c.23-.03.39-.09.49-.18s.15-.22.15-.39c0-.06,0-.2-.02-.43s-.03-.49-.06-.81c-.02-.31-.05-.64-.07-.99-.03-.35-.05-.68-.07-.99-.02-.31-.04-.58-.06-.8-.02-.22-.03-.36-.03-.43h-.08c-.14.4-.29.82-.45,1.27-.16.45-.33.91-.5,1.39s-.35.98-.52,1.47c-.17.5-.35,1.01-.52,1.52l-.5.09h0Z"/>
    <path class="cls-2" d="m33.34,13.58l.07-.61c.35-.07.58-.17.7-.3s.18-.36.18-.67v-4.58c0-.24-.02-.4-.07-.49-.06-.08-.17-.12-.33-.12h-.21c-.09,0-.16,0-.23.02l-.03-.07.08-.57c.22,0,.47,0,.74.01.28,0,.51.01.71.01.15,0,.36,0,.62-.03.26-.02.54-.04.82-.06l-.06.61c-.3.04-.5.1-.61.18-.1.08-.16.23-.18.45-.02.39-.04.81-.06,1.25s-.03.88-.04,1.31c0,.43-.02.84-.03,1.21,0,.37,0,.69,0,.95,0,.3.03.51.1.61.06.11.19.16.37.16.1,0,.2,0,.3-.01.1,0,.19-.02.26-.02l.03.06-.1.61c-.15,0-.33-.01-.52-.02-.2,0-.39,0-.58-.01h-.46c-.17,0-.39.01-.66.03-.26.02-.52.05-.77.09h-.03Z"/>
    <path class="cls-2" d="m38.19,12.95c.29-.05.5-.14.61-.27.11-.14.17-.37.17-.69v-4.57c0-.24-.03-.4-.08-.49-.05-.08-.16-.12-.33-.12-.07,0-.19,0-.36.02l-.04-.07.08-.57h.31c.16,0,.34,0,.54.01h.53c.13,0,.27,0,.44-.02.16-.01.32-.02.48-.03.15,0,.33-.02.54-.05l-.06.63c-.26.02-.44.07-.54.13-.11.06-.17.16-.19.29-.02.13-.04.31-.07.53-.03.45-.05.93-.07,1.44s-.03,1.02-.05,1.51c0,.49-.02.94-.02,1.34,0,.23.02.4.06.51.04.11.12.19.24.23.12.04.31.06.56.06.3,0,.55-.02.74-.06s.34-.12.45-.24.21-.29.28-.5c.07-.22.13-.51.19-.86l.69-.07.06.08c-.08.44-.14.83-.18,1.18s-.09.74-.14,1.15l-.08.09c-.42-.02-.79-.04-1.11-.05-.33-.01-.67-.02-1.02-.03s-.68-.02-.97-.02-.58,0-.84.03-.55.05-.86.08l.07-.62-.03.02Z"/>
    <path class="cls-2" d="m45.4,7.41c0-.24-.03-.4-.08-.49-.05-.08-.17-.12-.34-.12-.07,0-.19,0-.36.02l-.05-.07.09-.58c.2,0,.38.01.54.02s.31,0,.46.01.28,0,.37,0c.12,0,.26,0,.41-.02.15-.01.3-.02.45-.03.14,0,.31-.02.5-.05l-.05.61c-.28.05-.47.12-.57.22s-.16.24-.17.45l-.12,4.68c0,.3.02.51.09.61.07.11.19.16.37.16.12,0,.28-.01.49-.03l.03.06-.1.61c-.21,0-.4-.01-.56-.02-.16,0-.33,0-.49-.01h-1.38c-.14,0-.31,0-.49.02l.11-.6c.35-.05.57-.12.67-.23s.15-.33.15-.65v-4.58h.03Zm1.39,2.27l1.87-1.98c.22-.22.33-.41.33-.58,0-.1-.05-.18-.16-.23-.11-.06-.28-.09-.5-.11l-.03-.06.09-.58c.18.02.35.03.49.03s.29.02.44.02.28.01.39.01h.36c.14,0,.26,0,.38-.02.12,0,.26-.02.41-.02l.06.09-.08.54c-.14.05-.28.11-.4.19-.12.08-.26.19-.41.33-.15.14-.34.34-.57.58l-1.54,1.67,1.73,2.39c.25.34.48.59.68.74s.43.23.69.24l.07.07-.08.49c-.2.02-.36.04-.5.06s-.26.03-.38.05-.2.02-.23.02c-.21,0-.42-.08-.63-.24-.21-.16-.42-.4-.62-.72l-1.87-2.77.02-.2h0Z"/>
    <path class="cls-2" d="m55.76,13.51l.09-.6c.35-.03.6-.08.76-.14s.26-.18.31-.36c.05-.17.07-.44.07-.81v-4.76c-.38,0-.69.03-.91.06s-.38.09-.49.18c-.11.09-.19.23-.24.42-.05.19-.09.46-.13.79l-.71.06c.03-.24.05-.49.07-.75s.04-.51.05-.76.03-.47.03-.67l.11-.1,1.02.12h3.53l1.04-.12.11.1c0,.21.02.44.03.7,0,.25.03.5.05.75s.04.47.07.67l-.71.06c-.05-.35-.1-.62-.15-.82-.05-.2-.13-.34-.23-.44-.1-.09-.25-.16-.46-.19-.2-.03-.48-.05-.84-.07-.02.24-.04.57-.06.98s-.04.86-.05,1.34c0,.49-.02.98-.03,1.49s-.02.98-.02,1.42c0,.28.05.48.15.6.1.12.26.18.49.18.2,0,.41-.01.61-.03l.03.06-.1.64c-.17-.02-.38-.02-.61-.03-.23,0-.45,0-.66-.01h-1.01c-.2,0-.4.01-.62.02-.22.01-.41.02-.6.03h.01Z"/>
    <path class="cls-2" d="m61.85,13.57l.07-.62c.33-.05.56-.14.68-.27.12-.14.18-.37.18-.69v-4.57c0-.24,0-.4-.06-.49-.05-.08-.16-.12-.32-.12h-.18c-.08,0-.14,0-.2.02l-.05-.07.09-.58c.15,0,.33,0,.54.01.21,0,.42.01.65.02h.61c.58,0,1.08,0,1.5-.01.42,0,.79-.02,1.09-.05.31-.02.58-.05.83-.08l.06.09c-.04.19-.08.4-.11.63-.04.23-.07.46-.09.69-.02.23-.04.44-.06.64l-.76.06c0-.07.01-.15.02-.25v-.23c0-.17-.02-.31-.05-.41-.03-.1-.1-.18-.2-.23-.11-.05-.27-.08-.48-.1s-.5-.03-.87-.03c-.22,0-.38,0-.48.02s-.16.05-.19.11-.04.16-.05.28l-.11,2.56-.03,2.19c0,.2.02.34.05.44.03.1.11.16.22.19s.29.05.54.05c.41,0,.74-.02.99-.05s.44-.09.57-.18.23-.23.29-.41.12-.42.15-.71l.7-.07.06.08c-.06.26-.12.57-.18.95s-.1.73-.14,1.04l-.08.09c-.43-.02-.87-.03-1.32-.04s-.86-.02-1.24-.03c-.38,0-.68-.01-.92-.01-.26,0-.55,0-.88.03s-.62.05-.87.08l.03.03Zm1.92-3.37l.09-.84h1.19c.13,0,.33-.01.59-.03.27-.02.52-.05.77-.08l.06.08-.16.8c-.21,0-.46-.01-.76-.02-.3,0-.56-.01-.77-.01-.16,0-.33,0-.52.03s-.36.04-.5.06h.01Z"/>
    <path class="cls-2" d="m72.33,13.48l.05-.54c.26-.03.45-.06.59-.08s.23-.07.28-.12.08-.13.08-.23c0-.06,0-.13-.02-.21-.01-.08-.03-.16-.06-.26l-.32-1.08c-.14,0-.32-.01-.55-.01h-.56c-.2,0-.42,0-.64.03-.22.02-.4.04-.53.05l-.36,1.04c-.06.18-.09.31-.09.4,0,.15.05.26.15.32.1.06.25.1.46.1h.58l.03.06-.07.58c-.33-.02-.62-.04-.87-.05s-.49-.02-.74-.02h-.6c-.2,0-.44.01-.71.03l.09-.62c.2-.03.35-.1.48-.22s.23-.32.34-.61l2.13-5.77,1.18-.19.1.03c.11.37.2.72.29,1.04s.19.69.3,1.09.23.84.36,1.28c.13.45.26.89.39,1.33s.26.85.38,1.23c.09.27.21.46.35.58.14.11.36.19.66.22l.04.06-.08.56c-.31-.02-.56-.02-.77-.03h-.53c-.29,0-.58,0-.86.03-.28.02-.58.04-.92.07l-.05-.08h.02Zm-1.45-3.19h.92c.13,0,.3,0,.49-.02.19-.01.34-.02.46-.03l-.78-2.77h-.11l-.98,2.81h0Z"/>
    <path class="cls-2" d="m81.92,14.39l-2.22-.12c.02-.44.03-.83.04-1.17.02-.34.03-.71.04-1.1s.02-.76.03-1.12c0-.35.01-.65.01-.87s0-.52-.01-.87c0-.35-.02-.73-.03-1.13s-.02-.77-.04-1.12c-.01-.35-.03-.74-.04-1.18l2.25-.12.05.08-.07.48-1.25.25v7.2l1.27.25.05.09-.07.46h-.01Z"/>
    <path class="cls-2" d="m84.72,14.03l-.83-.25-.11-.26,2.71-5.33-1.78.09c-.25,0-.44.04-.57.1s-.22.16-.28.31-.12.35-.17.62l-.54.07c.03-.26.06-.5.08-.71.03-.21.05-.44.07-.69s.04-.49.06-.71l.07-.06c.26.02.5.03.71.03s.43.01.67.01h2.43l.33.42c-.3.62-.57,1.19-.82,1.71-.24.52-.46.99-.65,1.42s-.37.82-.52,1.17c-.15.35-.29.67-.42.96l-.31,1.11h-.14,0Z"/>
    <path class="cls-2" d="m89.05,14.03c-.25,0-.44-.07-.57-.2s-.21-.39-.23-.78l.1-.1c.16.04.32.07.48.09s.31.03.46.03c.37,0,.7-.06.99-.17s.52-.27.69-.47c.17-.2.26-.43.26-.69,0-.23-.07-.43-.22-.59s-.38-.29-.71-.41c-.33-.11-.78-.22-1.34-.31l-.1-.12c.03-.35.06-.69.08-1.04.03-.34.05-.66.07-.94s.04-.59.05-.92l.09-.09,2.17-.09c.22,0,.38-.04.48-.1.1-.06.18-.17.24-.34l.48-.05-.28,1.49-.1.09c-.44-.03-.84-.05-1.2-.07-.36-.02-.76-.02-1.18-.02l-.09,1.26c.54.11,1.01.24,1.42.4s.73.36.95.6c.23.24.34.53.34.89s-.1.68-.31.99-.47.59-.8.84-.69.45-1.08.59-.77.22-1.13.22h-.01Z"/>
    <path class="cls-2" d="m93.85,14.39l-.05-.08.08-.48,1.24-.25v-7.2l-1.27-.25-.05-.09.07-.46,2.23.12c-.02.44-.03.83-.04,1.17s-.03.71-.04,1.1-.03.76-.03,1.12-.01.65-.01.87,0,.52.01.87c0,.35.02.73.03,1.12s.02.77.04,1.12c.01.35.03.75.04,1.18l-2.26.12v.02Z"/>
  </g>
</svg>