<?xml version="1.0" encoding="UTF-8"?>
<svg id="_图层_2" data-name=" 图层 2" xmlns="http://www.w3.org/2000/svg" viewBox="0 0 119.77 20.55">
  <defs>
    <style>
      .cls-1 {
        fill: #fff;
        stroke: #000;
        stroke-miterlimit: 10;
        stroke-width: .71px;
      }

      .cls-2 {
        fill: #231815;
        stroke-width: 0px;
      }
    </style>
  </defs>
  <rect class="cls-1" x=".35" y=".35" width="119.06" height="19.84"/>
  <g>
    <path class="cls-2" d="m15.09,13.55l.08-.62c.33-.06.54-.15.65-.27.11-.12.16-.34.16-.67v-4.57c.01-.24-.01-.4-.07-.49-.05-.08-.16-.12-.32-.12-.07,0-.2,0-.39.02l-.05-.06.09-.58h.29c.15,0,.33,0,.52.01h.9c.17,0,.34,0,.52-.02.18,0,.4-.02.65-.02.45,0,.84.05,1.16.15s.59.24.79.43c.21.19.36.41.46.67.1.26.15.54.15.84,0,.33-.07.65-.21.95s-.34.57-.59.81c-.25.24-.53.43-.84.56-.31.14-.64.2-.99.2h-.96v1c-.01.31,0,.54.02.7s.07.26.15.31.19.07.33.07c.11,0,.29-.01.57-.03l.02.06-.1.61c-.17,0-.32-.01-.45-.02-.13,0-.26,0-.4-.01h-.35c-.15,0-.33,0-.53.01-.2,0-.39.02-.58.02s-.35.02-.47.03c-.12.01-.19.02-.2.03h0Zm3.14-3.44c.82-.15,1.22-.71,1.22-1.67,0-.54-.16-.93-.46-1.18s-.8-.37-1.46-.37c-.13,0-.21,0-.23.02s-.04.07-.05.16c-.03.46-.06.94-.08,1.44s-.04.98-.06,1.44c0,0,1.12.16,1.12.16Z"/>
    <path class="cls-2" d="m21.99,13.57l.07-.62c.33-.05.56-.14.68-.27.12-.14.18-.37.18-.69v-4.57c.01-.24-.01-.4-.06-.49-.05-.08-.16-.12-.32-.12h-.17c-.07,0-.14,0-.2.02l-.04-.07.09-.58c.15,0,.33,0,.54.01.21,0,.42.01.65.02s.42,0,.61,0c.58,0,1.08,0,1.5-.01.42,0,.78-.02,1.09-.05.31-.02.59-.05.83-.08l.06.09c-.04.19-.08.4-.11.63-.04.23-.07.46-.09.69-.02.23-.04.44-.06.64l-.76.06c0-.07.01-.15.02-.25v-.23c0-.17-.02-.31-.04-.41-.03-.1-.1-.18-.21-.23s-.27-.08-.48-.1-.5-.03-.87-.03c-.22,0-.38,0-.48.02s-.16.05-.19.11-.04.16-.05.28l-.11,2.56-.03,2.19c0,.2.02.34.05.44.04.1.11.16.22.19s.29.05.54.05c.41,0,.74-.02.99-.05s.44-.09.57-.18.23-.23.29-.41c.06-.18.12-.42.15-.71l.7-.07.06.08c-.06.26-.12.57-.17.95-.06.38-.1.73-.14,1.04l-.08.09c-.43-.02-.87-.03-1.32-.04-.45-.01-.86-.02-1.24-.03-.38,0-.68-.01-.92-.01-.26,0-.55,0-.88.03-.33.02-.62.05-.87.08v.03Zm1.92-3.37l.09-.84h1.19c.13,0,.32-.01.59-.03.26-.02.52-.05.77-.08l.06.08-.16.8c-.2,0-.46-.01-.76-.02-.3,0-.56-.01-.77-.01-.16,0-.33,0-.52.03s-.36.04-.5.06h.01Z"/>
    <path class="cls-2" d="m32.46,13.48l.04-.54c.26-.03.45-.06.59-.08.14-.03.23-.07.28-.12s.08-.13.08-.23c0-.06,0-.13-.02-.21,0-.08-.03-.16-.06-.26l-.32-1.08c-.14,0-.32-.01-.55-.01h-.56c-.21,0-.42,0-.64.03-.22.02-.4.04-.53.05l-.36,1.04c-.06.18-.09.31-.09.4,0,.15.05.26.15.32.1.06.25.1.46.1h.58l.03.06-.07.58c-.33-.02-.62-.04-.87-.05s-.5-.02-.74-.02h-.6c-.2,0-.44.01-.71.03l.09-.62c.2-.03.36-.1.48-.22s.23-.32.34-.61l2.13-5.77,1.18-.19.1.03c.11.37.2.72.29,1.04s.19.69.3,1.09.23.84.36,1.28c.13.45.26.89.39,1.33s.26.85.38,1.23c.09.27.21.46.35.58.14.11.36.19.66.22l.03.06-.08.56c-.31-.02-.57-.02-.76-.03h-.53c-.29,0-.58,0-.86.03-.28.02-.58.04-.92.07l-.04-.08h.02Zm-1.45-3.19h.92c.14,0,.3,0,.49-.02.19-.01.34-.02.46-.03l-.78-2.77h-.11l-.97,2.81h-.01Z"/>
    <path class="cls-2" d="m39.9,13.59c-.69,0-1.29-.14-1.79-.43-.51-.29-.9-.7-1.17-1.22-.28-.53-.41-1.16-.41-1.88,0-.59.1-1.13.29-1.62.19-.49.46-.91.82-1.26s.77-.62,1.25-.82c.48-.19,1.01-.29,1.6-.29.23,0,.47.01.72.04.25.03.47.06.67.1.2.04.42.08.67.14l.04.1c-.08.36-.14.69-.18.99-.04.31-.08.64-.1,1.01l-.79.06c.02-.25.03-.44.03-.58,0-.34-.12-.59-.36-.76s-.62-.25-1.12-.25c-.46,0-.85.11-1.18.33-.33.22-.58.53-.75.94-.18.4-.27.9-.27,1.49,0,.64.09,1.2.28,1.67s.45.83.79,1.08.74.38,1.21.38.84-.14,1.12-.41c.28-.27.47-.7.59-1.28l.79-.07c-.04.24-.08.46-.11.66s-.06.41-.09.64-.05.46-.07.67l-.08.11c-.42.15-.81.26-1.17.34-.36.08-.77.11-1.23.11h0Z"/>
    <path class="cls-2" d="m44.29,13.57l.07-.62c.33-.05.56-.14.68-.27.12-.14.18-.37.18-.69v-4.57c0-.24,0-.4-.06-.49-.05-.08-.16-.12-.32-.12h-.17c-.07,0-.14,0-.2.02l-.05-.07.09-.58c.15,0,.33,0,.54.01.21,0,.42.01.65.02h.61c.58,0,1.08,0,1.5-.01.42,0,.78-.02,1.09-.05.31-.02.58-.05.83-.08l.06.09c-.04.19-.08.4-.11.63-.04.23-.07.46-.09.69s-.04.44-.06.64l-.76.06c0-.07,0-.15.02-.25v-.23c0-.17-.02-.31-.05-.41s-.1-.18-.2-.23-.27-.08-.48-.1-.5-.03-.87-.03c-.22,0-.38,0-.48.02s-.16.05-.19.11-.04.16-.05.28l-.11,2.56-.03,2.19c0,.2.02.34.05.44.03.1.11.16.22.19s.29.05.54.05c.41,0,.74-.02.99-.05s.44-.09.57-.18.23-.23.29-.41.12-.42.15-.71l.7-.07.06.08c-.06.26-.12.57-.17.95-.06.38-.1.73-.14,1.04l-.08.09c-.43-.02-.87-.03-1.31-.04-.45-.01-.86-.02-1.24-.03s-.68-.01-.92-.01c-.26,0-.55,0-.88.03-.33.02-.62.05-.87.08v.03Zm1.92-3.37l.09-.84h1.19c.13,0,.32-.01.59-.03.26-.02.52-.05.77-.08l.06.08-.16.8c-.2,0-.46-.01-.76-.02-.3,0-.56-.01-.77-.01-.16,0-.33,0-.52.03-.19.02-.36.04-.5.06h0Z"/>
    <path class="cls-2" d="m54.31,13.55l.08-.62c.33-.06.54-.15.65-.27.11-.12.16-.34.16-.67v-4.57c0-.24,0-.4-.07-.49-.05-.08-.16-.12-.32-.12-.07,0-.2,0-.39.02l-.05-.06.09-.58h.29c.15,0,.33,0,.52.01h.9c.17,0,.34,0,.52-.02.18,0,.4-.02.65-.02.45,0,.84.05,1.16.15s.59.24.79.43c.21.19.36.41.46.67s.15.54.15.84c0,.33-.07.65-.21.95s-.34.57-.59.81c-.25.24-.53.43-.84.56-.31.14-.64.2-.99.2h-.96v1c0,.31,0,.54.02.7s.07.26.15.31.19.07.33.07c.11,0,.29-.01.57-.03l.02.06-.1.61c-.17,0-.32-.01-.45-.02-.13,0-.26,0-.4-.01h-.35c-.15,0-.33,0-.53.01-.2,0-.39.02-.58.02s-.35.02-.47.03c-.12.01-.19.02-.2.03h-.01Zm3.14-3.44c.82-.15,1.22-.71,1.22-1.67,0-.54-.16-.93-.46-1.18s-.8-.37-1.46-.37c-.13,0-.21,0-.23.02s-.04.07-.05.16c-.03.46-.06.94-.08,1.44s-.04.98-.06,1.44l1.12.16Z"/>
    <path class="cls-2" d="m64.39,13.48l.05-.54c.26-.03.45-.06.59-.08.14-.03.23-.07.28-.12s.08-.13.08-.23c0-.06,0-.13-.02-.21-.01-.08-.03-.16-.06-.26l-.32-1.08c-.14,0-.32-.01-.55-.01h-.56c-.2,0-.42,0-.64.03-.22.02-.4.04-.53.05l-.36,1.04c-.06.18-.09.31-.09.4,0,.15.05.26.15.32.1.06.25.1.46.1h.58l.03.06-.07.58c-.33-.02-.62-.04-.87-.05s-.5-.02-.74-.02h-.6c-.2,0-.44.01-.71.03l.09-.62c.2-.03.35-.1.48-.22.12-.12.23-.32.34-.61l2.13-5.77,1.18-.19.1.03c.11.37.2.72.29,1.04.09.32.19.69.3,1.09s.23.84.36,1.28c.13.45.26.89.39,1.33s.26.85.38,1.23c.09.27.21.46.35.58.14.11.36.19.66.22l.03.06-.08.56c-.31-.02-.57-.02-.77-.03h-.53c-.29,0-.58,0-.86.03s-.58.04-.92.07l-.05-.08h.03Zm-1.45-3.19h.92c.14,0,.3,0,.49-.02.19-.01.34-.02.46-.03l-.78-2.77h-.11l-.98,2.81h0Z"/>
    <path class="cls-2" d="m73.87,13.64c-.21,0-.42-.09-.64-.28s-.41-.45-.59-.78l-1.1-2.11h-.88l-.02,1.51c0,.26.02.46.05.59.04.13.11.21.23.25s.3.06.54.07l.02.05-.1.58c-.18,0-.34-.01-.48-.02-.14,0-.28,0-.43-.01h-1.07c-.22,0-.49.02-.8.05l.1-.62c.34-.04.57-.12.67-.24.11-.12.16-.34.16-.67v-4.59c.01-.23-.02-.38-.07-.47-.05-.08-.16-.12-.32-.12-.07,0-.2,0-.39.02l-.04-.06.09-.59c.19,0,.35.01.5.02.14,0,.29,0,.44.01h.8c.17,0,.34,0,.52-.02.17,0,.38-.02.61-.02.77,0,1.37.16,1.8.48s.65.78.65,1.37c0,.45-.14.86-.41,1.24-.28.38-.67.69-1.18.93l1.13,1.81c.22.35.43.6.63.75s.44.23.72.23l.06.07-.08.48-1.12.12v-.03Zm-2.08-3.86s.09-.05.21-.1.25-.14.38-.25c.14-.11.26-.27.36-.46.1-.2.15-.45.15-.75,0-.46-.16-.81-.47-1.04-.31-.23-.79-.35-1.43-.35-.08,0-.13.02-.15.05-.03.03-.04.1-.05.21-.03.54-.06,1.01-.07,1.41-.02.4-.03.79-.04,1.17,0,0,1.11.11,1.11.11Z"/>
    <path class="cls-2" d="m77.2,7.41c0-.24-.03-.4-.08-.49-.05-.08-.17-.12-.34-.12-.07,0-.19,0-.36.02l-.05-.07.09-.58c.2,0,.38.01.54.02.15,0,.31,0,.46.01h.37c.12,0,.26,0,.41-.02.16-.01.3-.02.45-.03.14,0,.31-.02.5-.05l-.04.61c-.28.05-.47.12-.57.22-.1.09-.16.24-.17.45l-.12,4.68c0,.3.02.51.09.61.07.11.19.16.38.16.12,0,.28-.01.49-.03l.04.06-.1.61c-.21,0-.4-.01-.56-.02-.16,0-.33,0-.49-.01h-1.38c-.14,0-.31,0-.49.02l.11-.6c.35-.05.57-.12.67-.23s.15-.33.15-.65v-4.58h0Zm1.39,2.27l1.87-1.98c.22-.22.33-.41.33-.58,0-.1-.05-.18-.16-.23-.11-.06-.28-.09-.5-.11l-.03-.06.09-.58c.18.02.35.03.49.03.15,0,.29.02.44.02s.28.01.39.01h.36c.13,0,.26,0,.39-.02.12,0,.26-.02.41-.02l.06.09-.08.54c-.14.05-.28.11-.4.19s-.26.19-.41.33c-.15.14-.34.34-.57.58l-1.54,1.67,1.73,2.39c.25.34.48.59.68.74s.43.23.69.24l.07.07-.08.49c-.2.02-.36.04-.5.06s-.26.03-.38.05-.2.02-.23.02c-.21,0-.42-.08-.63-.24s-.42-.4-.62-.72l-1.87-2.77.02-.2h-.02Z"/>
    <path class="cls-2" d="m89.47,14.39l-2.22-.12c.01-.44.03-.83.04-1.17s.03-.71.04-1.1.02-.76.03-1.12c0-.35.01-.65.01-.87s0-.52-.01-.87c0-.35-.02-.73-.03-1.13s-.02-.77-.04-1.12c-.02-.35-.03-.74-.04-1.18l2.24-.12.05.08-.07.48-1.25.25v7.2l1.27.25.05.09-.07.46h0Z"/>
    <path class="cls-2" d="m92.9,12.99c-.36,0-.7-.06-1-.19-.31-.12-.55-.3-.74-.54-.19-.23-.28-.52-.28-.85s.08-.62.24-.86c.16-.24.35-.43.57-.58s.41-.26.57-.34c-.32-.19-.6-.41-.84-.67s-.36-.59-.36-1.01c0-.33.09-.64.28-.93.18-.29.44-.52.76-.69s.69-.26,1.11-.26c.32,0,.62.06.9.18s.51.29.69.52.27.51.27.84c0,.28-.06.53-.17.74s-.25.39-.42.53c-.17.14-.33.25-.49.33.23.13.45.27.64.43.19.15.35.34.46.54.12.21.18.46.18.75,0,.38-.1.72-.31,1.03-.21.31-.49.56-.85.74s-.76.28-1.2.28h-.01Zm.24-.64c.3,0,.56-.1.79-.3s.33-.46.33-.77c0-.23-.07-.43-.22-.59s-.33-.3-.56-.43c-.23-.12-.47-.25-.73-.38-.11.05-.23.13-.36.23s-.25.23-.35.4-.15.37-.15.62c0,.2.05.4.16.59.11.19.25.34.44.45s.4.17.65.17h0Zm.32-3.4c.13-.09.26-.22.39-.39s.19-.4.19-.7c0-.36-.1-.63-.29-.82s-.43-.29-.71-.29-.53.09-.7.27c-.17.18-.25.38-.25.62,0,.21.07.39.2.54s.3.29.51.41.43.24.66.36Z"/>
    <path class="cls-2" d="m97.4,14.03c-.29,0-.49-.07-.61-.22s-.18-.4-.2-.75l.09-.1c.31.08.62.12.94.12.35,0,.66-.06.94-.18s.5-.28.66-.48.24-.43.24-.67c0-.35-.15-.62-.45-.78-.3-.17-.78-.25-1.42-.26l-.08-.08-.07-.53.74-.17c.29-.13.52-.31.69-.53.17-.23.26-.46.26-.69s-.08-.39-.23-.52-.34-.19-.58-.19c-.2,0-.41.05-.65.15-.23.1-.44.24-.62.41h-.13l-.16-.62s.11-.09.24-.18.29-.18.48-.28.39-.19.61-.26.43-.11.63-.11c.47,0,.84.12,1.13.35.28.23.42.55.42.94,0,.31-.11.61-.34.89-.23.28-.53.52-.91.7v.07c.51.13.9.31,1.16.56.26.24.39.54.39.88,0,.3-.09.6-.28.9-.19.3-.44.57-.75.82s-.66.44-1.04.59c-.38.15-.76.22-1.15.22h.05Z"/>
    <path class="cls-2" d="m102.01,14.39l-.04-.08.08-.48,1.24-.25v-7.2l-1.27-.25-.04-.09.07-.46,2.23.12c-.01.44-.03.83-.04,1.17s-.02.71-.04,1.1c-.02.39-.03.76-.04,1.12,0,.36-.01.65-.01.87s0,.52.01.87c0,.35.02.73.03,1.12.01.39.02.77.04,1.12s.03.75.04,1.18l-2.26.12v.02Z"/>
  </g>
</svg>