<?xml version="1.0" encoding="UTF-8"?>
<svg id="_图层_2" data-name=" 图层 2" xmlns="http://www.w3.org/2000/svg" viewBox="0 0 119.77 20.55">
  <defs>
    <style>
      .cls-1 {
        fill: #fff;
        stroke: #000;
        stroke-miterlimit: 10;
        stroke-width: .71px;
      }

      .cls-2 {
        fill: #251714;
        stroke-width: 0px;
      }
    </style>
  </defs>
  <rect class="cls-1" x=".35" y=".35" width="119.06" height="19.84"/>
  <g>
    <path class="cls-2" d="m29.87,13.67c-.24-.71-.47-1.41-.7-2.08-.23-.67-.46-1.32-.68-1.94-.22-.62-.43-1.21-.62-1.76h-.08s0,.16-.02.38c-.02.22-.04.5-.06.83-.03.33-.06.68-.09,1.06-.03.37-.06.73-.09,1.07-.03.34-.05.62-.06.86-.02.23-.02.37-.02.43,0,.24.12.35.36.35.05,0,.14,0,.25,0,.11,0,.17,0,.19,0l.03.06-.11.6s-.12,0-.27-.01c-.15,0-.32-.02-.49-.02-.17,0-.32-.01-.44-.01-.11,0-.22,0-.34.01-.12,0-.23.02-.34.03-.11.02-.23.03-.37.05l.07-.63c.24-.02.4-.09.51-.22.1-.12.17-.33.2-.64.02-.11.04-.29.07-.55.03-.26.06-.57.1-.91.03-.35.07-.7.1-1.05.03-.36.07-.7.1-1.03.03-.33.06-.6.08-.82.02-.22.03-.35.03-.4,0-.14-.03-.25-.09-.33s-.16-.14-.29-.19c-.13-.05-.31-.08-.54-.09l-.05-.07.09-.51c.06,0,.17,0,.34.01.17,0,.34.02.53.03.19.01.34.02.45.02.12,0,.25,0,.39-.01.14,0,.26-.02.37-.02.11,0,.18-.01.22-.01.21.71.42,1.38.62,1.99.2.61.38,1.15.54,1.62s.29.84.39,1.13c.1.29.16.46.17.52h.07c.02-.05.07-.22.18-.51.1-.29.24-.67.4-1.13.16-.47.35-1.01.55-1.61s.42-1.27.65-1.97c.05,0,.13,0,.25.01.12,0,.25.01.39.01h.37c.12,0,.28,0,.46-.02.19-.01.35-.02.5-.03.14-.01.23-.02.25-.02l.03.05-.07.54c-.33.03-.56.09-.68.18-.13.09-.19.24-.19.43,0,.08,0,.24.02.48.01.24.03.52.05.85.02.33.05.68.07,1.05.03.37.05.74.08,1.11.03.37.05.7.07,1,.05.43.1.71.18.85.07.14.2.21.37.21.07,0,.14,0,.21-.01.07,0,.11-.01.11-.01l.03.06-.1.6s-.09,0-.22-.01c-.13,0-.28-.01-.44-.02-.17,0-.32,0-.44,0s-.27,0-.42.01c-.15,0-.3.02-.45.03-.15.02-.27.03-.37.03-.1,0-.15.01-.15.01l.07-.63c.23-.03.39-.09.5-.18.1-.09.15-.22.15-.39,0-.06,0-.2-.02-.43-.02-.22-.03-.49-.06-.81-.02-.32-.05-.65-.07-1-.03-.35-.05-.68-.07-1s-.04-.59-.06-.81-.03-.37-.03-.43h-.08c-.14.4-.3.83-.46,1.28-.16.45-.33.92-.5,1.4-.18.49-.35.98-.52,1.48-.17.5-.35,1.01-.52,1.53l-.5.09Z"/>
    <path class="cls-2" d="m39.35,13.61c-.83,0-1.46-.21-1.9-.64-.44-.43-.66-1.05-.66-1.86v-3.72c0-.24-.02-.41-.07-.49-.05-.08-.16-.13-.33-.13-.07,0-.19,0-.38.02l-.02-.05.08-.6c.34.02.62.02.84.03.22,0,.42,0,.6,0,.11,0,.25,0,.39-.02.15-.01.29-.02.42-.03.13,0,.28-.02.46-.05l-.07.63c-.26.03-.44.09-.53.18-.1.09-.15.24-.15.45l-.09,3.34c0,.68.15,1.2.44,1.56.29.37.71.55,1.26.55s.97-.15,1.25-.44c.29-.3.43-.73.43-1.3,0-.15,0-.37,0-.67,0-.29,0-.61-.02-.95,0-.34-.01-.67-.02-.97s0-.66-.02-1.07c-.02-.26-.05-.43-.09-.5-.05-.08-.15-.11-.31-.11-.07,0-.22,0-.44.02l-.02-.05.09-.6c.18,0,.34.01.48.02.14,0,.29,0,.43.01s.28,0,.38,0c.18,0,.37,0,.55-.02.19-.01.41-.04.67-.07l-.06.62c-.3.05-.5.12-.6.19-.09.07-.14.22-.14.44v3.71c0,.82-.25,1.45-.75,1.9-.5.44-1.21.67-2.13.67Z"/>
    <path class="cls-2" d="m44.61,12.95c.3-.05.5-.14.61-.27.11-.14.17-.37.17-.7v-4.6c0-.24-.03-.41-.08-.49-.05-.08-.16-.13-.33-.13-.07,0-.19,0-.37.02l-.05-.07.08-.57s.15,0,.31,0c.16,0,.35,0,.55.01s.38,0,.53,0c.13,0,.28,0,.44-.02.16-.01.32-.02.48-.03.16,0,.34-.02.54-.05l-.06.64c-.26.02-.44.07-.55.13-.11.06-.17.16-.19.29s-.05.31-.07.54c-.03.45-.06.93-.07,1.45s-.03,1.02-.05,1.52c-.01.49-.02.94-.02,1.35,0,.23.02.4.06.51.04.11.12.19.25.23.12.04.31.06.56.06.3,0,.55-.02.74-.06.19-.04.34-.12.46-.24.11-.12.21-.29.28-.51.07-.22.13-.51.19-.87l.7-.07.06.08c-.08.44-.14.84-.18,1.19s-.09.74-.14,1.16l-.08.09c-.42-.02-.79-.04-1.12-.05-.33-.01-.67-.02-1.03-.03-.36-.01-.68-.02-.98-.02s-.59,0-.85.03-.55.05-.86.09l.07-.63Z"/>
    <path class="cls-2" d="m51.7,13.53l.09-.6c.35-.03.6-.08.76-.14.16-.06.26-.18.31-.36s.07-.44.07-.81v-4.79c-.39,0-.69.03-.91.06-.22.03-.39.09-.5.18-.11.09-.19.23-.24.43-.05.19-.09.46-.13.79l-.72.06c.03-.24.06-.49.07-.75.02-.26.04-.51.05-.76.02-.25.03-.48.03-.67l.11-.1,1.03.13h3.55l1.05-.13.11.1c0,.21.02.45.03.7.01.25.03.51.05.75s.05.47.07.68l-.72.06c-.05-.35-.1-.62-.15-.82-.05-.2-.13-.34-.23-.44-.1-.09-.26-.16-.46-.19s-.49-.05-.84-.07c-.02.24-.04.57-.06.98-.02.41-.03.86-.05,1.35-.01.49-.02.99-.03,1.5-.01.51-.02.98-.02,1.43,0,.28.05.48.15.6.1.12.26.18.49.18.21,0,.41-.01.62-.03l.03.06-.1.64c-.18-.02-.38-.02-.61-.03-.23,0-.45,0-.67-.01s-.39,0-.52,0c-.13,0-.29,0-.49,0-.2,0-.4.01-.62.02-.22.01-.42.02-.6.03Z"/>
    <path class="cls-2" d="m61.03,13.49l.05-.55c.26-.03.46-.06.59-.09.14-.03.23-.07.29-.12.05-.05.08-.13.08-.23,0-.06,0-.13-.02-.21-.01-.08-.03-.17-.06-.26l-.32-1.08c-.14,0-.32-.01-.55-.01h-.56c-.21,0-.42,0-.64.03-.22.02-.4.04-.53.05l-.37,1.05c-.06.18-.09.32-.09.4,0,.15.05.26.15.33.1.06.25.1.47.1h.58l.03.06-.07.58c-.33-.02-.63-.04-.88-.05-.25-.01-.5-.02-.74-.02-.2,0-.4,0-.6,0-.2,0-.44.01-.71.03l.09-.63c.2-.03.36-.1.48-.22.12-.12.24-.32.34-.61l2.14-5.81,1.19-.19.1.03c.11.37.2.72.29,1.04.09.32.19.69.3,1.1.11.41.24.84.37,1.29.13.45.26.9.39,1.34.13.44.26.86.38,1.24.09.27.21.47.35.58.14.11.36.19.66.22l.03.06-.08.56c-.31-.02-.57-.02-.77-.03s-.38,0-.53,0c-.3,0-.58,0-.86.03-.28.02-.59.04-.93.07l-.05-.08Zm-1.46-3.21h.92c.14,0,.3,0,.49-.02.19-.01.35-.02.47-.03l-.79-2.78h-.11l-.98,2.83Z"/>
    <path class="cls-2" d="m70.99,13.86c-.5-.8-.98-1.55-1.45-2.24s-.87-1.31-1.23-1.83c-.36-.52-.75-1.09-1.16-1.69h-.08l-.05,4.29c0,.18.04.3.09.37.05.07.15.11.29.11.04,0,.1,0,.19,0,.09,0,.21,0,.36,0l.03.06-.1.6c-.18,0-.34-.02-.48-.02-.14,0-.28-.01-.43-.02-.15,0-.29,0-.41,0-.18,0-.36,0-.54.02-.19.02-.41.04-.67.07l.07-.63c.24-.03.41-.1.52-.21.11-.11.17-.28.18-.51l.15-4.78c0-.24-.07-.41-.2-.51-.13-.09-.39-.16-.77-.2l-.05-.08.08-.52c.26.02.48.03.65.04.17.01.33.02.48.02s.29,0,.42-.01c.14,0,.3-.02.48-.03.35.54.69,1.07,1.03,1.58s.65.99.95,1.44c.3.44.56.83.79,1.16.23.33.48.68.74,1.05h.08v-4.09c-.01-.17-.04-.3-.1-.38-.06-.08-.16-.11-.29-.11-.09,0-.18,0-.27,0-.09,0-.14,0-.14,0l-.03-.07.09-.59c.17,0,.33.02.46.02.13,0,.27.01.41.02.14,0,.27,0,.38,0,.17,0,.35,0,.54-.02.19-.01.42-.03.68-.06l-.06.63c-.26.03-.45.1-.56.22-.12.11-.18.28-.19.5l-.16,6.26-.71.15Z"/>
    <path class="cls-2" d="m79.5,14.4l-2.24-.13c.02-.44.03-.83.05-1.18.02-.35.03-.71.04-1.11.01-.39.02-.77.03-1.12,0-.36.01-.65.01-.88s0-.52-.01-.88c0-.36-.02-.74-.03-1.13-.01-.4-.02-.77-.04-1.12-.02-.35-.03-.75-.05-1.19l2.26-.13.05.08-.07.48-1.25.25v7.24l1.28.25.05.09-.07.47Z"/>
    <path class="cls-2" d="m81.34,14.04l-.1-.06-.16-.47c.97-.42,1.71-.97,2.22-1.65.52-.68.78-1.46.78-2.33,0-.54-.11-.97-.32-1.28-.22-.31-.52-.47-.9-.47-.34,0-.61.11-.79.33-.19.22-.28.53-.28.92,0,.26.05.49.16.7s.25.37.44.49c.19.12.39.18.62.18.18,0,.39-.05.61-.14.22-.09.42-.21.59-.35l-.23.9-.16-.11c-.26.15-.49.27-.69.37-.2.09-.36.14-.46.15-.37,0-.71-.08-1-.25-.29-.16-.52-.39-.7-.68-.17-.29-.26-.61-.26-.97,0-.44.1-.83.3-1.16.2-.33.48-.6.84-.79.36-.19.76-.29,1.22-.29.42,0,.79.1,1.11.3.32.2.57.48.75.85s.27.79.27,1.27-.09.98-.27,1.44c-.18.46-.44.89-.77,1.28s-.74.75-1.21,1.05c-.48.31-1.01.56-1.6.76Z"/>
    <path class="cls-2" d="m86.72,12.39c.27-.02.48-.07.63-.14s.25-.19.31-.35c.06-.16.09-.39.09-.69v-2.54c0-.28-.05-.46-.15-.54-.1-.08-.25-.11-.46-.11-.11,0-.31.02-.59.07l-.05-.06.06-.55s.13-.02.26-.03c.14-.02.3-.04.48-.06.19-.03.37-.05.55-.07.38-.06.66-.11.85-.14s.34-.06.47-.08l.09.25c-.14.11-.24.23-.3.36s-.1.32-.13.58c-.02.36-.04.74-.06,1.14-.02.4-.02.78-.03,1.15s0,.68,0,.95c0,.29.04.49.11.6.08.11.22.17.42.17.14,0,.33-.01.58-.03l.02.06-.11.63c-.21-.02-.4-.02-.56-.03-.16,0-.34,0-.52-.01s-.34,0-.48,0c-.16,0-.33,0-.51.02-.18.02-.35.03-.51.05-.16.02-.35.04-.56.07l.08-.62Z"/>
    <path class="cls-2" d="m91,14.4l-.05-.08.08-.48,1.24-.25v-7.24l-1.28-.25-.05-.09.07-.47,2.25.13c-.02.44-.03.83-.04,1.18-.01.35-.02.71-.04,1.11-.02.39-.03.77-.03,1.12,0,.36-.01.65-.01.88s0,.52.01.88c0,.36.02.73.03,1.13.01.4.02.77.04,1.12.02.35.03.75.05,1.19l-2.27.13Z"/>
  </g>
</svg>