<?xml version="1.0" encoding="UTF-8"?>
<svg id="_图层_2" data-name=" 图层 2" xmlns="http://www.w3.org/2000/svg" viewBox="0 0 119.77 20.55">
  <defs>
    <style>
      .cls-1 {
        fill: #fff;
        stroke: #000;
        stroke-miterlimit: 10;
        stroke-width: .71px;
      }

      .cls-2 {
        fill: #231815;
        stroke-width: 0px;
      }
    </style>
  </defs>
  <rect class="cls-1" x=".35" y=".35" width="119.06" height="19.84"/>
  <g>
    <path class="cls-2" d="m31.74,8.87c-.07-.26-.13-.5-.2-.72-.06-.22-.13-.48-.21-.77s-.17-.59-.26-.92-.19-.65-.29-.98-.2-.65-.29-.95c-.05-.16-.12-.28-.23-.35-.1-.07-.25-.11-.43-.12,0,0,0-.01-.01-.02,0,0,0-.01-.01-.02l.06-.41c.23.01.42.02.57.02h.37c.2,0,.4,0,.58-.02.18-.01.4-.03.64-.06l.03.06-.04.38c-.18.01-.31.03-.4.05s-.16.06-.19.1-.05.09-.05.16c0,.05.02.15.05.3.03.15.07.33.12.54.05.21.11.44.17.69s.13.49.19.72c.06.24.12.45.17.65s.11.41.16.64h.08c.06-.16.12-.33.19-.52.07-.19.14-.39.21-.6s.14-.42.21-.64.14-.43.21-.64.14-.41.2-.59c-.02-.07-.03-.14-.05-.2-.02-.07-.04-.13-.06-.2-.04-.15-.12-.25-.22-.31s-.25-.09-.44-.1l-.03-.04.06-.41c.14,0,.27,0,.38.01h.61c.18,0,.36,0,.55-.02.19-.01.41-.03.68-.06l.03.06-.04.38c-.18.01-.31.03-.4.05s-.16.05-.19.1c-.04.04-.05.1-.05.18,0,.04,0,.14.04.28.03.14.07.32.12.54s.11.45.17.69c.06.24.12.48.18.72s.12.46.17.65.11.41.18.65h.07c.05-.14.12-.32.19-.54.07-.22.16-.45.24-.7.09-.25.17-.51.26-.76.08-.25.16-.49.23-.71.07-.22.13-.41.17-.56.04-.15.06-.25.06-.28,0-.1-.04-.16-.11-.2s-.2-.06-.38-.06h-.35l-.03-.04.06-.41c.23.02.44.03.61.04s.35.01.52.01h.39c.13,0,.29,0,.47-.02l-.06.45c-.14,0-.24.03-.3.08s-.12.15-.18.31l-1.56,4.26-.83.17s-.03-.15-.08-.34-.11-.43-.19-.72c-.08-.29-.17-.62-.27-.98s-.21-.74-.33-1.12h-.06l-1.01,2.99-.84.17h.02Z"/>
    <path class="cls-2" d="m38.22,8.82l.05-.44c.24-.03.39-.1.48-.19.09-.1.13-.26.13-.49v-3.22c0-.17,0-.29-.04-.34-.03-.06-.11-.09-.23-.09h-.12s-.1,0-.14.01l-.03-.05.06-.41h.38c.15,0,.3,0,.46.01h1.49c.29,0,.55-.02.77-.03s.41-.03.58-.06l.04.06c-.03.13-.05.28-.08.44s-.05.33-.06.49c-.02.16-.03.31-.04.45l-.54.04s0-.11,0-.18v-.16c0-.12,0-.22-.03-.29s-.07-.12-.14-.16c-.08-.04-.19-.06-.34-.07s-.36-.02-.61-.02c-.16,0-.27,0-.34.02s-.11.04-.13.08-.03.11-.04.2l-.08,1.81-.02,1.54c0,.14,0,.24.04.31s.08.12.16.14.21.03.38.03c.29,0,.52,0,.7-.03.18-.02.31-.06.4-.13.09-.06.16-.16.21-.29.04-.13.08-.3.11-.5l.5-.05.04.06c-.04.18-.08.41-.12.67s-.07.51-.1.74l-.06.06c-.3-.01-.61-.02-.93-.03-.31,0-.61-.01-.87-.02h-.65c-.18,0-.39,0-.62.02-.23.01-.44.03-.61.06h-.02Zm1.35-2.38l.06-.59h.85c.09,0,.23,0,.42-.02s.37-.03.54-.06l.04.06-.11.57c-.14,0-.32-.01-.54-.02h-.54c-.11,0-.23,0-.37.02-.13.01-.25.03-.35.04Z"/>
    <path class="cls-2" d="m44.74,8.84c-.27,0-.5-.02-.7-.07s-.41-.12-.63-.22l-.05-.09c.02-.15.04-.29.05-.42s.03-.27.04-.44c0-.17.02-.34.02-.52l.49-.04c0,.34.03.6.08.79.05.18.15.31.29.38s.34.1.6.1c.29,0,.53-.07.72-.21s.28-.33.28-.56c0-.17-.06-.31-.18-.42s-.27-.23-.45-.33-.37-.2-.58-.3c-.21-.11-.42-.22-.62-.35s-.36-.28-.48-.45c-.12-.17-.19-.38-.19-.62,0-.3.09-.56.26-.79s.4-.41.7-.54c.29-.13.63-.2,1.01-.2.25,0,.47.02.66.05s.4.08.62.16l.03.07c-.05.25-.09.47-.11.68s-.05.43-.07.68l-.43.04-.06-.05c.02-.13.02-.25.02-.36,0-.26-.07-.44-.2-.55-.13-.1-.36-.16-.68-.16-.26,0-.48.07-.65.2s-.26.29-.26.49c0,.15.05.28.15.4.1.12.23.22.4.32s.34.19.52.28c.23.11.46.23.68.37.22.13.41.29.56.46s.22.39.22.64c0,.31-.09.59-.26.83s-.42.42-.73.56c-.31.13-.68.2-1.09.2h.02Z"/>
    <path class="cls-2" d="m48.59,8.78l.06-.42c.25-.02.42-.05.54-.1.11-.04.18-.13.22-.25.03-.12.05-.31.05-.57v-3.36c-.27,0-.49.02-.64.04s-.27.06-.35.13c-.08.06-.13.16-.17.3-.04.14-.07.32-.09.56l-.5.04c.02-.17.04-.35.05-.53,0-.18.03-.36.04-.54,0-.18.02-.33.02-.47l.08-.07.72.09h2.49l.74-.09.08.07c0,.15,0,.31.02.49s.02.36.04.53c.02.17.03.33.05.48l-.5.04c-.03-.25-.07-.44-.1-.58s-.09-.24-.16-.31-.18-.11-.32-.13-.34-.04-.59-.05c-.02.17-.03.4-.04.69,0,.29-.02.6-.03.95,0,.34-.02.7-.02,1.05s0,.69,0,1c0,.2.04.34.1.42.07.08.18.12.34.12.14,0,.29,0,.43-.02l.02.04-.07.45c-.12-.01-.27-.02-.43-.02h-1.18c-.13,0-.28,0-.44.02-.15,0-.29.01-.42.02l-.03-.02Z"/>
    <path class="cls-2" d="m58.5,8.87c-.15,0-.3-.07-.45-.2s-.29-.32-.42-.55l-.78-1.49h-.62l-.02,1.06c0,.19,0,.33.04.42s.08.15.16.18c.08.03.21.04.38.05l.02.03-.07.41c-.13,0-.24,0-.34-.01s-.2,0-.3,0h-.75c-.16,0-.35.02-.56.03l.07-.44c.24-.03.4-.08.48-.17.08-.08.12-.24.12-.47v-3.24c0-.16,0-.27-.05-.33-.04-.06-.11-.09-.22-.09-.05,0-.14,0-.27.02l-.03-.04.06-.42c.13,0,.25,0,.35.01h.87c.12,0,.24,0,.36-.01.12,0,.27-.01.43-.02.54,0,.97.11,1.27.34s.46.55.46.96c0,.31-.1.6-.29.87-.2.27-.47.49-.84.66l.8,1.28c.16.25.3.42.44.53s.31.16.51.16l.04.05-.06.34-.79.09h0Zm-1.46-2.72s.07-.04.15-.07c.08-.04.17-.1.27-.18s.18-.19.26-.33c.07-.14.11-.31.11-.53,0-.33-.11-.57-.33-.73s-.56-.24-1.01-.24c-.05,0-.09.01-.11.04-.02.02-.03.07-.04.15-.02.38-.04.71-.05.99,0,.28-.02.56-.03.82,0,0,.78.08.78.08Z"/>
    <path class="cls-2" d="m60.17,8.83l.05-.43c.24-.05.41-.12.49-.21s.12-.25.12-.48v-3.23c0-.17,0-.29-.05-.34s-.12-.09-.24-.09h-.15c-.06,0-.12,0-.16.01l-.02-.05.06-.4h1.02c.11,0,.25,0,.44-.02.19-.01.38-.03.58-.04l-.04.43c-.21.03-.36.07-.43.13s-.11.17-.12.32c-.02.28-.03.57-.04.88,0,.31-.02.62-.03.92s-.02.59-.02.86v.67c0,.21.02.36.07.43.04.07.13.11.26.11h.21c.07,0,.13,0,.18-.02l.02.04-.07.43c-.11,0-.23,0-.37-.01s-.28,0-.41,0h-.33c-.12,0-.28,0-.46.02-.19.02-.37.04-.54.06h-.02Z"/>
    <path class="cls-2" d="m65.02,8.87c-.07-.26-.14-.5-.2-.72s-.14-.48-.22-.77c-.09-.29-.18-.6-.28-.92-.1-.33-.2-.65-.3-.98-.1-.33-.2-.65-.3-.95-.05-.16-.12-.28-.23-.35-.11-.07-.25-.11-.44-.12l-.02-.04.06-.41c.14,0,.26,0,.36.01h.6c.13,0,.26,0,.41-.01.14,0,.28-.02.42-.03.13-.01.28-.02.45-.04l.03.06-.04.38c-.18.01-.32.03-.42.05s-.16.06-.2.1c-.03.04-.05.1-.05.17,0,.04.02.14.05.28.03.14.07.32.12.54.05.21.11.44.17.69s.13.49.19.72.12.46.17.65.11.41.18.65h.09c.06-.14.13-.32.21-.54.08-.21.16-.45.25-.7s.18-.5.26-.76c.08-.25.16-.49.24-.71s.13-.4.17-.55.06-.24.06-.28c0-.1-.04-.17-.11-.22-.07-.04-.2-.07-.38-.07h-.38l-.02-.04.05-.41c.25.02.46.03.64.04.18,0,.36.01.53.01h.41c.14,0,.3,0,.49-.02l-.05.45c-.15,0-.26.03-.32.08-.06.05-.12.15-.17.31l-1.62,4.26-.86.17v.02Z"/>
    <path class="cls-2" d="m68.82,8.82l.05-.44c.24-.03.39-.1.48-.19.09-.1.13-.26.13-.49v-3.22c0-.17,0-.29-.04-.34-.03-.06-.11-.09-.23-.09h-.12c-.05,0-.1,0-.14.01l-.03-.05.06-.41h.38c.15,0,.3,0,.46.01h1.49c.29,0,.55-.02.77-.03.22-.02.41-.03.58-.06l.04.06c-.03.13-.05.28-.08.44s-.05.33-.06.49c-.02.16-.03.31-.04.45l-.54.04s0-.11.01-.18v-.16c0-.12-.01-.22-.03-.29s-.07-.12-.14-.16c-.08-.04-.19-.06-.34-.07-.15-.01-.36-.02-.61-.02-.16,0-.27,0-.34.02s-.11.04-.13.08-.03.11-.04.2l-.08,1.81-.02,1.54c0,.14.01.24.04.31s.08.12.16.14.21.03.38.03c.29,0,.52,0,.7-.03.18-.02.31-.06.4-.13.09-.06.16-.16.21-.29.04-.13.08-.3.11-.5l.5-.05.04.06c-.04.18-.08.41-.12.67s-.07.51-.1.74l-.06.06c-.3-.01-.61-.02-.93-.03-.31,0-.61-.01-.87-.02h-.65c-.18,0-.39,0-.62.02-.23.01-.44.03-.61.06h-.02Zm1.35-2.38l.06-.59h.85c.09,0,.23,0,.42-.02.19-.02.37-.03.54-.06l.04.06-.11.57c-.14,0-.32-.01-.54-.02h-.54c-.11,0-.23,0-.37.02-.13.01-.25.03-.35.04Z"/>
    <path class="cls-2" d="m77.67,8.87c-.15,0-.3-.07-.45-.2-.15-.13-.29-.32-.42-.55l-.78-1.49h-.62l-.02,1.06c0,.19.01.33.04.42.02.09.08.15.16.18.08.03.21.04.38.05l.02.03-.07.41c-.13,0-.24,0-.34-.01s-.2,0-.3,0h-.75c-.16,0-.35.02-.56.03l.07-.44c.24-.03.4-.08.48-.17.08-.08.12-.24.12-.47v-3.24c0-.16-.01-.27-.05-.33s-.11-.09-.22-.09c-.05,0-.14,0-.27.02l-.03-.04.06-.42c.13,0,.25,0,.35.01h.87c.12,0,.24,0,.36-.01.12,0,.27-.01.43-.02.54,0,.97.11,1.27.34.3.23.46.55.46.96,0,.31-.1.6-.29.87-.2.27-.47.49-.84.66l.8,1.28c.16.25.3.42.44.53s.31.16.51.16l.04.05-.06.34-.79.09h0Zm-1.46-2.72s.06-.04.15-.07c.08-.04.17-.1.27-.18s.18-.19.26-.33.11-.31.11-.53c0-.33-.11-.57-.33-.73s-.56-.24-1.01-.24c-.05,0-.09.01-.11.04-.02.02-.03.07-.04.15-.02.38-.04.71-.05.99-.01.28-.02.56-.03.82l.79.08h0Z"/>
    <path class="cls-2" d="m29.52,17.44c-.27,0-.5-.02-.7-.07s-.41-.12-.63-.22l-.05-.09c.02-.16.04-.29.05-.42.01-.12.03-.27.04-.44s.02-.34.02-.52l.49-.04c0,.34.03.6.08.79.05.18.15.31.29.38.14.07.34.1.6.1.29,0,.53-.07.72-.21.18-.14.28-.33.28-.56,0-.17-.06-.31-.18-.42s-.27-.23-.45-.33-.37-.2-.58-.3c-.21-.11-.42-.22-.62-.35s-.36-.28-.48-.45c-.12-.17-.19-.38-.19-.62,0-.3.09-.56.26-.79s.4-.41.7-.54c.3-.13.63-.2,1.01-.2.25,0,.47.02.66.05s.4.09.62.16l.03.07c-.05.25-.08.47-.11.68s-.05.43-.07.68l-.43.04-.06-.05c.02-.13.03-.25.03-.36,0-.26-.07-.44-.2-.55-.13-.1-.36-.16-.68-.16-.26,0-.48.07-.65.2s-.26.29-.26.49c0,.15.05.28.15.4s.23.22.4.32c.16.1.34.19.52.28.23.11.46.24.68.37.22.13.41.29.56.46.15.17.22.39.22.64,0,.31-.09.59-.26.83s-.42.42-.73.56c-.31.13-.68.2-1.09.2h0Z"/>
    <path class="cls-2" d="m32.86,17.4l.06-.44c.23-.04.38-.11.46-.19.07-.09.11-.24.11-.47v-3.22c0-.17,0-.29-.05-.34-.04-.06-.11-.09-.22-.09-.05,0-.14,0-.27.02l-.03-.04.06-.41h1.2c.12,0,.24,0,.37-.01.13,0,.28-.01.46-.02.32,0,.59.03.82.1s.41.17.56.3.25.29.32.47.1.38.1.59c0,.24-.05.46-.15.67s-.24.4-.42.57-.38.3-.6.4c-.22.1-.46.14-.7.14h-.68v.7c0,.22,0,.38.02.5.02.11.05.18.1.22.05.03.13.05.23.05.07,0,.21,0,.4-.02l.02.04-.07.43c-.12,0-.23,0-.32-.01h-.9c-.14,0-.28.01-.41.02-.13,0-.24.01-.33.02s-.13.01-.14.02Zm2.22-2.42c.58-.11.86-.5.86-1.18,0-.38-.11-.66-.33-.83-.22-.18-.56-.26-1.03-.26-.09,0-.14,0-.16.02-.02.01-.03.05-.04.11-.02.33-.04.66-.06,1.02-.02.35-.03.69-.04,1.02l.79.11h.01Z"/>
    <path class="cls-2" d="m39.86,17.44c-.45,0-.85-.1-1.18-.31-.34-.21-.6-.5-.78-.87-.19-.38-.28-.81-.28-1.32,0-.41.06-.78.19-1.12.13-.34.31-.64.55-.89.24-.25.52-.45.84-.59s.67-.21,1.05-.21c.47,0,.88.1,1.22.31s.61.49.79.86c.19.37.29.81.29,1.31,0,.41-.07.79-.2,1.13-.13.34-.32.64-.56.89s-.52.45-.84.59c-.33.14-.68.21-1.07.21h-.02Zm.23-.53c.3,0,.57-.08.79-.24s.39-.38.52-.67.19-.63.19-1.02c0-.47-.07-.87-.2-1.2s-.32-.59-.56-.77c-.24-.18-.52-.27-.84-.27-.29,0-.55.08-.77.24s-.39.38-.51.66c-.12.29-.18.62-.18,1.01,0,.46.06.86.19,1.2.13.34.31.6.54.78s.51.28.82.28h.01Z"/>
    <path class="cls-2" d="m47.31,17.47c-.15,0-.3-.07-.45-.2-.15-.13-.29-.32-.42-.55l-.78-1.49h-.62l-.02,1.06c0,.19,0,.33.04.42.02.09.08.15.16.18.08.03.21.04.38.05l.02.03-.07.41c-.13,0-.24,0-.34-.01h-1.05c-.16,0-.35.02-.56.03l.07-.44c.24-.03.4-.08.48-.17.08-.09.12-.24.12-.47v-3.24c0-.16,0-.27-.05-.33-.04-.06-.11-.09-.22-.09-.05,0-.14,0-.27.02l-.03-.04.06-.42c.13,0,.25,0,.35.01h.87c.12,0,.24,0,.36-.01.12,0,.27-.01.43-.02.54,0,.97.11,1.27.34.3.23.46.55.46.96,0,.31-.1.61-.29.87-.2.27-.47.49-.84.66l.8,1.28c.16.25.3.42.44.53s.31.16.51.16l.04.05-.06.34-.79.09h0Zm-1.46-2.72s.07-.03.15-.07.17-.1.27-.18.18-.19.26-.33c.07-.14.11-.31.11-.53,0-.33-.11-.57-.33-.73s-.56-.24-1.01-.24c-.05,0-.09.01-.11.04s-.03.07-.04.15c-.02.38-.04.71-.05.99s-.02.56-.03.82l.78.08Z"/>
    <path class="cls-2" d="m49.55,17.38l.06-.42c.25-.02.42-.05.54-.1.11-.05.18-.13.22-.25.03-.12.05-.31.05-.57v-3.36c-.27,0-.48.02-.64.04-.16.02-.27.06-.35.13-.08.06-.13.16-.17.3-.03.14-.06.32-.09.56l-.5.04c.02-.17.04-.35.05-.53,0-.18.03-.36.04-.54,0-.18.02-.33.02-.47l.08-.07.72.09h2.49l.74-.09.08.07c0,.15,0,.31.02.49s.02.35.04.53c.02.17.03.33.05.48l-.5.04c-.03-.25-.07-.44-.1-.58-.04-.14-.09-.24-.16-.31-.07-.07-.18-.11-.32-.13s-.34-.04-.59-.05c-.02.17-.03.4-.04.69,0,.29-.02.6-.03.95,0,.34-.02.69-.02,1.05s0,.69,0,1c0,.2.03.34.1.42s.18.12.34.12c.14,0,.29,0,.43-.02l.02.04-.07.45c-.12-.01-.27-.02-.43-.02h-1.18c-.14,0-.28,0-.44.02s-.29.01-.42.02l-.03-.02Z"/>
    <path class="cls-2" d="m55.21,17.44c-.27,0-.5-.02-.7-.07s-.41-.12-.63-.22l-.05-.09c.02-.16.04-.29.05-.42,0-.12.03-.27.04-.44,0-.17.02-.34.02-.52l.49-.04c0,.34.03.6.08.79.05.18.15.31.29.38s.34.1.6.1c.29,0,.53-.07.72-.21s.28-.33.28-.56c0-.17-.06-.31-.18-.42s-.27-.23-.45-.33-.37-.2-.58-.3c-.21-.11-.42-.22-.62-.35s-.36-.28-.48-.45-.19-.38-.19-.62c0-.3.09-.56.26-.79s.4-.41.7-.54c.29-.13.63-.2,1.01-.2.25,0,.47.02.66.05s.4.09.62.16l.03.07c-.05.25-.09.47-.11.68s-.05.43-.07.68l-.43.04-.06-.05c.02-.13.02-.25.02-.36,0-.26-.07-.44-.2-.55-.13-.1-.36-.16-.68-.16-.26,0-.48.07-.65.2-.17.13-.26.29-.26.49,0,.15.05.28.15.4.1.11.23.22.4.32.16.1.34.19.52.28.23.11.46.24.68.37s.41.29.56.46c.15.17.22.39.22.64,0,.31-.09.59-.26.83s-.42.42-.73.56c-.31.13-.68.2-1.09.2h.02Z"/>
    <path class="cls-2" d="m60.44,17.4l.06-.44c.23-.04.38-.11.46-.19.07-.09.11-.24.11-.47v-3.22c0-.17,0-.29-.05-.34-.04-.06-.11-.09-.22-.09-.05,0-.14,0-.27.02l-.03-.04.06-.41h1.2c.12,0,.24,0,.37-.01.13,0,.28-.01.46-.02.32,0,.59.03.82.1s.41.17.56.3.25.29.32.47.1.38.1.59c0,.24-.05.46-.15.67s-.24.4-.42.57-.38.3-.6.4c-.22.1-.46.14-.7.14h-.68v.7c0,.22,0,.38.02.5.02.11.05.18.1.22.05.03.13.05.23.05.07,0,.21,0,.4-.02l.02.04-.07.43c-.12,0-.23,0-.32-.01h-.9c-.14,0-.28.01-.41.02-.13,0-.24.01-.33.02s-.13.01-.14.02Zm2.22-2.42c.58-.11.86-.5.86-1.18,0-.38-.11-.66-.33-.83-.22-.18-.56-.26-1.03-.26-.09,0-.14,0-.16.02-.02.01-.03.05-.04.11-.02.33-.04.66-.06,1.02-.02.35-.03.69-.04,1.02l.79.11h.01Z"/>
    <path class="cls-2" d="m67.56,17.36l.03-.38c.18-.02.32-.04.42-.06.1-.02.16-.05.2-.08s.06-.09.06-.16c0-.04,0-.09-.01-.15,0-.06-.02-.12-.04-.18l-.22-.76h-.79c-.14,0-.29,0-.45.02-.16.01-.28.03-.37.04l-.26.74c-.04.13-.06.22-.06.28,0,.11.04.18.1.23s.18.07.33.07h.41l.02.04-.05.41c-.23-.02-.44-.03-.62-.04-.18,0-.35-.01-.52-.01h-.42c-.14,0-.31,0-.5.02l.06-.44c.14-.02.25-.07.34-.16.09-.08.17-.23.24-.43l1.5-4.07.83-.14.07.02c.07.26.14.5.2.73.06.23.13.48.21.77s.17.59.26.9c.09.31.18.63.28.94.09.31.18.6.27.87.06.19.15.33.25.41s.26.13.46.15l.02.04-.06.39c-.22-.01-.4-.02-.54-.02h-.37c-.21,0-.41,0-.6.02-.19.01-.41.03-.65.05l-.03-.06h0Zm-1.02-2.25h.65c.1,0,.21,0,.34-.01.13,0,.24-.01.33-.02l-.55-1.95h-.08s-.69,1.98-.69,1.98Z"/>
    <path class="cls-2" d="m74.24,17.47c-.15,0-.3-.07-.45-.2-.15-.13-.29-.32-.42-.55l-.78-1.49h-.62l-.02,1.06c0,.19.01.33.04.42.02.09.08.15.16.18s.21.04.38.05l.02.03-.07.41c-.13,0-.24,0-.34-.01h-1.05c-.16,0-.35.02-.56.03l.07-.44c.24-.03.4-.08.48-.17s.12-.24.12-.47v-3.24c0-.16-.01-.27-.05-.33s-.11-.09-.22-.09c-.05,0-.14,0-.27.02l-.03-.04.06-.42c.13,0,.25,0,.35.01h.87c.12,0,.24,0,.36-.01.12,0,.27-.01.43-.02.54,0,.97.11,1.27.34s.46.55.46.96c0,.31-.1.61-.29.87-.2.27-.47.49-.84.66l.8,1.28c.16.25.3.42.44.53s.31.16.51.16l.04.05-.06.34-.79.09h0Zm-1.46-2.72s.06-.03.15-.07c.08-.04.17-.1.27-.18s.18-.19.26-.33.11-.31.11-.53c0-.33-.11-.57-.33-.73s-.56-.24-1.01-.24c-.05,0-.09.01-.11.04-.02.02-.03.07-.04.15-.02.38-.04.71-.05.99s-.02.56-.03.82l.79.08h0Z"/>
    <path class="cls-2" d="m76.6,13.08c0-.17-.02-.29-.06-.34-.04-.06-.12-.09-.24-.09-.05,0-.13,0-.26.02l-.03-.05.06-.41c.14,0,.27,0,.38.01h.58c.08,0,.18,0,.29-.01s.21-.01.32-.02c.1,0,.22-.02.35-.03l-.03.43c-.2.04-.33.09-.4.15-.07.06-.11.17-.12.32l-.09,3.3c0,.21.02.36.06.43.05.08.14.11.26.11.08,0,.2,0,.34-.02l.02.04-.07.43c-.15,0-.28,0-.4-.01h-1.33c-.1,0-.22,0-.34.01l.08-.42c.25-.03.4-.09.48-.16.07-.08.11-.23.11-.46v-3.23h.04Zm.98,1.6l1.32-1.4c.15-.16.23-.29.23-.41,0-.07-.04-.12-.12-.16s-.2-.07-.36-.08l-.02-.04.06-.41c.13.01.24.02.35.02.1,0,.21.01.31.02h.53c.09,0,.18,0,.27-.01.09,0,.19-.01.29-.02l.04.06-.06.38c-.1.03-.2.08-.28.13-.09.06-.19.13-.29.24-.11.1-.24.24-.4.41l-1.09,1.18,1.22,1.69c.18.24.34.41.48.52.14.11.31.16.49.17l.05.05-.06.34c-.14.02-.26.03-.35.04-.1.01-.19.02-.27.03-.08,0-.14.01-.16.01-.15,0-.3-.06-.45-.17-.15-.12-.3-.28-.44-.51l-1.32-1.95.02-.14h0Z"/>
  </g>
  <g>
    <path class="cls-2" d="m86.46,14.64l-2.22-.12c.01-.44.03-.83.04-1.17.02-.34.03-.71.04-1.1s.02-.76.03-1.12.01-.65.01-.87,0-.52-.01-.87-.02-.73-.03-1.13-.02-.77-.04-1.12c-.01-.35-.03-.74-.04-1.18l2.25-.12.04.08-.07.48-1.25.25v7.2l1.27.25.04.09-.07.46h.01Z"/>
    <path class="cls-2" d="m88.29,14.27l-.1-.06-.16-.46c.96-.42,1.7-.96,2.21-1.64s.77-1.45.77-2.31c0-.54-.11-.96-.32-1.27-.22-.31-.51-.46-.89-.46-.34,0-.6.11-.79.33s-.28.53-.28.92c0,.26.05.49.16.69s.25.37.44.49.39.18.62.18c.18,0,.38-.05.61-.14s.42-.21.58-.35l-.23.9-.16-.11c-.26.15-.49.27-.69.36s-.35.14-.46.15c-.37,0-.7-.08-.99-.24s-.52-.39-.69-.67c-.17-.29-.26-.61-.26-.96,0-.44.1-.82.3-1.16.2-.33.48-.59.83-.79.36-.19.76-.29,1.21-.29.42,0,.78.1,1.1.3s.57.48.74.84c.18.36.27.78.27,1.26s-.09.98-.27,1.43c-.18.46-.43.88-.76,1.28-.33.39-.74.74-1.21,1.05s-1,.56-1.59.75v-.02Z"/>
    <path class="cls-2" d="m94,14.27c-.25,0-.44-.07-.57-.2s-.21-.39-.23-.78l.1-.1c.16.04.32.07.48.09s.31.03.46.03c.37,0,.7-.06.99-.17s.52-.27.69-.47.25-.43.25-.69c0-.23-.07-.43-.21-.59s-.38-.29-.71-.41c-.33-.11-.78-.21-1.34-.31l-.1-.12c.03-.35.06-.69.09-1.04.03-.34.05-.66.07-.94s.04-.59.05-.92l.09-.09,2.17-.09c.22,0,.38-.04.48-.1.1-.06.18-.17.24-.34l.48-.05-.28,1.49-.1.09c-.44-.03-.84-.05-1.2-.07-.36-.02-.76-.02-1.18-.02l-.09,1.26c.54.11,1.01.24,1.42.4.41.16.73.36.95.6s.34.53.34.89-.1.68-.31.99c-.2.31-.47.59-.8.84s-.69.45-1.08.59-.77.22-1.13.22h-.02Z"/>
    <path class="cls-2" d="m98.8,14.64l-.05-.08.08-.48,1.24-.25v-7.2l-1.27-.25-.05-.09.07-.46,2.23.12c-.01.44-.03.83-.04,1.17s-.03.71-.04,1.1c-.02.39-.03.76-.03,1.12s-.01.65-.01.87,0,.52.01.87c0,.36.02.73.03,1.12.01.39.02.76.04,1.12.01.35.03.75.04,1.19l-2.26.12h.01Z"/>
  </g>
</svg>