<?xml version="1.0" encoding="UTF-8"?>
<svg id="_图层_2" data-name=" 图层 2" xmlns="http://www.w3.org/2000/svg" viewBox="0 0 119.77 20.55">
  <defs>
    <style>
      .cls-1 {
        fill: #fff;
        stroke: #000;
        stroke-miterlimit: 10;
        stroke-width: .71px;
      }

      .cls-2 {
        fill: #231815;
        stroke-width: 0px;
      }
    </style>
  </defs>
  <rect class="cls-1" x=".35" y=".35" width="119.06" height="19.84"/>
  <g>
    <path class="cls-2" d="m5.84,12.95c.29-.05.5-.14.61-.27.11-.14.16-.37.16-.69v-4.57c0-.24-.03-.4-.08-.49-.05-.08-.16-.12-.33-.12-.07,0-.19,0-.36.02l-.04-.07.08-.57h.31c.16,0,.34,0,.54.01h.53c.13,0,.27,0,.44-.02.16-.01.32-.02.48-.03.16,0,.33-.02.54-.04l-.06.63c-.26.02-.44.07-.54.13-.11.06-.17.16-.19.29-.02.13-.04.31-.07.53-.03.45-.05.93-.07,1.44-.02.51-.03,1.02-.04,1.51-.01.49-.02.94-.02,1.34,0,.23.02.4.06.51.04.11.12.19.24.23s.31.06.55.06c.3,0,.55-.02.74-.06s.34-.12.45-.24.21-.29.28-.5.13-.51.19-.86l.69-.07.06.08c-.08.44-.14.83-.18,1.18s-.09.74-.14,1.15l-.08.09c-.42-.02-.79-.04-1.11-.05-.33-.01-.67-.02-1.02-.03-.36-.01-.68-.02-.98-.02s-.58,0-.84.03c-.26.02-.55.05-.86.09l.07-.62h0Z"/>
    <path class="cls-2" d="m15.14,13.59c-.64,0-1.2-.15-1.68-.44-.48-.29-.85-.7-1.11-1.24-.26-.53-.4-1.15-.4-1.87,0-.57.09-1.1.27-1.59.18-.48.44-.91.78-1.26s.73-.64,1.19-.83.95-.29,1.48-.29c.67,0,1.24.15,1.72.44s.86.7,1.13,1.22.4,1.14.4,1.85c0,.58-.09,1.12-.28,1.6-.19.49-.45.91-.79,1.26-.34.36-.74.63-1.2.83-.46.2-.97.3-1.52.3v.02Zm.33-.75c.43,0,.8-.11,1.12-.33.31-.22.56-.54.74-.95s.27-.89.27-1.44c0-.67-.09-1.23-.28-1.71-.19-.47-.45-.84-.79-1.09-.34-.26-.74-.38-1.2-.38-.42,0-.78.11-1.09.33-.31.22-.55.54-.72.94s-.25.88-.25,1.43c0,.66.09,1.22.27,1.7s.44.84.77,1.11c.33.26.72.39,1.17.39h0Z"/>
    <path class="cls-2" d="m20.43,13.58l.08-.61c.34-.07.57-.17.68-.3s.17-.36.17-.67v-4.58c.01-.24-.01-.4-.07-.49-.05-.08-.17-.12-.34-.12h-.18c-.08,0-.13,0-.19.02l-.05-.07.09-.57c.18,0,.4,0,.66.01.26,0,.47.01.63.01.15,0,.36,0,.62-.03s.53-.04.8-.06l-.04.61c-.2.03-.36.07-.45.12-.1.05-.16.14-.2.26-.03.12-.06.3-.07.54l-.07,1.75h1.71c.24.01.47,0,.7,0,.22-.01.5-.04.83-.07v-1.92c.01-.24-.02-.4-.07-.49-.05-.08-.17-.12-.34-.12h-.18c-.07,0-.13,0-.18.02l-.04-.07.08-.57h.29c.15,0,.32,0,.51.01s.34,0,.46,0c.16,0,.38,0,.65-.03.28-.02.56-.04.84-.06l-.06.61c-.28.04-.46.1-.55.18s-.14.23-.16.45c-.02.39-.04.81-.06,1.25-.02.44-.04.88-.05,1.31-.01.44-.02.84-.03,1.21,0,.38-.01.69-.01.95,0,.3.03.5.1.61.07.1.2.15.39.15.07,0,.16,0,.25-.01.09,0,.16-.01.22-.02l.04.06-.1.61c-.21,0-.46-.02-.75-.02s-.55-.01-.75-.01h-.93c-.18,0-.35,0-.5.01l.1-.61c.23,0,.4-.04.52-.1s.2-.17.25-.33c.04-.16.07-.39.07-.7v-1.6h-1.51c-.07,0-.2,0-.39.01s-.4.02-.65.04c-.24.02-.48.04-.73.06l-.03,1.85c0,.3.03.51.1.61s.19.16.37.16c.08,0,.17,0,.25-.01.09,0,.16-.01.22-.02l.03.06-.1.61s-.13-.01-.27-.02c-.14,0-.3,0-.46-.01h-.41c-.2,0-.43,0-.69.02s-.48.03-.68.05-.33.04-.39.06h.02Z"/>
    <path class="cls-2" d="m32.7,13.48l.04-.54c.26-.03.45-.06.59-.09s.23-.07.28-.12.08-.13.08-.23c0-.06,0-.13-.02-.21,0-.08-.03-.17-.06-.26l-.32-1.08c-.14,0-.32-.01-.55-.01h-.56c-.2,0-.42,0-.64.03-.22.02-.4.04-.53.05l-.36,1.04c-.06.18-.09.31-.09.4,0,.15.05.26.15.32.1.06.25.1.46.1h.58l.03.06-.07.58c-.33-.02-.62-.04-.87-.05s-.5-.02-.74-.02h-.6c-.2,0-.44.01-.71.03l.09-.62c.2-.03.36-.1.48-.22s.23-.32.34-.61l2.13-5.77,1.18-.19.1.03c.11.37.2.72.29,1.04s.19.69.3,1.09.23.84.36,1.28c.13.45.26.89.39,1.33s.26.85.38,1.23c.09.27.21.46.35.58.14.11.36.18.66.22l.03.06-.08.55c-.31-.02-.56-.02-.76-.03h-.53c-.29,0-.58,0-.86.03-.28.02-.58.04-.92.07l-.04-.08h.02Zm-1.45-3.19h.92c.14,0,.3,0,.49-.02.19-.01.34-.02.46-.03l-.78-2.77h-.11l-.97,2.81h-.01Z"/>
    <path class="cls-2" d="m42.6,13.84c-.5-.79-.98-1.54-1.44-2.23s-.87-1.3-1.22-1.82c-.36-.52-.74-1.08-1.16-1.68h-.08l-.05,4.26c0,.17.04.3.09.37s.15.11.28.11h.55l.03.06-.1.6c-.18,0-.34-.02-.48-.02s-.28-.01-.43-.02h-.41c-.17,0-.35,0-.54.02-.19.02-.41.04-.66.07l.07-.62c.23-.03.41-.1.52-.2s.17-.28.18-.51l.15-4.75c0-.24-.07-.41-.2-.5s-.39-.16-.77-.2l-.04-.08.08-.52c.26.02.47.03.65.04.17.01.33.02.48.02s.28,0,.42-.01c.14,0,.29-.02.48-.03.35.54.69,1.06,1.02,1.57s.65.99.94,1.43.56.83.79,1.16.47.68.73,1.05h.08v-4.07c0-.17-.04-.3-.1-.37-.06-.08-.16-.11-.28-.11h-.41l-.03-.07.09-.59c.17,0,.33.02.46.02s.27.01.41.02.27,0,.38,0c.17,0,.34,0,.53-.02.19-.01.42-.03.68-.06l-.06.62c-.26.03-.44.1-.56.21s-.18.28-.19.5l-.16,6.23-.7.15-.02-.03Z"/>
    <path class="cls-2" d="m49.15,13.51l.09-.6c.35-.03.6-.08.76-.14s.26-.18.31-.36c.05-.17.07-.44.07-.81v-4.76c-.38,0-.69.03-.91.06-.22.03-.38.09-.49.18-.11.09-.19.23-.24.43-.05.19-.09.46-.13.79l-.71.06c.03-.24.05-.49.07-.75s.04-.51.05-.76.03-.47.03-.67l.11-.1,1.02.12h3.53l1.04-.12.11.1c0,.21.02.44.03.7,0,.25.03.5.05.75s.04.47.07.67l-.71.06c-.05-.35-.1-.62-.15-.82-.05-.2-.13-.34-.23-.44-.1-.09-.25-.16-.46-.19-.2-.03-.48-.05-.84-.07-.02.24-.04.57-.06.98s-.04.86-.05,1.34-.02.98-.03,1.49-.02.98-.02,1.42c0,.28.05.48.15.59.1.12.26.18.49.18.2,0,.41-.01.61-.03l.03.06-.1.63c-.17-.02-.38-.03-.61-.03s-.45,0-.66-.01h-1.01c-.2,0-.4.01-.62.02-.22.01-.41.02-.6.03h.01Z"/>
    <path class="cls-2" d="m55.24,13.57l.07-.62c.33-.05.56-.14.68-.27.12-.14.18-.37.18-.69v-4.57c0-.24,0-.4-.06-.49-.05-.08-.16-.12-.32-.12h-.18c-.08,0-.14,0-.2.02l-.05-.07.09-.58c.15,0,.33,0,.54.01.21,0,.42.01.65.02h.61c.58,0,1.08,0,1.5-.01.42,0,.79-.02,1.09-.04.31-.02.58-.05.83-.08l.06.09c-.04.19-.08.4-.11.63-.04.23-.07.46-.09.69-.02.23-.04.45-.06.64l-.76.06c0-.07,0-.15.02-.25s0-.17,0-.23c0-.17-.02-.31-.05-.41-.03-.1-.1-.18-.2-.23-.11-.05-.27-.08-.48-.1s-.5-.03-.87-.03c-.22,0-.38,0-.48.02s-.16.05-.19.11-.04.16-.05.28l-.11,2.56-.03,2.19c0,.2.02.34.05.44.03.1.11.16.22.19s.29.04.54.04c.41,0,.74-.01.99-.04s.44-.09.57-.18.23-.23.29-.41.12-.42.15-.71l.7-.07.06.08c-.06.26-.12.57-.18.95s-.1.73-.14,1.04l-.08.09c-.43-.02-.87-.03-1.32-.04s-.86-.02-1.24-.03c-.38,0-.68-.01-.92-.01-.26,0-.55,0-.88.03-.33.02-.62.05-.87.09h.03Zm1.92-3.37l.09-.84h1.19c.13,0,.33-.01.59-.03.27-.02.52-.05.77-.08l.06.08-.16.8c-.21,0-.46-.01-.76-.02-.3,0-.56-.01-.77-.01-.16,0-.33,0-.52.03-.19.02-.36.04-.5.06h0Z"/>
    <path class="cls-2" d="m66.34,13.66c-.23-.71-.47-1.4-.7-2.07-.23-.67-.46-1.31-.67-1.93-.22-.62-.42-1.2-.61-1.75h-.08s0,.16-.02.38-.04.5-.06.83c-.03.33-.05.68-.08,1.05s-.06.72-.08,1.06c-.03.34-.05.62-.06.85s-.02.37-.02.42c0,.23.12.35.36.35h.43l.03.06-.11.6s-.12,0-.27-.01c-.15,0-.31-.02-.49-.02s-.32-.01-.44-.01c-.11,0-.22,0-.33.01s-.23.02-.34.03-.23.03-.37.04l.07-.62c.23-.02.4-.09.5-.22.1-.12.17-.33.2-.63.02-.11.04-.29.07-.55s.06-.56.1-.91c.03-.34.07-.69.1-1.05.03-.35.07-.7.1-1.02.03-.32.06-.6.08-.82.02-.22.03-.35.03-.4,0-.14-.03-.24-.09-.32-.06-.08-.16-.14-.29-.19-.13-.04-.31-.08-.54-.09l-.04-.07.09-.51c.06,0,.17,0,.34.01.17,0,.34.02.53.03s.33.02.45.02.25,0,.39-.01c.14,0,.26-.01.37-.02.11,0,.18-.01.22-.01.21.71.42,1.37.61,1.98.2.61.38,1.14.53,1.61.16.46.29.84.39,1.12s.16.46.17.52h.07c.01-.05.07-.22.18-.51s.23-.66.4-1.13c.16-.46.35-1,.55-1.6.21-.61.42-1.26.65-1.96.04,0,.13,0,.25.01.12,0,.25.01.39.01h.37c.12,0,.27,0,.46-.02.19-.01.35-.02.49-.03s.23-.02.25-.02l.03.05-.07.53c-.33.03-.55.09-.68.18-.13.09-.19.23-.19.43,0,.08,0,.24.02.48s.03.52.05.84c.02.33.05.68.07,1.05.03.37.05.74.08,1.1.03.36.05.7.07,1,.04.42.1.71.18.85.07.14.19.21.37.21.07,0,.14,0,.21-.01.07,0,.11-.01.11-.01l.03.06-.1.6s-.09,0-.21-.01c-.13,0-.28-.01-.44-.02h-.44c-.13,0-.27,0-.42.01-.15,0-.3.02-.45.03-.15.02-.27.03-.36.03s-.15.01-.15.01l.07-.62c.23-.03.39-.09.49-.18s.15-.22.15-.39c0-.06,0-.2-.02-.43-.02-.22-.03-.49-.06-.8-.02-.31-.05-.64-.07-.99s-.05-.68-.07-.99c-.02-.31-.04-.58-.06-.8s-.03-.37-.03-.43h-.08c-.14.4-.29.82-.45,1.27-.16.45-.33.91-.5,1.39-.17.48-.35.98-.52,1.47-.17.5-.35,1.01-.52,1.52l-.5.09h-.07Z"/>
    <path class="cls-2" d="m72.71,13.55l.08-.62c.33-.06.54-.15.65-.27.11-.12.16-.34.16-.67v-4.57c.01-.24-.01-.4-.07-.49-.05-.08-.16-.12-.32-.12-.07,0-.2,0-.38.02l-.05-.06.09-.58h.29c.16,0,.33,0,.52.01s.37,0,.52,0h.39c.17,0,.34,0,.52-.02.18,0,.4-.01.65-.02.45,0,.84.05,1.16.15s.59.24.79.43c.21.19.36.41.46.67s.15.54.15.84c0,.33-.07.65-.22.95-.14.3-.34.57-.59.8-.25.24-.53.43-.84.56-.31.14-.64.2-.99.2h-.96v1c-.01.31,0,.54.02.7s.07.26.15.31.18.07.33.07c.11,0,.29-.01.57-.03l.02.06-.1.61c-.17,0-.33-.01-.45-.02-.13,0-.26,0-.4-.01h-.35c-.15,0-.33,0-.53.01-.2,0-.39.01-.58.02-.19,0-.35.02-.47.03-.12.01-.19.02-.2.03h-.02Zm3.14-3.44c.82-.15,1.22-.71,1.22-1.67,0-.54-.16-.93-.46-1.18-.31-.25-.8-.37-1.46-.37-.13,0-.21,0-.23.02-.03.02-.04.07-.05.16-.03.46-.06.94-.08,1.44-.02.5-.04.98-.06,1.44l1.12.16Z"/>
    <path class="cls-2" d="m79.77,12.95c.29-.05.5-.14.61-.27.11-.14.16-.37.16-.69v-4.57c0-.24-.03-.4-.08-.49-.05-.08-.16-.12-.33-.12-.07,0-.19,0-.36.02l-.05-.07.08-.57h.31c.16,0,.34,0,.54.01h.53c.13,0,.27,0,.44-.02l.48-.03c.16-.01.33-.02.54-.04l-.06.63c-.26.02-.44.07-.54.13-.11.06-.17.16-.19.29-.02.13-.04.31-.07.53-.03.45-.05.93-.07,1.44s-.03,1.02-.04,1.51-.02.94-.02,1.34c0,.23.02.4.06.51.04.11.12.19.24.23.12.04.31.06.56.06.3,0,.55-.02.74-.06.19-.04.34-.12.45-.24s.21-.29.28-.5c.07-.22.13-.51.19-.86l.69-.07.06.08c-.08.44-.13.83-.18,1.18s-.09.74-.14,1.15l-.08.09c-.42-.02-.79-.04-1.11-.05s-.67-.02-1.02-.03c-.36-.01-.68-.02-.98-.02s-.58,0-.84.03c-.26.02-.55.05-.86.09l.07-.62h0Z"/>
    <path class="cls-2" d="m86.04,13.57l.07-.62c.33-.05.56-.14.68-.27.12-.14.18-.37.18-.69v-4.57c.01-.24-.01-.4-.06-.49-.05-.08-.16-.12-.32-.12h-.17c-.07,0-.14,0-.2.02l-.05-.07.09-.58c.15,0,.33,0,.54.01.21,0,.42.01.65.02h.61c.58,0,1.08,0,1.5-.01.42,0,.78-.02,1.09-.04s.58-.05.83-.08l.06.09c-.04.19-.08.4-.11.63s-.07.46-.09.69-.04.45-.06.64l-.76.06c0-.07.01-.15.02-.25s0-.17,0-.23c0-.17-.02-.31-.05-.41s-.1-.18-.2-.23-.27-.08-.48-.1c-.21-.02-.5-.03-.87-.03-.22,0-.38,0-.48.02-.1.02-.16.05-.19.11s-.04.16-.05.28l-.11,2.56-.03,2.19c0,.2.02.34.05.44.03.1.11.16.22.19s.29.04.54.04c.41,0,.74-.01.99-.04s.44-.09.57-.18.23-.23.29-.41.12-.42.15-.71l.7-.07.06.08c-.06.26-.12.57-.17.95-.06.38-.1.73-.14,1.04l-.08.09c-.43-.02-.87-.03-1.31-.04-.45-.01-.86-.02-1.24-.03s-.68-.01-.92-.01c-.26,0-.55,0-.88.03-.33.02-.62.05-.87.09h0Zm1.92-3.37l.09-.84h1.19c.13,0,.32-.01.59-.03s.52-.05.77-.08l.06.08-.16.8c-.2,0-.46-.01-.76-.02s-.56-.01-.77-.01c-.16,0-.33,0-.52.03-.19.02-.36.04-.5.06h.01Z"/>
    <path class="cls-2" d="m98.7,14.39l-2.22-.12c.02-.44.03-.83.05-1.17s.03-.71.04-1.1.02-.76.03-1.12c0-.35.01-.65.01-.87s0-.52-.01-.87c0-.35-.02-.73-.03-1.13s-.03-.77-.04-1.12-.03-.74-.05-1.18l2.25-.12.04.08-.07.48-1.25.25v7.2l1.27.25.04.09-.07.46h.01Z"/>
    <path class="cls-2" d="m100.53,14.02l-.1-.06-.16-.46c.96-.42,1.7-.96,2.21-1.64s.77-1.45.77-2.31c0-.54-.11-.96-.32-1.27-.22-.31-.51-.46-.89-.46-.34,0-.6.11-.79.33-.18.22-.28.53-.28.92,0,.26.05.49.16.69s.25.37.44.49.39.18.62.18c.18,0,.38-.04.61-.13.22-.09.42-.21.58-.35l-.23.89-.16-.11c-.26.15-.49.27-.69.36-.2.09-.35.14-.46.15-.37,0-.7-.08-.99-.24s-.52-.39-.69-.68c-.17-.29-.25-.61-.25-.96,0-.44.1-.82.3-1.16.2-.33.48-.6.83-.79.36-.19.76-.29,1.21-.29.42,0,.78.1,1.1.3s.57.48.74.84.27.78.27,1.26-.09.98-.27,1.43c-.18.46-.43.88-.76,1.28-.33.39-.74.74-1.21,1.05s-1,.56-1.59.75h0Z"/>
    <path class="cls-2" d="m106.3,14.02l-.1-.06-.16-.46c.96-.42,1.7-.96,2.21-1.64s.77-1.45.77-2.31c0-.54-.11-.96-.32-1.27-.22-.31-.51-.46-.89-.46-.34,0-.6.11-.79.33-.18.22-.28.53-.28.92,0,.26.05.49.16.69s.25.37.44.49.39.18.62.18c.18,0,.38-.04.61-.13.22-.09.42-.21.58-.35l-.23.89-.16-.11c-.26.15-.49.27-.69.36-.2.09-.35.14-.46.15-.37,0-.7-.08-.99-.24s-.52-.39-.69-.68c-.17-.29-.25-.61-.25-.96,0-.44.1-.82.3-1.16.2-.33.48-.6.83-.79.36-.19.76-.29,1.21-.29.42,0,.78.1,1.1.3s.57.48.74.84.27.78.27,1.26-.09.98-.27,1.43c-.18.46-.43.88-.76,1.28-.33.39-.74.74-1.21,1.05s-1,.56-1.59.75h0Z"/>
    <path class="cls-2" d="m111.38,14.39l-.05-.08.08-.48,1.24-.25v-7.2l-1.27-.25-.05-.09.07-.46,2.23.12c-.02.44-.03.83-.04,1.17s-.02.71-.04,1.1c-.01.39-.03.76-.03,1.12s-.01.65-.01.87,0,.52.01.87c0,.36.02.73.03,1.12.01.39.03.77.04,1.12s.03.75.05,1.18l-2.26.12v.02Z"/>
  </g>
</svg>